<mxfile host="app.diagrams.net" modified="2022-07-06T15:06:27.822Z" agent="5.0 (Macintosh; Intel Mac OS X 10_15_7) AppleWebKit/537.36 (KHTML, like Gecko) Chrome/102.0.0.0 Safari/537.36" etag="Q1xjhKrgbX37F8WW0XOO" version="20.0.4" type="github">
  <diagram id="80f749xdTfSQ0nSYwTot" name="第 1 页">
    <mxGraphModel dx="1009" dy="864" grid="1" gridSize="10" guides="1" tooltips="1" connect="1" arrows="1" fold="1" page="1" pageScale="1" pageWidth="827" pageHeight="1169" math="0" shadow="0">
      <root>
        <mxCell id="0" />
        <mxCell id="1" parent="0" />
        <mxCell id="AR2Jfl_AoY6BUJl8Thbn-5" value="" style="edgeStyle=orthogonalEdgeStyle;curved=0;rounded=1;sketch=0;orthogonalLoop=1;jettySize=auto;html=1;fontColor=#5C5C5C;strokeColor=#006658;fillColor=#21C0A5;fontSize=14;" edge="1" parent="1" source="AR2Jfl_AoY6BUJl8Thbn-1" target="AR2Jfl_AoY6BUJl8Thbn-4">
          <mxGeometry relative="1" as="geometry" />
        </mxCell>
        <mxCell id="AR2Jfl_AoY6BUJl8Thbn-13" value="start()" style="edgeLabel;html=1;align=center;verticalAlign=middle;resizable=0;points=[];fontSize=14;fontColor=#5C5C5C;" vertex="1" connectable="0" parent="AR2Jfl_AoY6BUJl8Thbn-5">
          <mxGeometry x="0.175" y="1" relative="1" as="geometry">
            <mxPoint as="offset" />
          </mxGeometry>
        </mxCell>
        <mxCell id="AR2Jfl_AoY6BUJl8Thbn-1" value="新建" style="rounded=1;whiteSpace=wrap;html=1;sketch=1;fillColor=#d5e8d4;strokeColor=#82b366;fontSize=14;" vertex="1" parent="1">
          <mxGeometry x="192" y="80" width="90" height="40" as="geometry" />
        </mxCell>
        <mxCell id="AR2Jfl_AoY6BUJl8Thbn-7" value="" style="edgeStyle=orthogonalEdgeStyle;curved=0;rounded=1;sketch=0;orthogonalLoop=1;jettySize=auto;html=1;fontColor=#5C5C5C;strokeColor=#006658;fillColor=#21C0A5;fontSize=14;" edge="1" parent="1" source="AR2Jfl_AoY6BUJl8Thbn-4" target="AR2Jfl_AoY6BUJl8Thbn-6">
          <mxGeometry relative="1" as="geometry" />
        </mxCell>
        <mxCell id="AR2Jfl_AoY6BUJl8Thbn-14" value="获得CPU资源" style="edgeLabel;html=1;align=center;verticalAlign=middle;resizable=0;points=[];fontSize=14;fontColor=#5C5C5C;" vertex="1" connectable="0" parent="AR2Jfl_AoY6BUJl8Thbn-7">
          <mxGeometry x="-0.175" relative="1" as="geometry">
            <mxPoint as="offset" />
          </mxGeometry>
        </mxCell>
        <mxCell id="AR2Jfl_AoY6BUJl8Thbn-4" value="就绪/可运行" style="rounded=1;whiteSpace=wrap;html=1;sketch=1;fillColor=#f5f5f5;strokeColor=#666666;fontColor=#333333;fontSize=14;" vertex="1" parent="1">
          <mxGeometry x="192" y="200" width="90" height="40" as="geometry" />
        </mxCell>
        <mxCell id="AR2Jfl_AoY6BUJl8Thbn-9" value="" style="edgeStyle=orthogonalEdgeStyle;curved=0;rounded=1;sketch=0;orthogonalLoop=1;jettySize=auto;html=1;fontColor=#5C5C5C;strokeColor=#006658;fillColor=#21C0A5;fontSize=14;" edge="1" parent="1" source="AR2Jfl_AoY6BUJl8Thbn-6" target="AR2Jfl_AoY6BUJl8Thbn-8">
          <mxGeometry relative="1" as="geometry" />
        </mxCell>
        <mxCell id="AR2Jfl_AoY6BUJl8Thbn-17" value="sleep()/&lt;span style=&quot;caret-color: rgb(51, 51, 51); color: rgb(51, 51, 51); font-family: &amp;quot;Lucida Console&amp;quot;, Consolas, Courier, monospace; font-size: 14.4px; orphans: 4; text-align: left; text-size-adjust: auto; background-color: rgb(243, 244, 244);&quot;&gt;wait()/&lt;/span&gt;&lt;br&gt;block" style="edgeLabel;html=1;align=center;verticalAlign=middle;resizable=0;points=[];fontSize=14;fontColor=#5C5C5C;" vertex="1" connectable="0" parent="AR2Jfl_AoY6BUJl8Thbn-9">
          <mxGeometry x="-0.0303" y="3" relative="1" as="geometry">
            <mxPoint y="1" as="offset" />
          </mxGeometry>
        </mxCell>
        <mxCell id="AR2Jfl_AoY6BUJl8Thbn-12" value="" style="edgeStyle=orthogonalEdgeStyle;curved=0;rounded=1;sketch=0;orthogonalLoop=1;jettySize=auto;html=1;fontColor=#5C5C5C;strokeColor=#006658;fillColor=#21C0A5;fontSize=14;" edge="1" parent="1" source="AR2Jfl_AoY6BUJl8Thbn-6" target="AR2Jfl_AoY6BUJl8Thbn-11">
          <mxGeometry relative="1" as="geometry" />
        </mxCell>
        <mxCell id="AR2Jfl_AoY6BUJl8Thbn-15" value="stop()&lt;br&gt;Error/Exeception" style="edgeLabel;html=1;align=center;verticalAlign=middle;resizable=0;points=[];fontSize=14;fontColor=#5C5C5C;" vertex="1" connectable="0" parent="AR2Jfl_AoY6BUJl8Thbn-12">
          <mxGeometry y="-3" relative="1" as="geometry">
            <mxPoint as="offset" />
          </mxGeometry>
        </mxCell>
        <mxCell id="AR2Jfl_AoY6BUJl8Thbn-6" value="运行中" style="rounded=1;whiteSpace=wrap;html=1;sketch=1;fontSize=14;fillColor=#dae8fc;strokeColor=#6c8ebf;" vertex="1" parent="1">
          <mxGeometry x="192" y="320" width="90" height="40" as="geometry" />
        </mxCell>
        <mxCell id="AR2Jfl_AoY6BUJl8Thbn-10" style="edgeStyle=orthogonalEdgeStyle;curved=0;rounded=1;sketch=0;orthogonalLoop=1;jettySize=auto;html=1;exitX=0.5;exitY=0;exitDx=0;exitDy=0;entryX=1;entryY=0.5;entryDx=0;entryDy=0;fontColor=#5C5C5C;strokeColor=#006658;fillColor=#21C0A5;fontSize=14;" edge="1" parent="1" source="AR2Jfl_AoY6BUJl8Thbn-8" target="AR2Jfl_AoY6BUJl8Thbn-4">
          <mxGeometry relative="1" as="geometry" />
        </mxCell>
        <mxCell id="AR2Jfl_AoY6BUJl8Thbn-16" value="获得同步锁" style="edgeLabel;html=1;align=center;verticalAlign=middle;resizable=0;points=[];fontSize=14;fontColor=#5C5C5C;" vertex="1" connectable="0" parent="AR2Jfl_AoY6BUJl8Thbn-10">
          <mxGeometry x="0.0303" y="-1" relative="1" as="geometry">
            <mxPoint as="offset" />
          </mxGeometry>
        </mxCell>
        <mxCell id="AR2Jfl_AoY6BUJl8Thbn-8" value="休眠/等待" style="rounded=1;whiteSpace=wrap;html=1;sketch=1;fillColor=#f8cecc;strokeColor=#b85450;fontSize=14;" vertex="1" parent="1">
          <mxGeometry x="362" y="260" width="90" height="40" as="geometry" />
        </mxCell>
        <mxCell id="AR2Jfl_AoY6BUJl8Thbn-11" value="终止" style="rounded=1;whiteSpace=wrap;html=1;sketch=1;fillColor=#f5f5f5;strokeColor=#666666;fontSize=14;gradientColor=#b3b3b3;" vertex="1" parent="1">
          <mxGeometry x="192" y="440" width="90" height="40" as="geometry" />
        </mxCell>
        <mxCell id="AR2Jfl_AoY6BUJl8Thbn-26" value="" style="shape=image;verticalLabelPosition=bottom;labelBackgroundColor=default;verticalAlign=top;aspect=fixed;imageAspect=0;image=data:image/png,iVBORw0KGgoAAAANSUhEUgAAAggAAAGHCAYAAADV8qrzAAAAAXNSR0IArs4c6QAAIABJREFUeF7sXQd4lMUWPdtrspveOyX03os0BUEpShURaQIWEERFrFgQLIjSUWkCIlUQUEEpIr2HnkAS0nvZzfb2vjvLhiSkIeGJ8M/3+T1e9i8zZ+afe+bcO3N5DRo0cIArHAIcAhwCHAIcAhwCHAIlEOBxBIEbDxwCHAIcAhwCHAIcAmUR4AgCNyY4BB4SBPhiEXgS8e2tdThg0xsBu/0hQYJrJocAh0B1EOAIQnVQ4q7hEHgAEBB5ekDk43FbSxw2G0xJabCbLQ9AK7kmcAhwCNQUAhxBqCkkuedwCNznCHAE4T7vIK56HAL3GQIcQbjPOoSrDofAvUKAIwj3ClnuuRwCDyYCHEF4MPv1vmyVXOKAj9qMpCwJHPfx3hk/tRneKiusNh4SMqQwW3kMz6hAI6QiO4oMfNzIkt4XGEcFmJGRL4TOyK+yPmUJgq+HDj5qE64nKVBwLYtzMVSJIHcBh8DDhcB9QxBEfGBApAEns8SI1wj+E70wINKIPcliFFmqnpxrukE9gk0oNPNwIqucoLOaflmZ59ULlqFXSzW+2Z4Bm716lj7Y24KvJyTgcrIc7/8QDNvNeDg+XwC73XbXNebz+Wje7hHkZmciIfbSXT1vUr80DO6cjwKdCOO/jkBqrog974fXExDhr8eJWDmmLI24q3fU1M2zR6ch3E+HVxZFIruw8u+mJEFoXT8LX089Dj7PgRHvtUPM3waOINRUp3DP4RB4QBC4JwTh03YavH3UHSVtR3t/Cx4PM0IltuNAmgSbr5deganEDrzSuAgH08Ts93tRGnha0DnQjO8uKWCpRsC2kA88V1ePP1OkuKEtTQJkQuD1Zhr8cEWBBO3/l9BQvV5sWIQMvQAbr8vKXY1/2KYIW65LcDbHadxqsvRqocawLl6YsvQG8oqsVT7aXW7HvAk3sO+cGzYf8oLeyIObSo0nBo+GRCaDSCRG6o3r2LVpNXuWWCxBj35DcfLQXmSlJVf5fLpAKBSh11PPojA/Fwf3bK/WPRVdNLlfGlLzlNh00P22SxpFmDGmZypeXXJ/EASp2IER3XPQtbEGk5eEIbtQWGHbSxKEqcPOo1/nJMxbXw+/Hw5EXmw2RxDuatRwN3MIPHgIVEkQxAIH4ADUEgeMVh6KrDxm+GnFT6sPk40HEmClQgeMNh4zVl93KsD0IyqQ0c838dg1rtIvwgSZ0I71cbLiv4n4DpDRo2Kx82AtYbzpPe5iO+wOHrSW0r+V1x30JrnQAU+JA/lmHnQWHlUfMqEDbf3MeDLCgJnHVTDZAZPV+Ru9g9pntTugtfDZ+6k+CqEd05trseGaElcK+GzVa7bz2PVCvnPl7Gqzqy6El4fYAb2NB72FB1slC2wBz/kcFz58HtXlFqYSgQNKkQNFFieG9Ci6h/UJUFwf17upXt4yO2vzuy2LsD5OilPZ5RMEepdMwoebTACtwQa1Qogigw2FeudqXiLiI8RbDJ3RjhyNBRabAzy6R8wHn/4BoMh4a+WvkBJJciDUR4LMAgvyi6zFxGVI5zx0aVKIKUvDYTQ7723Uoh169B2Crz98jY2fsa/NxKr5s2C1WCBXumHImMnYu3MTUhLjYLPaYLVaGAng8XhwV3vCaNDDoC+C3W6HQCCEUOQ0jK5r6d+kTghFIkZAZAolCvKy2fOp0D0qT29YLSYY9HrYbVbYbM721BRBIFVDJlfCTeWBvOwMmM0m9nyqE4/HZyTJZrFAqyksVlGIHKm9fBjRcTjssJjNcDgcrO0KdxWkUhnycjLZ30uW76bEY91eH+w951bhLFWSILw65AL6dEjGM+91QlaujNvF8ODN7VyLOATuGoEqCcKrTXQIVtiQohOgrtqM7Qly/JokwdNRRtT3MOOjk+7wkdkxu10B3jumRqqOjzU98nApX8wIRKDCilkn3dn9VMojCJ0DTegcYEIdDyvWxymw64ZTQSDS8U4LLfRWHjOUJKkvOK9kBrCiQirFYyFGJGpEiHC3sNX/L4lSvNlcCx+pDf4KG67mi6Ax87HiigJSgQNTm2phsPKY8SFj/MUZJUjx6B5sQG21FalFAvbOs7kS7EiUoGuQGR38jey3Nw6rkWlwspsolQ1Tm2iQqhMyUhNbIMLyy/IK6xqssOO1ZhpGpogA9I0wIVBuxZKLCqZ0DK2tR5JWgECFDWuuKnA8i9pkx/DaRQhU2nAhV4RFF5TFz3+3pZYRDnJ51POwYOF5ZYUEgYz/pnfq4ny8DvXC5LiYoEfdMBkGfhzLDPaSVyIZMfB2FyEh04h3VydDKuZjxpAghPiIUS9UjuYvx8B6kwGdX9wEcakGJGaa0ChCjrmb0/HrqQJWt5kjUlBkEOLzTf7FdY1u1AL9nhmH1QtnIz0lkRlRnVaDJq06oH7T1ggMjUBOZjqMeh3iLp9jakKvp4YjonZ9ZKQmITisFs6eOIiDu7ejToOmaNGuK7z9A3Ht0jn8umUNe0/t+k3YO5IT4iASSyCRSvHjt19BX6RFv2fGwsc/mBnioNBI7N21CTEnDtUYQeALBOjx5BBE1K6H7IxU+AYEY+uapchMS0afQSNZO5IS4uAXGMLa/+um1VB7+TJilJ2RArFYCg9vX6z45hNGXgaPngTqGJ1Gw/6+btlc6LSFxXiO7JEDUhOW7vKpkiBQ/04bfg4926ZhxAcdkJal4AjCXU+l3AM4BB48BKokCFOa6JBl4GNtrAy1VDY8H63DO8fcMTDKiHqeZnx0wkkQ5hBBOK5GShEfy7vlY+w+D6Y0fN2pEFvjZdif6vSVl0cQXLDOaafBX2kS7LxJEFr6WtEj2IDZp90g5jswp30h5p1zw41KJP2P22hxOV+AzddlcBMBSrEDCRqnAW/vb8bTUXq8dVQN883Fr7/cjmY+RCScpGRuhwK8/Jea/ZtW5O+30mBdrAKX8m93I3zcRoP5McpigjColgG1VTbMOqVkKgYZ7LeO3i5TlxxGn7XTYOEFBZKLBPiuawFWXJHjcLqYKRfHsyQsxqG5jwW9w4z4+OSt1eFzdQ1wE9sYCaAiEQCftS/A5INqRhKWdSmogiBIsOndOpi0MAHLpkRi7Nx4LJ0ciaGfxjLFKDpEhj1nCuGrEmH1G7Uw4rNrSMp2roBb11ViyaRItJ50vhRBeHtVEn45mo93hxGJkGDcN/Hs+jmjE5CU44aF272Lmy6RSDF03FT4+Acy9wKpBWQ8qUhlcjw78XXs/nk9kuKvFt9DLgSbzYo929Yzg9tn0PNY8c3Hxb/3Gfw87FZrKYLQ/cnB+GHhbPAFQoyd8j5+XreMxSi88s5nWPjpW0yBeHH6p/j7j19qlCCQEtC4dUckxl1GYX4OuvUZBIOuCH/t3sYIAikIOzasQFhUNPo/+wJrR516TREcUQs/r10G/6BQDBz1ClZ8/TFkcjlGTXoXG1fOZ1h5+wWiIC8XBp22uO0DO2kQ6FmEb7YFVkoQXnkhDf07x0PtBpyNVeOVuR1gNjk4gvDgze1cizgE7hqBahGEMzkiZuC9pXa83rwIbx6unCCQi2HK32pGEN5qXoRT2ULsTnbGHNwJQegRbEakyoplF52rcJL9SeavLCyusZcVY+rrYLQCmQYBNl6TMeNbEUEgcjO8jh5qiR0OBw911GYM3+P1jwgCxSvQgnpt7K36lnSXlNdbg2vpESB3MGWCDPz4A54oMPHxXksNfrqmwMU8AcLdbHihoR4zjlRMELylDkxuosG7x1TsNZ+31zA3TkUuhhBvJ0F4eUECvpsaiTFfxDOiQASB3AqvDwyEl9Ip20cESjHiszgkZFZMEGIWNcakJYnYH6PBpL7+aFVHiRFfXGP3zx6dgJQcNywoQRBYfwpFCAgJZwpAnYbNsXzehzAZDZUShJzMNKYmkNoTGlkHN67fIhDlEYTOPfthzeLP2fXjX/8IOzetZirDxOmzsHj2DFa/4eOn4fzpIzVKEKhtbbv2YgSAPDIqD29ciTmFP3dsYATBoNcxUiSWSBEcHoXkhGto1bE7pHIF9u7YyNSOcdM+YgTBbDSg51PPIiyqLrSF+UhJJEK1sdRwGtSpEP6eeszfFlApQejYxYImtXPxWJtU6A18vPxlBxRqhBxBuOuplHsAh8CDh0C1CMLFPBF2J4vhJ7djSpMiTD/ijv6RRjTzNuOD4+7wlTtdDG8fVSNNx8eCzgWYdNBJEN5vpcXhDBH2lCAICpEd62JvxSC4YC2rIHQJsqC+pxmLziuY7F1LbUOyls/8/hUVhZBiCXisrsPr6uAjtWPqIafRdCkIM46qYbqpIDwVaWCugblnlcy4f9XRSW6o3KmC8GwdPcQCMLcC+fgj3Gy4XsWOjEZeVsxoUYif4+Wo52HFByfcGBF6p6UG2+IVOJMjQC2VFaOi9Xj72C01oqyC4CFxsKDJGUdVDKuvOhbih6vyf0QQxjzmy+ISPvkpFUIBD/vmNKiSIJxb1BiTKyAIrw/MhERkxSfrg4rjEgJDIiAQCphhpFiBka+8hf27tiAh7lIxQSCloCQBIAXBRRDK6/87IQgvzZiN5V9/DJvVgtGT38PhfbtqlCD4BYbimfFT8cOiOcxV8kivAYwQuQiCXl+EfTs3l2pGi3ZdEBJZhykL5HoYMGIiIwgUa0EuByIa9HvP/s/g95/XIvbC2eL7Jz6RAY1egrV7bz8p0XVRyRiElwdeQP9HkjkXw4M3p3Mt4hCoMQSqRRDC3C1Yc0WJToFGZnznn1cg2sPKDNKKy24IVVrQMdDM5G3aHfBTz1wmy9NKeFyDIsw964bTN4Pl2vlbMChKh18SZbA6gGMZEjTyNjNJflhtA67kC0GKBcUJ0IRIEv+PsXJ4Su3oG6FnJCRDX/G2wtea6lBoBo5lStAj2IgAhR1vHHYaVjLGFCOw4Zoc2UY+zuWI0DvMhFa+ZhaPUFtlxfPRRRi626kgkKF+q7kGhWY+2w2QoBEyNYIkfyI5g6MM2J0sYe08nCFBxwAzRtUrwncX3eCvsKKNvxmv3yQnFfUYtXvxI/lMFfn0lApXCwTOoL0GOoS5WbEjUY5uQUYWi7AmVs7cPAEKKzoFULCngxEv+u1GkRCLOhdg83U5BHwHRkUX4fMz7v+IIIzo5sOCF1fuyUKPZmr07+DJCIJGb0PraDfUCZRiVE8fvL86BTabHTtOFKAygtCuXhGmDEjHhPkRyNM6VYmmrTuhc6/+2L9rM4sPaN+tN5bP+wi6Ig3bxfDM+NdYMF781YvISL3BjGxFBCEoLAoenj5o2rYz7DYbM/RZGSlQeXihIgWBYhNIxifFQu3pU+MxCOQCGT5hGnZvXQedTsuM+rXL5yslCF6+/hg2dgq0mgJQDIPCTcUIArlc+g4dg4tnjjFMHu07FLu3/4jrl88zLH3VFix+JRGz1gfhVFzFMS8lCcJrw86jV7tUDHu3E7LzpJyCUGNTKvcgDoEHB4FqEYQ8Ex+R7hYW3f/9ZQXSbgYcPhZiwiNBRhZESEF0rtiAqU20MNj4CHWz4mKemEndLqmdjNqQWkZEuZtZ0NVnp93xXLQO/vLSe+E3XVcgJkeIR2++g1b3OxLkLFCvsuIrc2B0vSJ4SOzIN/Gx8oqimFCQ4R1S24B6Hmb223eXlCy2YVQ9HYujuF4oglhgL/br03toVU/nM9DOi70pMuxLFePFhjpmpF2FlJJZp2hbJw9PRxrR2NvEYhzWxSkQW1DxtjPX/YOjjAhXWfDZ6VsuBHfavlZXjyCFFSlFQkYONGYengw3orWfU+p3lQOpEvyRIkXXIBMeCzUiQyeAxcHDH8mSCt9PsQUznwvBvC3peHNIIGavT8PrgwPw4ZoUGC12vPdMCHzUQvwVo0W9EClmbUiDu1yAaU8HQCS8peA4bMCoedexfEoUvtmWgbPxOjzdwRPRwTKmQLjKJ88ns/sW/eKLxEwxRGIxOvZ4kknwFK1/ZN9viL14pvj6qOiGaNXxUYjEIpw99jfOnzqM1p0eRUF+DmIv3LqObiByQdeXLDEnDiM3Kx1NWnfE7m3rGdnsO3Qsjuz/jfnx6f2hUXVZXECPvsNw9ugBxJy8FaRotknw20k3pGSLYLmpWIX6WlA/1IReLbOr3OZIBr5dl17MfUK7F9KTb6AgLwenj+xDmy49YTYYcObYX7cNZdrB4OsfzNo5mGIQvvmYBVW26fwY6jZqzohDUnws/vxlA7s33M+MSf3oPAqw8yX0porJc0mCMGHAJTz3eDx2HPLFkk0NkHYhj9vm+ODM61xLOARqBIFqEQRa/f+dLmar3LLn4pCtoF2J5Z2XQyvwqnzw1WkFbe0r790V3Uvmy/Xu6h3jc+v66tSnqmsIEyI01X13Zc+jtle2VbLsvXeKVUXvFvB5zKCbLBSbUVWLq/7dTWZDnzaF8Ha3YdEOn+LEgQKha3ti1ecpVP2W6l9BsQ/RDZtDIpOjUfO2+Hndt4i7dI49YET3XHRrWoQ8rQizf/IrPoDogxFZCPY24loa/b1iX3/JWlD7HHY7C4asqpDxJ2WFlA9yMSjc3Fn8BKkcVAQCAXh8fvFWTfrbqwOykZIjxG8nVCiq4jTFkgTB090AIglNa2fijW/a48oxLUcQquog7ncOgYcMgSoJwqMhZqYMxBb8fw8Desj6gWvu/xkBCnAkdYEMd0bKDZw9fhA26/+XpNxG7gRCFtjo6e3LzjkgV0lackKNIcPlYqgxKLkHcQg8FAhUSRAeChS4RnIIPAQIcAThIehkrokcAjWIAEcQahBM7lEcAvczAhxBuJ97h6sbh8D9h0C5BEHgK4Ity3kkLVc4BDgEHhAE+HzwaP9t2ULxMpQwqwZiTR4QpLhmcAhwCAAonyD4i2HLKH3WO4cWhwCHAIcAhwCHAIfAw4MARxAenr7mWsohwCHAIcAhwCFQbQQ4glBtqLgLOQQ4BDgEOAQ4BB4eBDiC8PD0NdfSO0CAXPXRIUYIBHycT3AmGnMVnkoIR2MFcLCQ5d/mRcvhuKK/swMr7qAu1bnULpKhoFZXlnPC49LO6tzCXcMhwCHAIVApAv86QZDJlWjWphM7brdkuXD6KPh8Pstcdznm5P+tGylhzom//6zyfVQviuqiI4BdhfbWK5QqXI45UeX9NXGBQumGZm274NSRfexEwP9Sadi8Lbx8bqV/pron37iGrNRkNGrRjp0yaDTo/y9NatyyA7LSU9iRzlRkYjte7peFOoF6fLE5CFdvZvqk3xzN3WBv6QbB6SLgpAaUdMPRRQ17tByCbTlAaulTLv8vDQCQ+PR88GxWeFzaAffYqsfv/6te3Hs4BDgE/rsI/OsEgU6L69CtD5TuKtRp2IydvU9pbI8e2A1v3wBEN26Jn9cuZQg7yjnSj0hE2VPqaBVF6XTtFJldptD19Jyyz6IT6ujEuwlvfIIln71dZY/2e2YsO8xm16bVxdd26N4H/sHh2LJ60T+oL6/c0/bKax89nP7u5RuAUZPewXdffYC87Mwq63ynF7ji3csGt9Pf6eji8k7PrO47WnfqwU4LDImsiyJNPvJzshB78Rw7jnjouFexav4saAryysWE+tbZf6VrVmHf8pzHD9ORziULPYeeMeyFqSzPwbnjf7Of29cvwusD0/Dc57WhNZSI+vcRwTouEMLN2cDVMuSlrTvs0QrwV94ijNXFwnUdJXOiMVudUxfLPvvShN8Qvv1NyNOcp0FyhUOAQ4BD4G4R+NcJgqsB7h5eGDf1A6z/bh47K59KvcYt0bJjN+RlZ0EskbBJPPbiWUgkUrTv3gdmk5GlC87OSMOhP3bAarVAKBTikV5PwdPHD+nJCTj0505mTGjybd6+C0IiasNoMODUoT+RkZoEgUCIFh26IiS8NnKy0lG/aWssnv1WhbiqPbzQ6bG+LKue3WZH6o1ryM3OxNH9v6Fd18cRVisamvw8CEUipkRQWyilb7feT7Mz+T29/ZCeksgIEGUSJBJEp+dJpDLcuH4Fpw7tZ4aM1IE2XZyn6pHRPLLvV+i0GiYht+36OIJCI6EtyGMJir798v1KCQK1nVn0m8Vus1ZqhGqrbGjoZYGfzAaJwIF9qVLE5DqPRI50t6F3mIH9/a80KU5kidDE2wIvqR1X84V4PMyIH+Pk6B5kwtFMMbIMFecGoOf1f3Y8Eq5exLkTTuNMWRCfnTgNl86egFzphuT4OBw/uIf9RsqCTK5AYGgkbFYbju7/FdmZaYwste78KILDarHESIf/3InC/Fx2T616jUFqBSX+uHzuOK7ezOMQUbs+mrXtDL2uCD7+QSwPg4sgfDwyFUevKLDjmDOrp6s4mirhaObmJAFlWZOMD9voQAh/zIAj75+dyEjqlX9wGBs3NDbv5Izry6M2I+SPWVAmn7rbOYG7n0OAQ4BDgCFw3xOEJ4aMwt6dm9hqObpRC6xaMAsWixkjX3oLmsI8nDq8D4/07I8Th/bi9JH9GDZ2Mux2B04d3o+Ojz6BlIQ4/PHLBpBBeLTfUJw6tBfhtevBTe2JdUu/REBwOAaPfgV//7GDqRgt2nfD7DdfqHB4KJTuzOA0aNYGNpsVV2JOQavJx+Vzp9C+2+Po+OiToDTFpCT4BgRh5TefQKZQYsoH85gRSo6PRdfeA3Hg9604c/QvjHz5LaQmxSMrPRk9+w/Hzo0rcfncSXR7YhDCIuvg5OF97Hx+OnL3j+0/oWGLdujeZxD2/7qZtaNBs7ZM8ahIQSAjO3j0JKg9vYvbRFkFd/y0vMI2dgywYnxDDX64okCEuw0NPU14+5gaIr4Dn7YrwJ8pMpZAangdHaYfUaGJlwW9Qk34PVnCEmW9d1zF0oJ/cUaJ1JuJvSp6WXkEYfSr77K+JNm/W5+n8fOaZbh+9QLL5li3YTM2HqjdVqsZm1YuRIv2XRnulMAoNLIuVB6e+PHbr+Cm8sBzL00vTuNMSZ2+nzeTuYVeeP0jJMZdgqYgH10efwq/bl5dTBCWT03E1z/74Fy8ojRB6KSGXcaHYHfe7c0R8WAb4Q/hXwVwXHPmTqi48Fiqa1ehDJREYmmcUN9G1m3IElcR6SSiU55y5vx6+bDKveDgC3B9yDKE7HoXCk5B4KZ2DgEOgRpC4L4nCLRq3LBiPotRmPzuF1iz5AtGDIgg7N72I65fOQ/yIZP/f8/29Xj1/a/w9x+/ICXxGiMUNNkunjODrUZdPm/KmNex+xNYvXA2wmtFo1XnR5khp1X2S2/NxsJZb1YJb0UuhrBa9bBu6RdspUuGbuGs6Wzif/HNWVi9aA6yM1LRe+BzbOW6/9ctmPzel9ixYSWsFjPLSpiWnIgDv22FytObpSGmA2xoVR3duAV+WDQHvQeOZGrKtnXfsr+PfHk6vp1bsYuBVtdkKCkRkKtYTCYUaQsrJQgtfY2Yd46yXQKLu+SxNNvuYjumN9fii7OUuRIYFKVnZCHHCLzTUoNdN2TwkQGnsoQYEV2ENw+rWQbKykp5BOGZF6Zi1YJPUZCXjREvvslcD0f27WIEgdwOh/fuAsWuPDViAtYu/QJ9Bj0PiVTKyCIRuMf6D8O8mVNZ2mhv/yBQwiSpVIYnh45huNGYYf38KSlFDjw/6R2cObq/mCCsnJaIuZt9EJNQhiB0VsMh4oH/Z375BOFZf4j+LoQ9rvLYCXe1J54cOrr4Gbu3/ojsTFfmSx68fP3QpFVHlr3xh4VzKuwrh1iJa0O/g13qDp7VhMj1YyHUO5UTrnAIcAhwCNwtAvc9QaAYhK1rlrB2Tvt4AdYu+QKFBbmMINBqm1LfugoZ5UnvfclWiK4AN522ED+vXYambTqhfdfe0BTmMzcEGe3VC2YjvE59NGnVgakJVGoiBmHzqoWQyuQY/ep7WPSpkyBMeONjRkhyszJK9dnrsxYhIyWRqR5ULp09jnPHD+Lxp0cwN0aRpgBisZSpFWQ0ybDQinLHTyuYNF5VDIJIJGaGhlwYrkL+/vjYi5UShEZeJiy+4DSQy7s5CYJKYseMFhrEF95KYb0lQYFkLR9LuuThdLaEkYRWvibU9zTjjcPqKuMUyiMIFIOwcv4sFOblYMTENxAfd4m5kIgg5GSm4eShvSXqzmOYhETUQmG+c2VPpGrdsrkICovEUyMmorAgj8WXkFtm0+pFuHbpHCa+OYsRRyrDx0/DhTNHiwnCt1NuYME279sVhA4qOJQC8H+vREHYXwBHfOUKAvVJRJ36xW24ER8Lk0HP3EcKNxVLXd32kZ7MdUVKT1XBmg6hBFdGb0HornegSCmdCvtuJwjufg4BDoGHF4EHiiAIRWJMnTkPv6xfznY+kFtCpfZkxnDcax8wNwLJ9xS30H/4C4wghEbVZTEFyz5/l03QRDC+njm1yhHRb9hYWG027NywovhaV5DinRCEl9+eg2VfvM/iKUgF0RVpWWzBuNdm4ocln0OTn4vaDZqifdfHGUF4rP8zcFd7YPPqxczgDZ8wrdIYBFJeGrfqwBQNVyGScvlcxTstyMVQHkFQiux4q4UW4/d7wGIH6qityDIIUGjmYUW3PCRpxZgXI8eMFkVI1Aiw4HzpFXh5oN49QQAjDpQKeefGVUxpCouKxrXL55hSQ0Gwm1ctglzhhrGvfcDUGiIIL7/9GVOKKNZxwhsf4cj+34oJwnvDUxk52HakTAxCEyXQ2h28b9Nub4qcD9uYQAhXpsOhvT04tsoBBTCViNwdFKNy/K8/kJ2ewuJqqlMuj96CkD2fcDEI1QGLu4ZDgEOgWgjc1wSBJsx6jVtVW0GgFpOxr12vCQv4i6jTAFdiTjJi0KPvEGZQ42MvISS8FlSeXowgkAEZMuZVpCXFs8BCIgyfz3ixSvBIkejY40kWhEhugeN/7WExCBR7UC5BeP1jrF50u4JA8jjFB+TlZKJuw+bYsWEFEmIv4ennJjJpPD05ERF1G8Bms2H1gk9ZkGW/4eNYYB+5SsgYVhaDUGVDyrmgQ4AVjctREDQWHqY20cJq5yPHyEOQaRPmAAAgAElEQVQ9DytmnnBnBOGdllrYHMD8GCXmdijA5ng5fk8qvXW1egQhBEPHTalQQaCgRIojKVmiohuh96CRzPATJkadDlvXLkXD5u3wSK9+LODRTaVG/SatixWEoWMmQyyRMTWKAhkpvsMVKNm6rh6vD0zFa9+GIjlLcise0UsE69hACHflAudLbCsV8uBor4IjRAL+2n++m4TqYTTokJLoDNK9k3LphV0IYwrC6Tu5jbuWQ4BDgEOgQgTuG4JAK0DaeUAR+7R9kArJ4iTVuyLSSVLPz80GReF7ePkyd4HFXHrfOakA5Jt3GV2SpGnbGMm6tK1OKlewOAAiA/k52WzHgMrDi6kNJGk74LjNDVAeeny+AB5ePsyI0+qf6k07D0jFoPrStknagUCrdYoD8PTxR35uFmzW0hHu5Cf3Cwplbc3NzmB1oPrKFUr4BASDBx77O+1EoPupUCwF1Tcvh54tYL+Xfe7djHm50AGZ0IFco3MHQrDShgy9AFY7QL+FKG0sNiFVz0fezWtoFwNFG+SZ+PCX21Bg4kNvrTz+gJ5N/njqQ4Nex95F/UKxF+QGIbcKYWw2maAr0jAjb7VYYdCXPvOB+pzu8fYLYLEd1L/UJ66toDRWXNiRImMyGRm+/kGhzmfrtOz9xpt1EAkdmNAnE92bFmL2T6E4euWme4aaEy6Dtb83RHEGOHbkAEIe7E/5wBEogYDIQfa/k8PkxoCvYFaFwOv8VnieWns33c/dyyHAIcAhwBC4bwgC1x8cAvcbAq3r6lBkEOFSUumTFOEtAq+2HI4jzpMUES0H75oBDlPpcxb+n+2xSd2hie4FWI3wuLD9//lq7l0cAhwCDygCHEF4QDuWaxaHAIcAhwCHAIfA3SDAEYS7QY+7l0OAQ4BDgEOAQ+ABRYAjCA9ox3LN4hDgEOAQ4BDgELgbBP41gmDzCIcgP/Fu6s7dyyHAIcAhwCHAIcAhcI8Q4AjCPQKWeyyHAIcAhwCHAIfAfxkBjiD8l3uPqzuHAIcAhwCHAIfAPUKAIwj3CFjusfcYAf7NMxbuJuf0Pa4i93gOgX8NAR4PdoEEfCudE+OAQyACz1a9Uzn/tTrX1IspHTyPD57dyhKZUVKzcttOW5TpdDeuVIjAQ0cQ6FAdKhVmyOMGS5UI0OFGdFx17IUz/w6OvmLYu6jBv6wvfaJhlTXnLuAQeDgQyGn9PDS1uyFiwwR2GFz6ozMgyU2A5+kfwbcaH1gQzJ5hyGw/AW5JJ6CO2YKi8LbIbTEc3keXQ5FaOk+JY5gfeLF64LT29vTtDyxCd9awh4Yg0ImFlO45ql5jdhIjpWSOvXj2Hxu4+k1bsQRAl2NO3Rni9/hquViOMO/auHwP0/62eeQxdOzxBL7/6iOWcbGq4h8UhqCwKJw5dgCU2pjKuKkfQCyVshMgl3z2TlWPuPW7mA/buAAILuqAvwsBqwN8AQ+NnozE9UNpCG7qg7SYHGgynRkV+QI+6nQPhtVoQ/yhNNjvkxVD/Z5huPJHEqIfDcXl3Ulw1LASQsmoqO10gqjVYmEnhFI20Nr1m7IMpxtXzK8+5ndxJWVRHT35Xfy8ZilSbtz5EdJ38eoauzUgOIwlTqPj1F2l+xODWO4MOuGUTj612224cu4UTh7ey/KjUP6PzLTkGqtDZQ/q2f8ZWG1Wlu6cVstZnSdBE94eodunQZyfxG41+tXHjSfnwCNmM3yPr7xn9WrapjPLlqotvJXxdOL0Wexvu3/+ES06dENoRG1sXbO0xutAKkni0O8hyk1A4L4vwDdp4eAJkN/kaWR0mICIjRMgy7qV3I8XIoFlqB8EfxWAd0xT4/V5EB740BCERi3boVHz9ti7cxM7crltl574YdFn0Ou0lfYjJf+hVMI6raYUmSgv3bPrQZSRz2wyFB8ZTX8n5UIskcJsNrHUw66jhasaRCIBneLngKWa8mB0QCNE+tTFrphNVT26+HeaxOl467LHVgsEQkgkUujLHG1M9XdTe7LMiqWVGB47bpqyD9Ixya7SuGV7NG3dCeu+ncuMFZXA0AjweXyWV4JSYpctdIQ0JZii/in5DkdvLzhkfPC3ZBezfh6fh5bD6jKDG9bKF8mns1GY5jy6WeouRnSPUFjNNlzZkwSrqXqJlAQiPiMT1TbcPCcZsdN51NUojfpG4uKuRDR6MgIxP19nSaOqKtRPIpEEhfk5VV3KCBlpZf2ffQG/bVnLjpFOT7mBVh27o27j5vhx2VcsBbjreGnXA1lGSaU7SxpGK09XoaPQZQo3ll20ZHFdT+O5ZJ/T35XuajbuJ7z5CdZ/Nw9J169WWW9K400Eno7Drm6he6xWGr+lj7kWisUQCoS3ZcOkY7bZeLeUvp7GHOVmoTaWHHNEhsNr18OaxZ8XV8nbL5B9x4/2H8ZyfaQmXoNWU8Da/Oz4aVj82dvsGSUNZfH8oHRnOTcov4qr0LHg1I6y451+d/bH7QaM6kpHhT87YRriLsWwNPdG3zqIH74GYRvG37ZiNvjXR3LfzxC15jkI9OVkJC0DOI0PSnJGGXHLKq6UoZbIvslYOnMppWrft2sLSzjmKq99NJ/dT8nRmrd7hOXIcWXPpWtoXNOc4Vo80N9o3BC5tVgsEInF7Oh0V6HFHi0uys7Juc2HoiiiI8K2Tgbst7B18IXI6PoazB4hCN06pbS7IVQKe28v8JelAiU+XRKaxXwHTLaqj4uv7jj9L1730BCE1p0fRWhkXWxb9y2sFjObQDNSbuCRXv2ZsaMVDpWhY1/FpXMnEHPiENp1fRytOvVgSgGd8U+rLsoNQdfQ/1IWH6NRj7SkBJZQiv721HMvQu3pRSOcJQCi7JGUKKpWdCP2oScnxiE0Kho7N6ysNKOiWCjBI3V7IcK7FgR8AY5eP4AzSccgE8nwTNvxWHdsGQxmPYa0Ho347FicSjyCsZ1fhVyshM1uhdlmRpYmDVtPV3wuP2WMpI+S8lOQAfhl/fdIiLsMN5UHRrz4Bpt8XHWm9NJEFoaMmcx+J+M9e/oEtnKiMn3OMpZ9kCYOUgU2rlzACMTLMz6DRCZjH7tBVwSttoBNDq4UxrS6WDzbmXaZCpG3516cznIn0MRBKY8JdzZB8HmwvhoMwR/54MWUzsfQYkhtXP0zBUFNvZF+IReaDKeCoApUwC/ag/VV8tlsGPJL5+4o+9FGdQiExE0EoVgAvpCHGycykZ9chLCWfgAfuHE8EzK1BI2eiMDZLddgtzpQ//Ew2Cx2SBQi9t74I+lVEoV6PcNw9Y8k0P8SUahOadP5MUas7mT1xdKML5oDfZGTCFMa6Rbtu8JiMUGudMeJg3/i0J872G9TPpjH8puQATWZDNi0ciHysjMRUbs+S6lNK2Xqhw3Lv2G5Rzy8/TBg+AtQuquYAdi97UdcPX+araopS2dgSDhLtR0YEoG1S7+olCDQeOr11AgEh0cx4nJozy84eXgfG2uDR7+C77/6kNVx/LSPcPCPX9h7Bo96BWKpDHKlkqVE3/zDYqQkxIFwatmhG6xWKxtDZ47sw4Hft7E8KT0HPIPwqGgIxRIc3LMdpw/vg29AMFv1U2I0+jfl8qA20nzxxJBRzHBTVk0i0NrCAqxa+GmxMSOlZsuaJchMda7UKbX6E4NHISczFV4+ASyr7K+bfwCR7Skzv0Zedjr7pmjFTySNFLjgsCiWbIwWEESO1n9P12WyfCuDRr3Mvh1tQT5kSjcsnv0WM5i9BjzLUobTvER5Z375aTnDpKDe40jrPAn1lz5+25Cyi+RIHLwEHsdXwiOudMKzshdTHQkTWiAVaQvh7q7G919/BIvJhMf6DwMlSCMjTqnXj+z7FfWbtka3PgMZiTQbaYFgYwrtb1vW4NX358LucDACQ3OIiyBQvQc8O4H1MeVg2bPtR5w/dQSP9h2K0Kg6cFd5IiHuEiLrNsDGFQuQnBDHVBtSb3g8Puun7T9+V7zYin1uPTwv/Azv0+tva7suoCFS+3yCiHWjICpDjmwvBEKwMh0w32Lpg2sZMSBSh3H7PFFkeXhJwkNDEDy9/fDM+NegKchjhvns8YNsFRFWKxqDnn8Z3301k7FhkkOXfv4OS5I09cOv8dvWtUiMu8xkWRqQxIxp4PboO5ix2wO/bmWTB00c7br0ZBPElh+WsEH/5JBRTD5/tN8wlqKZriE1glaLNquFTRwVlTaRnVHLNxo7YzbBU+GDR+r2xIq/v0GYVxQ61emBDSdWwGa3YXyX17H38k5czbgAlcwDA1o8i5jkk7iedYWpDjpTxQrJC9NmIj0lCft3bUazdl3QpGV7LJj1JlsFvfDaTKxePIet+Ie/8Bo2rVqIrPRU1q7giFp4cvAofDbjxWKCMOOzb3Fg9zacP3EIPfoNZaSKDBklW4pu1AL1mrRiBMRsNrM+cK1ObycIoXjupTex7cfvkJedgYHPv8wmoHPH/wZPzIdlUjAE27LBiyu9cvEIUUKbaWDG26gxw2J0KhjBzXxg0VvAFwogEPGQcrby1XdUx0CI5UJc/zsNbr5yBDXxRsy2eIS18ifOh8TjGewdjftG4uzma4wYNO4fiUu/3WDvq/doKGL3p0CXW/kK2N1PDm2WHm5+8mIyU9FYIMMhk8tB8q2vfzB2b1vHxi4Zh6pKeQSBso6uXPApWx0OeHY85n/8OnvM658sxK9b1jBDTgoZEeg923/Ccy9NZ32QkXoDnR/rz8gDkd9GLdqxxGFnjh1EcFgk2vfog2+/eJ+R4W59BmHLmsXMeFEfrls2t1KCQKm5aWz9vnUtM8w9nhyCue9PQr3GLdGoZXtmsAmHV9//ChtWfMOMORmw+KsXcOrwfrTr0osZoT+2r8fTI19kRnXXptWIim7IiMfc9yaBMrBSwrcDv21lGTyJSKycPwu+ASEYOPJFrFv2JZsDiBxTCnYiz6QG9h02BqePHkBKwjWmktD4pULEgb4hImCUXIxKq4490LpTD/z47VcQiEQY/PzLWPjpdJZIbMyr77NsrZQBdsCICbh87hSOHfgNoya9jb/2/MJIBhGCK+dO4vC+X9Fn8POM2JJhbdyqIzOUq+bPYjJ9y3ZdsXn1IpCS0feZsVj5zSfISk9BXqP+TFKPWjPitqHhEIiRNHAh3C/+UmW+jp4DhrMEcvt2bUKzNp3RpE1nfP/VTJaA7vGnRzCDTaRnyNjJWL1wDiNPNJ6ISB7d/7szYZrZxNSHye99yRQO34Ag5mogdw0tEqgP/IPDGCnwCwhBhx59sOLrj/FYv2Gw2e0Qi52LCsrQqinIx1+//4yJb36CnZtWs8UHZby9djkGB/f8wtp6afzvCDi0sNy2WVVBiB+yzEkQipx95Sq25/wh3J4DR8Et1bOumjLaWrAtQQZz9UTBqj7F/+TvDw1BoN6hwd28fVfUrt8EeVmZbAIjWXHMq+/h1OF9kCoUUHt4M5WBCsllxIjjYy8gOT6OEQUiA1TKczEQEQgMDkdSwlX28TRq0R5fffAqIwj0sVEmQalUDjvsEEsk2LVxdbmDhknvzYbhetZVxKSchI+bP3o3HohVhxagZXgHhHpF4ufTa6GUuOH5jpOw4cRyZBSmMqXh5e5v4+cz63Aj51qVA5Imt3MnDuHYgd2o06Ap+g9/AV9/+BqbiEkl+fbL99kz2nbphbiLZ9hqnkpYVF2WkvnzGS/dIghzlmHjqoWIu3SOqTIhEXWwZvFn7PryXAyuypVHEIaOe5VNhLRKpcmaUnQf+mNHpQShosY26B2O1HM5EMmE8K/vifO/xFcakEQEwWKwIulUFrsnoL4n+3dlBKFu9xBc/NWpAtR/PBzJp7KY8a+pQviRmkUGiVZaJFvTyop8ulWV8ggCrcLIMNKqfezUD7DgkzeYAkArPTLkZGiI0JEiduboAUyc/iliL5xmfU1ZSUmB27buO5aJs26DppC7uUOhVKF2gyb4euZUNGvbGXUbtcDG5fPZO16aMRs/VuJioG9jxItvMhJy8cwx9u3Q30huJ6JAK2Yi02TcyZgu//ojtmp8/pW3WTvICBGBp/pSendSxs4c/QvHD+5hikDrTo+ylSy5OrLSk5nxUnn6sN9Wzv8EjZq3RVBYLbYapSysL03/FN/O/aBYPh//xsdYteDT29wxZOj6DBqJ1QtnFys0ZFiJQFBbqO3UrmVfvMdI05NDx2Dp5+8y90Lrzo8hOyOFkbxh46biwqkjTNWp16Q1Th/Zx4wszUubVy9mKkPzdl2YIrNz4yoMGDER+iINaxOlsCcj/c2H09jclNdoAPKbPHXXBGH4hNcRe/EMThz8A+E3FSQiCKS+dHz0ScRdOsuGHqVUp/a7Mu6W52IggkBG/dG+Q5gKQOOGCAIpT7R4IBLGvp0mrbB4zgxGEAoL8xjhoDmTVEWr2Yxjf+3GuGkf4vypw0zJiqzTEKlJ8QwHKkQQAg8thLqcZGV3ShCq+q4elt8fGoLg7RvApDKStmlVwyaXBbNQkJvN3Ag0OImN7/55HWO0VGi1T5MIrWhatO/GBuixA79XShBEQhFOH93PrqFJlwKV7pQgCPhC5jr449IO5iao5VsP9QObYPvZ9ejTeCBMVhP+uPQL/FXBGNpmDJbt/wJ6sw4eci+M7PgS1hxegpwyLLm8AV0ZQaBJ57svPyj3OyiPILxFBGHlAsboO/fsj9DIuyMINPFT6usRE99AfJyTIDAXw+RgCHbngUdBilUUUgKaDIiCSWsBOeSlbmKc23bd+f8rKEQQzAYrM/IlCyMIfCDxWAbkHhIWFOlSEEoRhF7hSD5dswSBSAH5XVu06wq/4FDs2riKyecl/bIVtac8gkAxCKvmf8pcS0QQFpYgCGuXfskMaMlCBpJcTKR6UTHo9cxPT+qDwaDD6cP72SqPXGnzP5pWiiDQO4ggVBaDQIaCVApXYB/J2lRoVfr8pBlst8zhvb+idoOm6DdsDItZIRI7fPw0LJr9Vqm6kl9+7JQP8MtP3yP+6sXi34g8TH5/LsPO1T5SAClV+mP9hqIwP4992z5+gcw9QsTBFdPw4vRPb3sPPbhF+y5sZb9m0WfF8Qxk7A/v3YUb168w0t20bWds+P4bkIuzWdtHsOzzd0v58xs0b4M2nXvi9y1rimM4iGAQcSj53ieHjGZ1JYNNSigRoJiTh5jU37XPQHx3k8yTiyGj/XhEf9//tiFhF0lxY9BiqE+shkfcvkq/niGjJyE58RprS52GzUDEx0UQaOFz4PetzjkOQE5GWnHdKyIIpCbSc8Ii67IxQwThyWFj2Bg+d+xv9iRyN1RFEEZOehs7flpeTMgIJ5eiE/fcjywI0/vs7fFXRp86SOr3efkuhtEBEKzJKOViqGpueVh+f2gIwuNPjWCR3LSqUHv6gCRNYr40uGgCfumtOcxXvmjWdEYkpDIFOj/WlzHlgvxc0P35OZlMgqVCMpu72gt7d25kKw16TptHeqJBs9b4ec0y5ouv06AZk+iqIgjkLw0pEdlLBGFo69E4feMosrTpLBYhNuMiLqSeZkoCnyfA33G70Si4JSMFRByoBKpDMLj1aPx8eg00hkIU6PNhdzhjBEiebN3pMfy25Qe2MqdCBIHcBvt/3YLmbR9hq0aacMnFUB5BoJWcSu2FwNBI9B70HJbP+4itKnMy01EZQSDyRasOMjIU8EiG3xX0RKvTnRtWsAmRcKRVAykI5RIEmkYG+QA6O3i/5la5Ncmntho+kSoWvEgTWeMnI5F6Pgc51wvvmCB4R6ngE6VCwpEMFtdAroszm66Bz+fhXhMEV2VJSfD2D8LeHRurPT/VBEF4duIbOH1kP4u1qV2/MQtgpNXlMy+8hktnj+PK+dNMlSPlaN4HU9hYIz8yKXGqm35mku9dQYoduvVm8Qskt1NxEYT9v25lcSz0bZHbglaKz78yA2nJCWwHARFPGjfkqiLS3umxJ7F2yRelsCCSP/Kl6Vgx/xPmx3cVUl9eeecz7NiwkpF2Clq+fjkGyQnX8NyLb+KvPduZQtiweVs0btUBP333NTN65IsnkkKSOikneTddCc454Fn2+6ZVi4rfQyrF6gWfsvHcrffTLEaCVrg0B1A7t/6wpFR9GzRtwwKmf163jC1catVvgv27trBv4ZV3PsdPy79h7pKhYyYzlwlJ9M+Mn4ZrV87j8tnj6PL4AJiMxmIsDYFNkDD0O0StGgJJbnypd5k8QpmLIXzjRIgKUop/o/5q1+Vx/LZ1DXKzMtjfGzRtzb5ZijGIbtwSnj5+jCB4ePky1YTcqBRY2bhlB2dwpMGpmA0ZMwnXr15kWJKyQ0oPKQhEEEjhIGWCXCxEEEhdoXFF4yKibgN06N6HxSNVpCD8uWszaDzv2b6ekbwmrTogLSmRjUUq2R1fgkkVhOCdt2Ka2A+0s6PtWOjC2yBs40ult3l6iWAf4gv+kjSgxE6iRl5WPBFmxNxzSlQzrrna3+R/6cKHhiCQrEU+Kxrg5EymSZbkdZcvnHyCBn0RftvsJAAUgEMfCEV9U8wARRFvXP4N8nOd2/q8fP1ZkBQZNFrhblu7DGKJDAOffxE+/sHsGopPIDWBJgdyKVCgEbkYKHZAIpMWuxjIb0cyHq2+nIWH5mFtWawBBTPFZl7Egau/wWw1w0fpx+IMRAIRcyvsitkMg8X5cUpFMgxq9TzUMk/ozEVYf+x76M1OPzX5r3sNGM4ML/mSqRBBsFltcFN7sGh98mmmJF5jvmD60L+bO7PUWKZgKvLv0uqN/qMIeApGmjdzCt6avZS5GMpTEOhaIhy+fkHIzkxjq0nX6rd9t97Mf0zl4tnjTNIm90VFBAFuAtjGB0G4LQeOuMpl/NpdgmEqMiPppFMNCG/tx/qeVICKCgUpMgXhdGkFgXZKRHYIgCpAweIOaEtlUZaBBTPW7RaCi7/ddDHcAwXBVVcK/iMJvOxuk8omnLIEgUhsdAUKAk3k5GIoqyCQGvTUiInsmyDDReMkMy0FTVq1Z2Ob6kPuJ4o3oXgGCjLs/8wLLPKf5HG/wFCsXfI5kuKdW8wGjXqF+eRdwalkaDr3HIBWHbux8UQxQhTjQLsMXGOOXIE3rl/Fjg3LWfAsxQ+ovbzx+9Z1pZpP6tbTI19irj2Kg3EVqjvJ+kRO7A474i6ew+8/r2UxNi+/PQc/ff8NazetlGm80iqVyAjhTeoGKZDkEiB/u3N+4GPo2MlIS05kMQ1UqH9IbfnupnuCyM2V86dw7K89eHrERCReu8wMbsnC3HljJrOARPLZk4JJ3xC9m5SMqLoNkZmezAI9ibQkxV9lLr/Oj/VjKg4ZZlISTvz9J3ssHQyUMHAx+HYLwrZMAu9mELFNpkJy/3mQ5FxDwJ5PStWBdhgRKfth8Wfs+2ft4/MZ6SN5n/qcxg0RBLPRyLaL02KCSszJw9i3c1OxgtCwRVv07PcM+43iKk4c3INJ737BCEJOVjojY7TbgwgCxWv1HjiSBTUTThR0ufSzd5wEoSCXBdGSi4FUXJvFgt3b17O4BVrcCYRC5OdkY8vqRSywlopdKEXcqE3wOrMe3qfWkoTL/q4PaoLk/l8h8PcP4XbNqe6yQnPJyAB2FgJ/d+ldHVOa6mC3O/B1jLKyz+uB/+2hIQiunqRBRxNayUmWGPq41z7Aum+/Yi6HkoWibkUSiXPbV4kJp7KRQasKs9l427aryu4hWbXsxC/kC9mkXHaLIykIEpEERrOBqSLVKfQciuIu+Q7mYjj+N86fPsqik8tu+6rOc/+Va2rJYOushvCUFo5zVQfq1WQdBWLayngH2x9r8uX/4rNol4tUrmSrwpKFvh0au2W3C1e0/ZEZHx6PxRm44nlczyNjSaWs64TGrUwmZ8re3R5wRrENRDZoMXC/FMKD5iW2PfimG8eFE/nnDTptqS2R9JtEJmeGlVSNsoWCEdO7vwFtUDPUWTOCLYJS+nwMoaEQfgcXQGC4dUaB6z2Efdkti0RKCC9y7UTWacBiP1x9w7aj2m/f5ninmJIqSVt3q9puXvK5VFcad+VtCdWFtERWhwlQXdkNz7MboA1vh6xOr8D7zHqoysQmOEb6w5FpAX9vXin3gpgPLOuaj/kxSpzKFt1pkx6o6x86glBe79Vt2AxNWnfEppWLioPuHqherqAxz058ne3hJpnvP1eEPKeL4T45+Og/hx9X4QcaAVISHEIp+GanymYXSsC3mYESZ1tUBgCRlsGjJ8E3MJj5+0lZpYDA/0IhgsSIj80MOgOBsOBbiUiVWUyJeOygtbJ/9pI48ESEARuuyWCwPrxbHBmGDRo0uG0JKvAXw5ZxOzOtycHBpXuuSTS5Z3EIcAhwCHAIcAjULAIcQahZPLmncQhwCHAIcAhwCDwQCHAE4YHoRq4RHAIcAhwCHAIcAjWLAEcQahZP7mkcAhwCHAIcAhwCDwQCHEF4ILqRawSHAIcAhwCHAIdAzSLAEYSaxZN7GocAhwCHAIcAh8ADgQBHEO6jbuQFSODQWQFN9VIS323VHT4i8CwOoESSkrLPFIrVEEn8YdIlwG6vPBPi3daHu59DgEOAQ4BD4P5B4KEnCDKhA0qRA9kGfrm9UlttRddAE36Mk0Nr4cFN7IBK7DyhjfbI5hrLv++OupjPg6OrGrYmSgg3ZgHJTkMsFjgowzCM9ygnub2pEo5H1ODvzgfvqq5UPnR6v0jijcDak2G1apCVsAIWU+WZEO+ozdzFHAIcAhwCHAL3NQIPPUFo5WvBE+EmvH+8/CM1G3ha0T3YiNVXFSgw8dDe34KuwSb4yGy4oRFg3jllNc8yrGQctFPBVk8OwaZsQHMr5Wi3IDMUIgd+SXQmr6nxQmeAhEthfcYPwvVZwPXSKZTlqgZw9+6EzITv4bBXnOCoxuvFPZBDgEOAQ4BD4F9H4KEgCGIBEO5mxfVCISLcrUjVCSAROCDgAbVUVjwVacKqKzIoRXbEa4XIuakm1POwUAJBWO08xGuEsJTIC/50pPm0SFgAACAASURBVAGRKiu+OONWTBDI3gYrbew/nYWHuEJhlSdx8cR8WKYEQ7gzF7jgzFBI76yjtqJzgBmkcPyRIobJxsO1QiEjDIEKG+g4UIXQgUStAFkGPiUrZG2jelKJcLexdpDqQdfWUluhFtuRUiRAik5QMi8J0MMDdgkffKpDiSJV1obarzsyrpdOMPOvj1quAhwCHAIcAhwC9xyBh4IguIkcmNsxH28dUeOrjgX48qwbQpR25Jt4zOhPalyEv9OlkAocTBmYcdSdAT+hQRHcxQ7U9bBg+hF1KTdEeQSB1IZpTTX4M1WGUKUNuUYell5UVN6JniJYJgZBvDQVjhznKl3Md2BktJ6RFxHfwYx+vkmAtbEyNPK04a2WBfgrVQaRwIFGnmbMOKqCxszDx200eOOIM7f6rLZF2BovwelsEUZF61BLbcPpbDHa+xux9KISl/OdRIIRkgAJLN3UEKy9lf2O/i5V1oLavycyri285wORewGHAIcAhwCHwP2FwENBEAjyrzoWYl2sAuPqF2FzvBwhSgv2JEnhr7BhVD09XjygZqvq+Z0L8cpfTiNLJUhhx0dtChhBoJW6q5RHEIbW1iNYYcfyywrIRQ7MaKHFiwduPavcrvcWwTI+COJFqXDkl5bx+4WboBDbsS5WVnwrEYRR9bV496iKpSGY16kA315U4nyuEB+31eCNw873fdpWiy3xElwtEOHjNoVYcVmJG1oBugeb4CW1YsnFWy4VvpcIlj5eEKx2ZjmUqxoy14JEHoz89F3Q5By6v0YtVxsOAQ4BDgEOgXuOwENDEKY2LUKWQQBvqR05Rh4C5HasvCJHpLsV/SNNeOuIGwP7yw6FeO3QPyMIz9XVo0ewEVqLU/Ind8DIPz0q78R/QBCeqVuEmcfdWfAitafIwmPkpjyCQG6OT9oUQsDjMUJBgY8xuWLMj7mlbPCpDr1vEQS+QAaBUAm5ujHEEn9kJ6295wORewGHAIcAhwCHwP2FwENDEJ6OMqKlrxl7UyRo4mWFSmzDZ2fdUN/D8o8IwlORBtAOh8/PuBX784fX0TP3wIorChZH4COzI1Nf+S4HnkIA8+RgiNZkAknGUqOjb7gJ7mI71pRREEoSBNcNAp4Dn3fQYOrfKkZO5nYsxA9X5Szu4uO2BZh1UoV0PZ/t2BDywQIuXYXXQAFbtBz8zWVSXSvC4RnYB+lxnIvh/vpsudpwCHAIcAjcewQeGoLQzNuKt1sWYPJBL7zcWAObnYcPT7ijmY+5XIKgltjROdAEldiBXqEG7LwhY8b+73QJCxik3Q8TG2rxa5IUegsfvydL0drXjJcbafHtJTcEKqyo52nFOzfjGSrsSspa/Kw/HHmW24IE2/pb8GydIuxJliJDL8CxTDGLQSiPINDziRScyRazoMpeYXq8c5RIgQDTm2tgc/BxIFWCPuF67EuV4Y9kZ0pUSPiwvhQEwaFC8I5pSlVTpmoAN882yEpYfu9HIvcGDgEOAQ4BDoH7CoGHhiDQ2QV9I4xYc1WOHiEmOBy0O0CKUDcbGnlZsfPmVsJ+EQZsS5DBS0rXl972pzHzsTNRWnwuAfnzQ5RW2Bw8rI+Ts9TiXQLNiPYww2jl4c8UKZKKBFV2OE8lhHWQD3gJRvCPawCt86Akcgc8FuLcUpmmE+B3ipmQ29HCx8wIibXErgq6noIauwSRCsHDiSwJzuU4AxHp7Ia+4QZ2fkOSVojdKRKY6WwFbxHs3TwAKd+pHuhKH9AkUYTDJ2w4CtJ/g77wAndQUpU9yV3AIcAhwCHw4CDw0BCE+77L5AI4OqnAu6IHbpR2NdRU3cmp4CjxMEdzN+aOwFntbYcksct4Arh7d4DcLRo5KZtgNefVVFW453AIcAhwCHAI3OcIcAThPu8grnocAhwCHAIcAhwC/wYCHEH4N1Dn3skhwCHAIcAhwCFwnyPAEYT7vIO46nEIcAhwCHAIcAj8Gwg80ASBMhFazQX/Bq7cOzkEOAQ4BP6TCJSNVSrZCNq0XSY2+p61sbx6VFY3qkh5v7vqXNW996wh9+jBQgdAseYl48oqe9U/6TuOINyjzuMeyyHAIcAhcD8hIHQ4YOPx0FJngszuwEE3KYJMNqRJBKWM/sB8Lc7KFLgm5YPukTqAIjrYBcDErEJs9lQiS1h6d1aA2YZHtHpclYpxRlF+cjkPmx1Ds4qwOMB5lH1lhYzfuKx87FS7I0ly610D8rVIFYlxXFn+O17I0mCFjxssPGd9ZQ4H3kzPwXJvT/TP12C5jwpF/NvPppE4HGimM8PN5sAZuRiBhtI7uuhZ1xRC6CmBz81CGDYuqjiJnZUHXFaIoL+JHd3mbndAUE2LTphbbr2uFFwyBzArJRPf+HghQXrr2PySF4kcDogdgO7m+8fkavCTh/K29gebbehYpMc5mQSXZTe3v998EEcQqhqp3O8cAhwCHAL/cQSkdgd+upaKl8L90VpngrvNjh0qBX5ISMaIyBDI7HaQmUkQCzEzLQe/uqlx1E2IOmYLHs8vQrpIjL1uUsxJycEnQZ54Ia0IP/i5YVJWLryMNih5FsSJ5fjWxx0xNwlCtNGCKJMZO1XOU1tDzFZ8m5CBXnWD2f8nMz0tPZ+Rim0eCrb6V1tvGeYxOYWobTTjrWAftkpW2xxYmpCGqaH+SKUMfAAMfD6MNw0g/f7NjUw8F+lf3FtkkLfG3cCzESEYkq9hBvNzfw/2PJXVjtey8hCts6CeWYcksQgnJG64LhfipewcZIluERNvqw0TQ4NwTn6LmNQy27DqehLiRbJyV/HhViPGRgQiVuI0uiIH8G1iKkJNpUmFzGGHwm5HjuCWobfzeHgnyA9HldJyR56bHdh79TrGhIYgRlHaqLtuaKY3opXGhAypCPvdpJiVnov3/T0xPkOL1X7ueDc9G956GxR8C66KZVjkp8ZVjiD8x790rvocAhwCHAL/AIHX0/JxXiGG3A5GEC7KRBieo8GrYb54IScf7hbgiwCPcgmC3cHHSYUYY3M0WODvgSnpOfjazxcv5mTiI38/5AoF0JZYXVP1SFWYl5SOT4L8ECMT3UYQ6hvMWJyYhpGRwUiUCJnx3ng9CbybK2xaoXvbLEwxILcGGVGVzYZ0kajYIH/v7cXIBZWPk3MRJxNilfeto/JLEoQiAQ99CwzYr5QiVSJgBrupzggvix1z0tLQtW4U8oQ8PJujRXODCa+FeBejPDM1C5s9VLcRhJk3MvG1jzcc5az0P0nPwssRvsUEgS7xNNtB6oir0N/mJGfipJscG9VKOJwbz1kpEPFgukl+mujMjNC4iswOzEpPwTdefkiQior/bgcPf6ucJMZFEIi+/K6W4+WcQsz288S0tFws9PfGS1lZmOvrjfxy+q64fg0aNLhN8BD4i2HLMP+DIVj9W2we4RDkJ1b/hn9w5b8Vg0AZIKkv9aQx3WWxS5TQRnSAwKyHMv7gXT6Nu/2/jQAPIok3FB7NUJCxmzVF5dsFZmMWjNqrcDhul0Uraq9c6cacl3qd9r8Nyb9ce4HQDUrPVjDpEmHUxUOqjIJQ7OU8WMymL66d0a8etOFtob64E6KirDuqtcldiZw6EZDlF8LzetId3Vvy4tpGC7oV6pEtFjKCwIMDMXIJTsklVRKEX1UKNDSY0adAh71ucnhabdircsOEnCy8GhKAikbe0FwtehQWYWJEAPwtpRWEmSk5iFFKsVl9K3Ec1dfN6gC/jFUqFJWeS30tNph5PBTQufF0SJzRglUJyXiqVhhaak0Q8B0w8Hmor7NgZH4OrorkcHNYYREAG1VqrPN2Y1K/u9WOcIMNK5NvoHftSEZy+uYXoaNOj08DPIvhm5yZi1VeHrcRhO+vJyNGKi9XQWhi0mNcCQWhbMdRf7ybmoN6Jj0G1o5AZ40OiWIRTiokrO4ly4rEdKhsFphuuk6o1fUMRiRIJMUuDPpbqMmGdvXCSxGEM24S+Jgd6K0rwi6FEv4WM/ar3TAqJxfvBvpUOp44F8M//tzKv5G69fVmWphtfMwrkRCJro5wt+HxUBNkQkqYJMSe5PL9aK4n24VSpD0+ExalDwJ//xBuugx06/00lO7qUi8/f+owrl44g0f7DsWe7etruEUVP65d18eREHcZGSn3lujduwbxEFG7HhLiLhW/onHL9qjToFmpV+ZmZ+Dg7m1o370Pzp86gvycO5vg/2n9A0LCUa9xS+zduYk9QqasDb/IMSjI/IP9R0WiiIB3yCBmoHJSNgPVIAl8Ph99nxkHpdIda5d+wU4Vray069ILQWFRxZfEnDqM2AtnKr1HIpUhsm5DXLscA4vZ9E8hqPH7CFM+j4/UpPg7ejZh1rlnP1w4fQw5mWnsXiIH/rUmwqS/gfy0XbBZtYwceIcOYf2QcX1Z8dFkVpkHctqOhTa0BcI2vwJxUem8JxVVxsHj4UbvLnAUahFwMRbS/NLHoVe3EZ5WOwYVaJhRrGMwQ2Jz4IJSAlrDbFSrMLCgoFIF4YJYBpXdjufy8rGd4gKEIuRIhPgwLQ071O7FBjJTJMR2ldPg1zHa4Ga1w8tqR7pYAF+LFW+nZWNSWAD73c9iY8pDloiPNPGtuIB5SZmIMJVeoD5VKwS+ZjuLnYiXCTA+qxDpIgm2ezgl+HfSc5EklCFZJMD7GemYEhqIFhoj4hVCfJiagTeC/XFNIoFOwGfGl9biISYr5iZnwN1mQ5DVjBsiCS6J5NjnKcfwXA2KBLfqJLfb8VGAF2JLrNbJxfDJjQws8fYqlyC8nZmNl/7H3nXHN1l14Sc7aZo03XuXlr33liGgDBHBiShucIJ7g3tPXDhRUUFUPgeIMmTvvVq6926zmp18v3PTdBda2yLjnn+gyfve8dw373nuOeeeExtcY0HwrJWv3Ym7SirRy2jCh8F+uKZEi5cigyBxOPBAYQVEAieeDg1CcR1MPs4swmshfjXWAm+nC38np+P2yEgc9na7GMhN9EVGAWbGh7O/PRaENIWMEaFrtJX4Wa1GoUSMXIUUL+bk46/qtaLrCyUS/FrtDvKMlROElv7CWnFdD38bDDYhMnS1PiyKs1k0UItyswgplWKk68SMJJxO9HHDUTDqfiQsvwlCiwFiiQS9BgyHwssbg0aOR3ZGCgpyMpGRcpy98G5/8DksfeNpiMRi2G2Ng2ckUikcdjuczlpTlUAggFQmg9VqhavO5zQu6o+udTrq7w9EYgn77Mob78KhPVuQevzwGdGhF6xQKILd3nxQT8NGhCIRM7g5GvRPbdEcbdb6LxGRSAyaT1N9iCU0d1s9ZegfGIIp18zFl++9WNN1p669EBwWiaQefVlMdPKRfdCWl+HYwV247cHnsOz9l2C3WWGzNbawiQkXV0O8BHDjbquHO3UokcrYWBviLhKJ2Aun/9AxCA6Pwq/ff8bGF5pwN0yGlBrrgWfQUkUEQhPuQmH6UkYUWiIxnbowLLJST9a7nDAkfOvOj0hKUFgE+gwejb1b/0Z6ynHk11GwNG9qy+Gw17QVGBKOOXc/hk9efxq6yvoZOGl+AnoWmsBQQuvkcMDprP/Mtfb5oeeA8CVyUpcATbxyNqj/31d+2Qgmur6pdaLfAS3IdXcsxKY1PyE7PYU9G0HR10Eo9kFRxqdwOes+DwKEJS2AvmQr9OW7avpxiSTIm7QYTokcUasfBBrMsal1cwmFyLjyUoSu3QKFwdiSpW3ymiCbE7cWuU90dbLYIIQLydW+8U+DNbhCqz0tQfC2CBDgtGFklR67FUqcksmwRe2NF/LysFWuQhebCRaXCP+ovfBFsDsI8bXMUoS4Tk8Og2w27PD2wrNhQTXj/jKtEPfFBrO/lQ4XlmTlYWZ8JGaXa5Got+GxmAAWLJkvodgFBbvurexiqJ0U82DDarUGb4W6N1H0Bl53MhuLw92mdF+7AzIXsFHlxawe3i4XxumMWJRXgKmJcSgRCSF2uOq5ATwDcwqAckktaQiyO3F/flmza0LxEUuDNSisjmXQ2J2YU6rFCEMVjnrJ8FGgL/vuncwivBEeiGyJkBG4W0oqMbVSj2fDg5g1gYQIwishfkivJihNxSAQeVqWkd+IIPg4XAi12zDCaMAOLyVS5FKs81Xjjaw87JYr0dtihEEgwQa1El8Fuasae4QThH/9k2t8Y59AKq7k/hHvKJTjxzQ3u/USu+Arc7GiScuSvXFKK4LVcWYXRO60N6HM2Abfw6vqL5pAiHmPvogdm9Zi/45NNd/Nf+xllBYXwNc/EKknj2DjH6vgcrpw2VWz2TVhUXHMpPzbD1+isrwEAtpJXnMLwqJiUVqYj5+/+ZgpLHqBDh83BV169YfdbsfWv3/FycP7mPLtN2wM+g4ZDbPRCKFIiK3rfzstQaB7uvQagCGXTAS9/Gn3uXPjWqh8fDHjxnlY/d1SlBUXYsiYyyARS7B53Wr0Gjgc0XFJCAgJAyksmgftRGkXO3rSlTBXGREYGo6Du7Zg56a1bG6RMQkYP+1aiKVS7Nu2Afu2b2Sfz7zpbhiNOkTGJqJKr8NP33wEo16HOfMfZZYYhdIb2vJSGA06LP/kTXaPQCDEtbffj/zsTKYQSMRiMeY//ioKcjPgFxiC/OwMpmSIKNGYvJQqhEREMyX5x8qvUFyQy+4bM3kmErv2hkFfiV+//xzaCvcLhe7p0rMfstNPITA4DGt++hpF+bno3ncQhl5yGWw2C6qMBqQnH8WereshEIgQ0eUJ5J54oUlXQkDkLNispdAWbTjtE03EYPyUq9k1uVlpWLPq65rru/cdgsGjJ7C55mSkYu3P3zBCSSJTKHDzPU/io1efqLl+5IQr4OPrh6CQCEZy1vz8LQpyMnDF9bcjJDwafgFBIOsLYbRxzU9sDcmqMHbyVRAKxTi6fwe2b1gDl8uJCdOvh8JLCSIWFrOJYUjPclxSN/a8qTV+ICJCWBzY+Q/8g0IYTr/+4C4kNuPGu9hzQs/vtGtvQ0V5CSJiOiEvK40RrNCIGEyedRN77kj02gpUlpfil+VL2djHTL6Kjc1Kfa/6GoW5Wex5Hz5+Crr2GgijXgulSs3wIoIgFHkhPOkBlOSsgFl/qhHmqoCh0ASNQ87xxfW+M0T0Rd7kFxH7zewWWRFcQgEypo6Dz7Z98C9pn1Tnc4v0KJMLsLrO7vFMMQjvBPvi2lIdHi4qwSq1L56P9EP3KjvuKC1hLoZbyitRaZdiRbBXzXzpZIAnnqC5h/LGskqE2Wz1CMI3afn41ddthaDgyhvLKjAhMea0BIGuo7ftq5lFuDsmBHE2G24soSBHMzpZzCgTSZAhkyNdJsFehQIbNApmPSF5PrcUV2gr8IV/AN4N1uD9rELEWRoTm3KBDFcnhkLtcGFGpfa0v7O6XxqEIvzu482sNsP0ZuxVyVgApGebVpcg0H1EQbpXWZmb5WB1AGJbCMInIT64sViH+0pK8LPaD89H+iLe6sBNpeXMxfBwYSmyxAr8EOCO5agrnCC0eJnPfGGA3IlEjR0jw8yotIjx0TH3j2V6nBlDQ9yFnYpMIlbIaVeRDD+lNx2h6ukpbfa3CNz+MdRpm+svWjME4ZGXP8Jfv3wHq9XCXrgrv3iPvSBp5yMWS7FxzSr06DsEXt7e+OGzdzHtulshk3th2/rf0X/YGKh8NPj2o9fhHxSKCdOvY+SDdtk9BwzHsiUvg8zGN85/FDs2/AGdtpz1QS/o01kQQsKjMGPOfGzfQCZYO0ZPmo5P31wEv8BgzL7rYbz3wsPs5TtjzjxmCSHFTgrGx9efmfV79B8KtcYf3y19k5n+L7vqRqz75Tu2wyQl+/4LD7OX/7W3L8Bfq+lzJ8ZNmYWPXn2SKesHnn2bzSMrLRmTr76ZzXXPlr+Z6X7wJRNRWVaK5KP7YDGbkXbyiFsZyhWYPe8RbP3rV5w8so99FhnbCbPm3oP1v61kBILG8cU7z6MoPwdX33ofUyY0x35DxjBsaCzjplyNwJAwbP37dzYPuVyOVcs+ZNaJkZdOw4Y/fgRZLLr1GsisGDTe6+98CLs3r4PZVIXLZs5h65GbmQqx1I+5F/KSXweacAmoA0dBIvVDWd7Pp31QSUFGxiYw0iaTyWtIEVlk7n/6TUb4yGJCJG3X5nXIPHXCjUkTBGHK1TcjMi4Rf63+AbGJXRESEYVl77+M2MRuCA6LABGI9b+ugKnKwAgVWRJuXfgsdm/+C1UGvfv5+f4zZKaexDW33s8I2/rfViCxex+ER8bh83eeY+OccMW1TGn7+gVi1MQr8Pnbz0EkkWDCFddj2ZKX2Phuf3Axfvn2E2YxuOneJ5nl58ThvexZ2LFxLdJTjiEmoTN6DxzJ1urArn/YmpN7iT0Loyaw9SBSEZfYleFO7gh6Dtau+pqtDRHQFZ+/ywiCSKJGeNJC5CW/BYetca4VL58eCI67FRkH7qu3HnafMKRd/zVil98EaWXOadfK5K+BQyZF4bB+CF2zGco2WBDI351ocdd4mVZhYMfZaCdJkimRYViV8bQWhM0qJaZW6BFttSNbKkaZRIRDEgWuMFRgYWQIbitrTBBI0QVbHI3iCepOemalFhqnvR5BWJ6WhwMy97tT6nJhglGLMUmxpyUIFFPxdlYRVvmpmRsgxuxAuMOGdLEEdGxzpb8K21QKXFFuQLpMWqN4CZcH8rQYbq7Ecj9/FIlE+D7QXaMm3uTAmzm5uDk2CuUSitgATAIBO00xt8BNEMgqoBcL4IAA3cwWyAQO7K8eu2eeWrEQPwSqQEGSJHEWG1R1rLUj9CYcVMqhrxN3kCGRQFcdX0H3fJ5ZiBKIoBW5rdKEC2G/QaFGqdhtiaYjqWOMRozuEsX+9rgYDqtkmFJhgK/LiUyxBJVCIQ4ovTBBr8XzoQGcIJz2V9gBX96YZISXWFBDEGidqWz00wO0+PS4CqcqhawCpO0MGUfSbvwOgds+gDqtfnAiKaimLAh3PfICPnzFvcOjF+amNT8j7eRhRhDSTh7D9g2/s1342MkzmcK/9+nXkXL0IFMCoZHR6D98HN5ZtIApctq9065NJBRh0ozZ7HoKbJsx5y68s2ghM9vOnHsP282djiAMHXMZe/Gv+2U5GxeZzEsK89C5Rz9MnH4d3nr2AfbCnj3vUfz96w+M0Nzx8PNMsdCOs1PX3qC4gP999ykGj57I2lqzahlr6/o7H2QvcvINd+7VH5vX/sKU3uhJM7D0zWfgo/HH9BvuYGMnC8Fdj7zIdqB7trr992RxIaV+YFd9AkZE6cb5jzESVVqUx67tP2ws4jt3x8ov34faxw/zH3+ZEQSay833PcmsL/T/rr0Hsh317i1/Yc49jzFFRZaIqPhEBIdF4esPXsHc+57EsYN7sOufP5HYvS8mzbgBS19/GjGduqJrn4H48Yv3WZ/3PPUali15hVk4JFJ/BMXejLzkNxqU3HI/wOrAEZDIAlGW67Z4nElGTbgC4dFxdawmAtz/zFsspuTogR3IzUiF1WKucYs0RxAcDif++PEr5paZefM9jLCRNOViIJfRvMdewt+rf2DXDBgxDkf37WTKmghCaVEBewbYbv/qm/HZW4uQ1KMfevQbwhQzWbZuuf8ZRhbIwnI6gvD90jdRkJuFSy6bAaW3Gr+t+IL12ZSLgX4P3mofJB85AIFQwH4fS994Fglde2Li9Ovx5tP3gcZ+w10PY+PvP9YnCCffgMPeOC7Ay6c7QuJvR/r+e+sthUMVgtTZ3yL2u5shrTh9wGHy1DFw+GkgrtAhcbX7mf23MsBgwWCDiSm+6yrK8Zvap0bZHJTL0cVuapYgXFumxxCDHvOjwvB4fjleDvNFb5MVZKPvZTLhyYhA3N4EQfB2OPHTqVwoXbWup4bjJyvDbxpVPYLwRVohbo53H1WkNr7KyMPVZ3AxPFpQhqvKtSBlrBVIsSREg/VqN8mYUW5EuNWGjT5eeC2rCDfFhzHTPvnlv0vPxed+AXi6KB/jk+Iw2GDGAS85KGYjwuzAQ8UFeCosHDqxADlSETvlUFfItfFERCALFLyhyABfoQ3vBbqtVM3J2zmFiDM4QWGijcUFf1jxeHAYtvjVHl9cmlmE1b5qFEjdZIDcCe9k5eCVkBCkVR9NlDldeCy/GFM6uY+REkEYpbVgeJUe90WG4LHiCiwK8QM9CxKbAPFOI94M5gTh3/6m/vV9DQkCe9AlLjw/SIsPj6mQXHHmEtB0T8a1n8N/zzKoU2vdCPR5cwSBYhA+ef0pNu5bFzzLzPVpJ9wEIeXYIaaQ6sp9z7yJ4vwcZsolIWKw+c/V6NyzPwaNGo+c9FNwwQUyPZPvnUyspHDfWbyQXX/VTfNxcPfpYxDIGpCefAyH925jLg1yGZDveeDIS5HQuQeWf/IG++yOh5/Dx689BbFIjPlPvMosBhRfUVemXnsrMk8dx+G922s/Fggw7dpb4OWtrgkeo3lQYB8pFlLs3370GiQyGW5bsAj/+/4zZraXyeVYsPg9png8lgNPowFBobjuzoV4//lHanzhNG+jQc+ITkRMAvOvv/f8Q8wcfuuCZ7DkxUfrjZXM67PnP4qTh/ayuASSvKx0JB/djwefe4+N48ShvYz09Ow3BEvffBaktAnvf9b+wsgZ7V6/fPcFRm6EYm+EJcxDLrMgNGaWmqCxEIi9UJH/a4ue24YEgW4Ki4xh1qKA4DBmOfrp6w+Rk+E2nzdHECh25c+fv0VQaARmzb33jATh3qdex7EDtX55woAsJEQQigpysPH3+u40siCQ22VlNWnyTC44PBITp9+Ar973WBCewy/fflxjQVj+8evMukPz9PELYASTpCmCQFaGkMhYFOVlsWvIsrB9/e/o3LMfxk+7Bm89cz97RomQemIQKEAxPGkB8lPfh93S2A+t1PRCYPQNyDz0UL31sPlGIf2azxG7fA6kWjf5PJ1QDELq9EsRtGEHfCpabtZurs1LtGbcWVKKuXHhNQl06FryjXvbgSUhPk0eR+RsmwAAIABJREFUc1yjViFFIcZnGUUsD0K6VIJHC8pRIRLh4yCfJgkCqT+l8/QBsLPLKhHcwMXwfVoeSijuo3pX3KfKiOGd405rQRiiN8PHZUeKVI70BomDYiw2vJxbzCwZb4T4o0QsRqFUiG5VNgzXm5ir5eeMTAzpmgCTAJheqccAo4mdphhYZcAWb29YhQL8rPHB7jpJoDqbbHg1txAzEiJYYiYiCNdoK5AhrQ0+X+WvZjkI6soH2QV4NjQQxZLGMWh0BPKt3EKs8vLFJv/adrqYbOwoqOd0Q1MxCDS/blVWdpSVxGNBWOfjjUyFCO/nlrA8CBQY+mRBOchK8W2AilsQzvQjbO/v24sgFIx9FMKqcgTvoGjoWmkvgnDnIy/g4M7N2PnPn8ytQGb0Q7u3MEJx7MBuHNy1GWpff9xy/9OMIMgVXsyU//6Lj7A4gJvufYLFJ3gsCEFhkeg39BL8s/ZnZkImITfCjk1rkHriCIaPn4rwqFj8+NUSDB83mSlB8svTjnHctGvw9ZKXERoRjVm33MdM7rRzritz73+KKYHyktpTBGR9IBdG8pH9oNMcQaGRUKpUzF1x6bRr4ePnz5QLKT1S6qRwyS9OJOD2h55ju1RSJHWFYjUmXXkDPnvb4z8W4PaHFuPQ7q2MZHXvO5i5GF57Yj6bw1U33c3aqSukMK+/40G8+/yDjHh16zMQGSknmLWEiNn3n7p361dcdzvzwZN5fPLMm1FSlMdM+wNHjGf9fPPRa2wnTxLVbRFyji9i1zeUkPg7YKg8CENZrfIln/2IS6dh/46NNbEPnvsaEgSKoYiK68RM8RQkeNPdjzPitGmt22XxbwnCZ28tRkWZe71oF37Xwy9gyUtuMkWuForVoFMhrSUIFGdzzW0P4MOXH2exCfMeexlECsgVQC4GIgQ0fnLTVBl0zJpGMvHKG5gLafXypTUQjrh0KuRyL3YCiAJwu/YegOMHdjHr1fTZd+KNp+5hRPGWB57Bmh+XuWMQhDKEJt4PbfF6GMr3NloPn6Cx8NJ0R0HKO/W+0yWOQ9HoBxD39fUQmc6cBp7FIEwbD79Nu6BpI0GgXefHWfn4Wa3Bz/71/c1kniaxCwRNEgSKQSAZozVjr7cUVUIhvkvPwbsBAdjio2iSIDQCpYkP5pZWIspqbWRBuCPOHaRIFoRPM/MxKz4S4/RViDA78WmQd6MgRU/TXi4XJpdUIcJhw5uhGhYDcUupDvOKS/BGaBCW+6nwXE4pPgn2QV51PoUYk72GIFQJ3OmaSTqZHHg/JwfXxUahrDo40UN3vJwufJ+aC7NIhANiBV6K9mUEIUBgw5LA2lNmlLmy4a/13xCEhtC1JlESxSCQjNRZsNtbCptQgHUns/BURBC2eys4QWjJg9oe14yPNGN4qAUhXg6QuynPKMI/+XJsyJXVWhCOqpBc2TILgiWwE7Kmv43QtYugytlT43tuniAsZlHjJPUsCLcvRMrxg9j1j/vsvEfik7pj9GUz2AuaYgKOH9rDdk5kJh8xfgoz0VIEd1RcIr5e8gqMRj2mX38HvNVq6HVaBIdGskA9cgWQDBs3mSn+Hz59B5mpbt/1gOFjMWDEeJSXFDJluoECDo8fQnznHrji+tuQl01Bf8H4e/X3SDl2kL2cL5k0A5++tYjtzuvK/MdfqdlR1/28//CxGHrJJBTkZsLXP4j5sclqcfUt96GkKJ+5K8j/TKcuyD1CSoSsIaQELRYT9NpKrP3pmxolSkFx5H/+fYU70p2U520LF9XMlXb9nbr1Yph06zOIKRIiLnWFTppceeOdbOdJ/VktFvz8zUcsaJRiFshVUl5cyKwRW/76H4u96DVgGEZOnI6C7Azm4qksK8GKL96rOUUSEHUNxBI/lGR9BYfdE9EugMp/MPzCpiA/5S3YLLXH54iM3Xj3Y1j707fMFUTSo99Q5rLR+AcyRVmUl42M1BMsLoNiLCiQ1Gw2wT8gmMUHZGecYiQjJiEJoRGxzAW0f+c/OHFoDygGoTkLAgUczrhpPhQKJSOLf/+2glmrKO6ASKCpysgCBn/6+iOUFRe4CUJ+Dgs0rCsUKNu9z2Dm2qkrUpkc0+iopkoNoVjMAl0psFHprWIEgY4iUhwHEcHvP3u75mhq114DmFWASGZpcT4LOiRyfOUNd0BbWc7GRBYNIgu07vQMOR12hgkR2ZVfvscsayQ+QWOgDhyOwtQP6+FOp0qC4+aiOP1LWEy1bgSbKhjZV7zFYooCt3/UolcOO8Uw/VIEr98OZeW/O+JIHdFpgHuKy+Fnc+KxqMAm8xZ0M1pZop4FJaV4OzgQRxViRNvseD6nBNoGqZXpuBwFvV0TH8HM6025GEgRe4hHc5ONt1pw3EvapIuBch3EmW14uqAYkxOjmKKlmAGpw8WsCf+oVVjj496dP1RYgS5VFqb8khViHFB4Icpqw1itEXkyMXZ6eWFOeQVWaNSYrDNgfnQItNXHGOOqaglCJ6MVw00G1iZhdZlWxxIkmarjB1arfFAoF4FcGnRs85mwINxRVIEQhx0ShwtmiQD/03izfAU0XnrTU9zCEYWc1U0gIYIgdgBWQeOUz3RJN4sJzwaE1rMgNMSvJQShM2WhLCiDvjpuwdPGOm9vLCgmV0Q0y/vAgxRb9FM8Fy8SoLjP1SgZsxBhf70E38Mt8y+3ZiZ0/I+UKp1qqHtenV7A9LKk3V/DY470udlcBVuDSF/aHas0vtBV1I+2JnM+vWwparzukTMiOp5I99aMualrKWhNpdKweZxLQliRS4UUYl0hy4zJqG90VJMUnFAkZlH2DUUoUiC880PMxZR99Fn2NeVAUAUMQ8Gp92E2pDa6h6w+RLTOlOvAcyPFX9AzQeSkpfe0Fm+KCSDi6TnR0dr7615PeFFgqgdfsiwQQfh+6VssTqGirKTmJMaZ+qHTKQZdZY3FxnM9BcySm6epo8N+4dOhCRqNgtQlMOlToPTti+DYm1GR/xsqCmtdesbwPsic9Qn8TvyB0LXPnGkotd8LBMgZMwS6uEj47diP0KONT0y0pLEIiwOLskqxIC6Q+embkmXphUgym1mA4J3xtccOm7q2h8mKWLMD/6s+ZnhrWSW0dilW1jnFkGih0L3Ty9RKLRROOxaH1vb3WXohbokLwUSdES/nFuBXjS+eCvNnDT2bW4ZJOj3yxFLcFhvMgiVJIq0OFiPgEcoTQLkRPgzwRVZ1LYdeJiteyS7Ge8F++F1Te9oitsqOVZmZGN4lAWFVDvQyNn80c4tGjhKJEA8VVOLdUB+YqxMXhVqdmFhpQGebBUFWB+RWMCJDB5YpffFjsQE1loT3swvwdkhATXBhXYTomOPivCKs8PbFP37N58nxdgLrk9Nw22lSLTeH/ECjGRFWJ37ydWPwYFEpskUKrOCnGFryUzr3rjEHdoLA6YCsrHXJXc69mfARtRUBgUDMsvWZ9MmsKbl3AuzWMtitjQlFW/s6H+/X+AWwkyAUW0JBox0tdPxUpoyB3VbJYhEo06VAKIXVRHE9tf53qzoEdp9wKPIPQ+BoeS4QGr9DKoEhNBCiKjO82+moY3vjQgWdaLaWMzGCFnRM6ZF11RH9Z6MCI/VBEQ8dmzu4duKU4pmOWDYXnUGRCWR9OF0MO1G8UIsDJVIhyyjZFqHCT9RXU2vHjzm2BVl+L0eAI8AR4AhwBC5QBDhBuEAXlk+LI8AR4AhwBDgCbUGAE4S2oEdmIJEQQscZEhq0sQ9+O0eAI8AR4AhwBM42ApwgtBFxo78GyrIzH1dqYzf8do4AR4AjwBHgCJxVBDhBaCPcnCC0EUB+O0eAI8AR4AickwhwgtDGZeEEoY0A8ts5AhwBjgBH4JxEgBOENi4LJwhtBPAiv50y8tGxOIfdnXmyJSKSCOG0u+Nemqjb1JImGl0jrD4b72m3qUaoTgHrs0H6XPq85jMBZUysHV9z9/yrQbbgJiEltKEkNdX4nO4WmrPnOrrPSfM6fWbg046gbns1FzZ1Tq86W1/dtRNJaSyuRti2YMrn3CVUWMxh08F1mhoM59yg+YCaRIAThDY+GP8VQRAKRe4c/+2lIdqIw/l4O9VvSOzSEwf3bP1Phi+WBiI4dg6qdMdQUbDmjMonIFaN4lOViBkUgpz9JQiIV0MsEyH/cBlLakRKTqp057AncdicCEqsTftKnxlKTNDm10/aRJ8HJflCJBai4FjjugLqUCW7zzfSmz1uxlIznDYn5BopVMFe0IQqcXJ9NlNwMm8JYoeEInl9DlN2vlEqePnIkHekftps6jOkqx+kitrxesatzTdAW9B4jC1ZJGqTxlaW1TjrYF0FLJGLET88DKlb8hhJSBgZjtyDJaiqaD5Jzmn7F4C1UXSinBV8Iiwrcg0IiPOBw+aAvsgEO9V4p8ycvjL4hClRcLwccpUURCyi+wWhKLkCZoMNVqMNdosD0QOCkXOghI1PoZZC6l0fK0OpCQ6rmyjScxA/LAyZuwshouRBdY/GuwCzzgKnow3spyXgV18T3vkR2C0lKM78qsnS5K1oil/6HyPACUIbF+BsEwTKjDdu6tUs7a1IJGTFkqh8LmWT+zdCKY+p8t7OTWv/ze0ddo+fMhCdQ3tgT8ZW2Bwdk8KEykdTJUiqo9CSrIGUarf3oBEsPa9HKAUzZZCkdaG0wZSmtyUikQUhLGkhy+WvLfqb1Vcgy0Cn0RFMyQR39kV5tgHFKe4ESIGdNJCrJIwYJI2JRPKGHJCSix0SAl1hFQpPlEOmkiJ2YDC8g7yYQqd7w3sHoixDy3b11D5J1p6iRmSCCAIRjMLjtVkwrVU2pvQ7jQ6HKliJopPlsJkdUPhIIZaKmGIzlFRBW1CFqnJ3vQj/GDXUIV4wad1rJlNKEJigQe4hd4ZLs96Kylx3KttuE2NQkaeHxVhb7c83whtmnZUp69aKXC1F4ugIWIy2Ji0BhJGHeIT1CIDST46C425CFN4zgPVblukmFsYyc6t289R3p5HhOLY2C4FxaigDFKDPKnIMjKipghRI31bAnjMieBU5euiLqhDeK5CRKk2YEqTw7VYnStO0qMwzICjRlz0HRLZUwQqog2qz/xFRo7Fb9DZGSGj8UqUYOfuKWfseyw3NhYhB7oEShn17SuIlEew5E8tFDO/sfZ6aG3IERl3HSmJTGmqn81+SrvYcLG/rXyHACcK/gq32prNNEKi2AdVKoEp7lEN+1s334LO3n2P57E8nIrEYKrUvdJXlNRUK6XqqqhjbqQt++Kx+URn6jlLMWkwmlla5rlCefUptq1B6w2R0v+zPJGKhhJWOttjdiuRM0ityAHpG9MPyXUvhcLp3XmcSL6U3u6SqwZjI2kIphGnudYmAUCgEpZSmnP11hRQ+1UqgudnttVnvkrr3waSrbsTbzz5QcznVdCC58+Hn8eOXS5CV5s5w6BHqg8pD63QV9VJWU+0EmTKavUBdLvf8SIF3uTSaKcfwXgEozdAxskDS/fIYprRo9x7UxRfFJ9zEQSgRMgVDu+7KPCPbSXadEI2Tf2VDIBKwXWje4VKmuMuz9PCPVTOC4B2gQKdLImAzuZUzkQ3adXr+lirESN2SD12hke20yRogkYtgKHOvHyl+smaQgqgRAdBlfDSy9xaxcTUltDM2VboVBiMIOUQQajH2i1YxctFagkAYJI2NYmO0WQjP+rvl0jQd8qutGCKpCF0ujULmzkIExPswYiSsdp8wNwOAzN1FLXJTeOYY0sWPWQgoqR2RA6vBBr9YNarKLWy+Ui8xw52RmFERyNpXxJS/zeRg/WsivBmWhA+Rg7IMHWuLyB7dT583JXRvzOAQSGTUfiGbNfXdUDrC0Nh5XBT0JVWsb3p2MncV1nQrEnsjqvszKEr/AlW64/WGo5K4YLALuPGzyRU9tz7kBKGN63HWCcKwseg9eCR++PRtVn44IDgU5aVFrGBQ/2FjsGzJy2xGM2+6G/k5Gdi+4Q9WUpi+IwVJSp12wJTrf8rVcxkJkEhlLPc+KcMfPn+XvVun33A7U55EBqiI07b1v6NLz/4YOvYy9j3luKeSwDs2rsGh05jopWIZRneeiFB1BEhRF+ny8efRX6BR+GL2sHlYtm0Jyo2lGN9tKsxWE47k7cPkXlfDx8uX7ap1Ji0qq8qw7thqWO1N70SoXG9cUg+Yqgzw0fgxl8HWv36Fl7cK8x59CaVFBWyXL5FKsOqrD1k1RypDTYV8aH7vvfCwW0lKZbjutgcgIB+6wwG1xh+/rfiCFTSics8a/yD4aHxRXOBO4fvL8qU1xGzBc+9g1Zcf1BAEIiRz5j8GXXVNBcKd0v9SYSySkLjboK/YC2PFgZonkF72RBBIwUb0CURpuhYlqVqm6EO7+EMoFsAnVMl2pLTbrCsWvRUl6Vp4aWToNCqCmc7puqh+Qcg/WobAOB+UpGlrCIIqyAuxg0Jw+Fd3+m7aUVP7tNMkIZJBxIJ23GRBsBjszDTucrhQnq1nVgKyStjMdvY8lGZomdk8OMkXx/7IZGMO6+5fbydL16VvL6jZmQd10kCiaFzyVl9cxawirREvXzmzbPjH+TBsPKZ3akMsEzKLBylo2lkTaSKitO/7FJDFghS7vtiNJ33usJKSbrmLg0hZlwnRjKQpNDLoCozV8xIwzGgsVRVmRlCiB4WAxkqEpPBkObuOyBYRM6rd4x3ohcocA4pPVUAdrGTlvwlzZuERC5hLpq4lgCwGRHKIUMQNDYW+xAQny8tSP/0uw/Rfum2aWwdyqRDWRGzJpeKxIHiuD4q9GWZDGnQlm2uaGBZqxf09dXh+nw8OlTZ2L7Vmzfm1HY8AJwhtxPhsEwSpVAYqe0w716P7d2HD7z+yIkukAOc99hKzBNhsVty+cDG+W/oWq5BHdeypguLOTX8yQiEQilCYm8lK25JFIjo+Cau++oDtPqggDVX7S+jSk5XMJSU7994nseyDVxAWFYvI2ETkZJxCSHgkK74Um9gNK794r1kUo/3jMTxxHFbs/hxCgRCzh87Htzs+QpA6FDP6zcZ761+A3WnH9L434EjuPqQWn4BEKMHUPtcivzIbuzO2sl2/w1lrhm7Y2bgpVyMq3l1xkipDzpx7L95//qEagvD1B6+gvLQYN93zOI4f3M3IDpUIJgVHpaw/fOWJWoJw+wJW8njHhjXoN2wMIqLjsWrZhxBLxEjs1huXXnEdlrzwCLueCJXHItEkQbj7cWxa8xNOHt7HqhhWVpRg29+/s3tDE+axYj70Aq0r5CYg0z7t4Elx1VV09M7vc2UCU2YmbS1ZIjM2KSB6Ufe+MgEU8GY3O5gFIKSLL/KPliMgTs1M1x4LQmsIQsKIMGTvK0H0gCC4aKe4o5ARj7JMPXzCldAXVrH+yQdOJnK2k3WB9VnX1M3M4kdKoYn0Ruzg0DP+8o6vzWJm/9YIuWhKTlXW+PvpXqmXhJn4iSCog71YjATFBRz9PZPt4snVQMSFJGlcFHPNVGS3PGiUyBARDXKlUHwHWVuINFAMQtIlESDlnH+snLlhvPxkUKhl0IR7MysCWT6COvmyNbPqbfCPU+Pk3znsGQjvEQC/GB+kbMxhOAQm+EAV6IWcgyWQe0vcZKA6GJPWg1wMmbvcbdKzQu+EyL5ByN5XBGuVHbaq5n9DrcHYcy1ZRTxxDbTOHuuT53v/iBlw2HWoLPyrpnlviQtDQmzYWSiB3ta2GgL/Zsz8ntYhwAlC6/BqdPXZJgg0AKqMSMqqc8/+0Pj7Y9n7r6DKqMekGbOZhYDK0fYdOhpfvPM8Iw/Dxk5Gr4HDGVmg3fD+nZtg1Lt9rU25GMjiQKWHC/Oy2DUxnbri249eR0h4FEIjY5mfPTg0gpXHTezay211aEZGJl4Ks82E3RlbQNaE2UPvwrc7PkZ8UBIGxo7AF1vfY8ThhiF34uf930Bv1rHrZg64CTtSNyK9JOWMK0QEgYgMERoqKU1E4N3nHmSf3frAM/jyvReZ9SSxex+Yq4zITne3SVUR73z4uUYEYdfmdUypxyV2w9Axl+Gbj15zK48mXAyewTVHEH5a9iGz5FCsg0QiY6WoSdwEYV2TFRibmzDt0MncTztIsiyQhHXzZxYHUkYkpGjIdH9iXZY7+G1AMHMtkGmbdqakgEhREkEgy0BhtauCLAL0kvcEMNLuPmNHAbMgxI8Igy7fyKwMpLioPQpOJB+4b6SK7UyJtNBOPap/CHIPFDOCQO4CUlI14gLbNbNgSi/3zpliK5pzJ5j1tlbFAVA/Eb0D2Y6alDEF+7F1FgqY+Z4sKESiaNceOzgEJ9ZlM6tD/PBwHP8zi+3qu0+OxfG1mUyhtkaIeBA++UfKoPSXsXmTdSW4sx8jkUQ6aM0oKDFhVDgja0TyiFh4YjAIF8KU4j480mNKLNK2FrAgw4SREcjeXwSnzYX4kWE4tSmXBWTGDAxhMQrFqVoUHK0NMqV509ql/tPxRauawso/4io4bFpUFtUShNZgyq/97xHgBKGNa3C2CQIFylFt+orSIqYM73joObbDTU8+irik7pg19x6UlxTh4O6t2L15Xc3sqIQv7bLHXj4Tednp+GPlV+y75ggCWSjW/7bSfT97X7nQve/gVhOEK/vNxv6sHcgsTUWkbwxGJF2KlXu+QL+YoczNsPboLyw24aZhd+OzLe44CC+pN64bfBt+2P0ZIwxnEiIINN7Vy5dWE4Qn8O5zCxlBuOWBZ/BVNUFo2E6zBOGfdTh5pL0IwgfIz8nEyEunMReGhyAEx86FoeIAjJW1LoYzzZMC8Gj3SEFoZP4nJUvBaUd/y2DuhLoEIWVjLgtcVWjkCIz1gSpUwXbMpJRJWRJBiB8eWrNzpmh7UlAUV0BCSoeIBBEEUpoSqQiFyRWsH7vJhpDuAcjYWcBiG4ggeFwC8SPCGUHwDlQgYXh4PUs3Kcoj/8uosX74x/qArBMNhVwraVvzzwRHk99TLEBU/yCQy6Vu1D6Z4MnVwjCSCEEBdkQQSLpNisGpzXls1x89MBgn1rqJcWuk76xO7H6ypFRkGxjxUId61wR2UoxB+vZ8hqtflIq5aShIMap/cPVun3ojv7yLxX2k0CkQF+AhCES+/KLUyN5fzKwgtO65h0sZcVOHeTETv8xbWu8Uyn9NEKjsdZUuBfqyba2Bkl97DiHACUIbF+NsEwQ6wRAeFY+Na1bBPzAY46dew3bIxQW5kEikuP2h5yCTyfHBy4+x4Dv6bPRlM6CvLEd2xin0GTQSEqkUv3z7CZt5v6GXYNDIS/HnL8uZtYF212QxuOSyK/HX6u+hUmuQ1KMv+39sYtfTEoQe/Yeytn774Ysa68OU3tdAaypHWnEyhsSPRom+EJuT16F/7FAkBnfHxpNrkBjSDTKxHH8e/ZmNSSX3wfVD7sD647/CYrcgtzwLzupAPrKaDL1kEgvSJBcHCRGEzj374bcfPkdweDRzkSx945nTEoSYhC5slzf56pvx6/efw263oig/F9fdvgC7miEI8UndceWcefjf8k9hMZuQm5XKXDIkFOtApCI9+RiMBh3MJiPm3P04flrWNEHwDZkEhU8XFJ5acsYobxpnWA9/tvtM257Potk7j49iwXi0OyQTNgntjOmYH+1KaUdPu1E66ZI4JoIFuiVvyGUxChSIRwqUgvU8ZuGGMQjUFvniScmSEiey4BPqzUgHkYZe0+Jx5Nd0BHfxa5YgSGQitmv3CLk/yG3gcY+QT11MR/LqiF+Mms2TjusxlSkUMCtJ/rGy01oTSDmTVYAwIRM+KWoiGmThILcKEQ5PQGVDgkD30RFDpb8cAqGw5uQIGT8ojkJXZKrBuLnXBbkpqG8ibT4hSshUEnayhGJGyO1CwZgUaEixEBRXoPSVs+h/Cjwlxd5pVDhza9DRR3It0brQnIic0dhDu/ixdaM2yDJC66LwlSGj2jVC1pqWEgQiUXRklUikh1jSvNQhSkausvcWM5LiEXoWKK6lNL0SxSktSytPZa/DOz+MovTPakqTU3sxagfu6mbEkiPeyDY0Hcjaxlcyv70dEeAEoY1gnm2CIBKJMe262xCX1A12mxX/++FzpJ88WjOLsZNngs73//r9ZzWfkYKfeOVsSKVS6CorsOLzd1iQIXsp+Phi5tx7oPELZASBTPMUeT92yiz0HjiC+dn/WfsL9u/8B1179kdQeBQKsjMQGBLG2kro3B0/ffOxm2wMGY0RE6axYLz87Az2WbA6DFP7XAO5RIGUwmP4+/hvLJ5ArdDgqv5z4C1TMdLw8/5vmSuCRCwUY1zXKUgI7sosFx9seNmd8wFA5x79MPHK6/HpW4tg0LmVDxGE4PAo+AUEsdgCCiw8dfwQFEolbpz3KJZ/8gb02vovtgWL32Xz9AgFaX71/ku46ua7sXfbBpw6dhAxCZ2ZhYXmQ0LxH1Ovuw1RcYnsXhoD3UcSEZOAqdfcwkjJySP7sWnNKlx3+0Lm9ijMy2auCrIg/LPWTYLEUl9EdH0C2sK/UcmOOTZv0qbdPZ1qOPFnFvOlk1+ZFAuZwQPjfZgiKqDTDi56yXu5A+xcLraLjxvqVu6keHNY5LwfqiotKK8+zueZf0OCUPdn0euKOHa80SOkaCm6/viaTBZM2ZwFITBeA1NF7amVQApg/D2zXvwEa7M6uRIpZHKJUC4CmhMJkQgiFikbchsFZtb76QrAyBC1JZaLGamhYEC7xc4UIfnwaUdOPnsPQUjbXsCCNz2Jpyg2Ql/ozldACpIC8HpMiWPWkboR+g1fGaRAI3oHQBPmDbvNicocPSReYpRl6Nn4aV1IoRNpCensy44vWgw2dvST4gLihoUyIkVxBRSbkLwxlxE6iukg451CI0X2niJUVVob5T2h+XjcOXUJAlmDKNiW2j61MbfekEO7+bMxHF6dVo90kQuLAg9TN+fVy5VBRIVwIPcFuYjOJJT8iwIURRIf5CW/DlSTe7rvqngzhoWa8dQuHxh4DMIPW6GEAAAgAElEQVSZoPzPv+cEoY1LcLYJgme4MrmCHVe0WWuDuOReStz1yItY+9M3OHFoT72ZiUQiSGRydmyRTge0ROhsP+2Q6x71O9N9dPLBaql/lFEoEEEkFMLmaHz8SiqSwepo3TlpIgF1x0QEgWIv1lJ+AvL9WlvX3pnm1FHfUy4ETehEWE150Batb7Yb8vfTjt/LT852pHRW37MbVvjI2BE5UkTkdvCc7qNANVL6ZZlapuDoPt8IFRx2B/OT1905UscUc0AxCx7FXHcwFJlfN5SA3BZWo5VZKSgREzt+WX38kc71k7+dLBV03I+UokdIOWbsLGTKsa6QgqZdLSlV8q+T5cNj2aAx0Q6f7jtddkRS0u5TE4Dd4mQkxFRphcxbzIIQRTK3pYJ2x2SVoKC+vEMloCRQTQkdT6RYD1L8Zp0NJanN75xJgdIambVWdo/bvdC4XbIQeLItWo12ZmWgMZO7gcV+uFxsF0+BjBQbQgGmBcfKmWWD1o/68SwEzZMsS5SAikgGuR3cpMTtknNbnGSoKjeh8KT7SGyNsEyObndGQ2EZJZtIqETrX+1pPOPPIbTTPTAbM1h+D6ejdv0pyeWT/XVIqZTgu1OKM7bDL/jvEeAEoY1r8F8RhKaGTbvYMZdfhZ+//gh6XctMgW2c/jlx+8AR4yFTeGHLutXnxHj4INoPAXZEUS5myvdsCylLUvSexE5nu/8LrT+pELgk3ILtRVLorfwEw/mwvpwgtHGVziWC0Map8Ns5AhwBjgBHgCNQa2zq1q1bIzuTKEQKR2HHMnaHbwxEFZkduhRiqQZ2a8fupDlB6NAl5I1zBDgCHAGOwH+EALcgtBF4ThCaBzDAXwo55WnnUoNASakFFkvLYkA4bBwBjgBH4L9EgBOENqLPCULzAIaHyeGtbJxKt42Qn9e35+SZUFXVstoS5/VE+eA5AhyB8x4BThDauIScIHCC0JpHiBOE1qDFr+UIcAT+SwQ4QWgj+pwgcILQmkeIE4TWoMWv5QhwBP5LBDhBaCP6nCBwgtCaR6ghQZDIgkHBtCZ9MoRiJaTyYJgN7gqLXDgCHAGOwH+JACcIbUT/bBIEyqIYm9iFlWGuK5QiuKy4gNVioJoMZ0siYxNQUVYKQzM5F+rGICjVAeg97Eqc3P8XyorcWRZPJyKxFHIvFar0FS1O7HSmNtvje4VSA6fDDovZXRyppUJ1H8JiuuPIoRSUFJVCIBBBHTgKKv9BqCz8E4aK/RBLNKAaDTZrOUpzfoDTUb+kc0v7asl1nc029KoyY4WfypNbqSW3IdJih8bpxBGFlF2vcjjRs8qCbarmE9/IXS4MNJixuc41nSw2dDLbcFwuRajdhp1KRZPjUDlciLLakC2VQOJ0watBEh+HACiWikD/cuEIcATaFwFOENqI59kkCEQMxk2ZBZWPL6LiklBZVgydtgIHd21B8tH9uG3hIlaD4GzJjBvn4dCerUg9cbjJLusSBC9vXyT1HoeTB/+GydAgs1sTd4dEdUW3/pOw5fcPYbW4aw2cCzJqyt3IzzqGU4c3tmo4ci81Jsx6HCu/XIKMUyeg9OmJoLibkZ/8FixV7qJBJAKhFKEJd6NKdxSVhbXFtlrV2RkuJl36TF4peptM+NvHu1mCcEgux9YGiv/1nBIcVEjxTYAP6yXEZscnGYWY1imClYJuSq4tNSDRasKisMCar6dr9ZhRbMSDMUH4OCsPT4cH4ZBCxr6PsdhxY7kW3fQWhDvNcLpEeC48GKN1eozV1y/DXCQW446YcBQ2qOnQnnjxtjgCFysCnCC0ceXPJkGoUSICIeY9+iJ2bFqL/Ts21czgrkdewPaNa+Hj64eCnEyknTzC0qlS/QKSoNAIVkjo2IFdMFUZWdrW7n0GITgsEmXFhTi8dztL30wFa2ITuiAiNoGlck47eRjFBe6SsZStkYo5UdnkxO69sXvLX0g93jxB8PVVISK+N8RiKWxWMzKTd7F2JFIFohMHMOXv4xeGyrI85KTug1SuRHSn/ggITYBvYBRSj26CxWRAbtpBOJ12BIUnwj8kltWhyMs4DKOuFCKRBLFdhsBmNcHbJwgGbTGyT+1jlofgiCSIxDL4+IXAYbchJ20/TEYtQiK7oMpQAV1FIcQSOUKju7H+qU9NQASrtSBTqJCXfgja8nwEhiVA4x+Brv0noSjnBLOClBVlobw4k80lIr4PiATpKwqRl3mY9SUUihER3wtq3zBYzHp0HzAZX7yzCEUFBQiMupYVaSrL/anREyj3jkdQ9GxkH3u23neDg63wlzuwNluBJrLhtvhJ7m+04P6iMqxVq057zwmFDPuUbksBSbzFjhVpWVgYGQZpdZpemRO4s7gUq3x9kVudztgGITaq3VYupcOFX1Jz8HRYEHaoai1fHoJwQ6cQ9KiyobfRiu8ClLALgHCrA2O1VYizWpiF4onIQJgFAryZU4wv/f1wROE+GUMHaNemZGJ2bCQKpPw4bYsfAH4hR6CFCHCC0EKgmrvsXCIIT7z2KY7s3wGT0YheA4dj+cdvoCg/G9fdsRC+/kHYvuEP9Ow/jH32+8qvMGriFUjq3hc7Nq5Bv2FjmJuCKhv6BQTj5vuewP4d/yAwJBwavwB8/eGrrFjRnHseR27GKWgryjBw5His/PL90xIE/wBfxHcbDt+ACEhlSmxc/TaDUuMfjjFXLkRhzgkU5ySj+6DJ7DubxYSE7iMRGt0dDrsVxXkpMFVpkX5sGwJC4zFo3Byc3L8OZGGwmo3Y+feXUGmCMeHqx5GfdRQleano0u9S7N6wDIXZJzB66r3w8vZDyuH1zIJBpOLgtlUYftmdSDm0gbUfHNEFCd2HY9vapeg19ErEdh7CLASagHCQa2TdipcQGd+XkY2oxAHISd0Pi0nP+isrzMCAMTewPrJT96Jb/8uwe/1XKMpNZv+P6TwIKYc2IiZpIBvne4vvhsFoQ0j8XdAWb4RJf7LRoyWRBSI8aQGyjy2u52ZYPEiHbr5WzFkfgAblDFr8FPcwWfFNRjayhV7QippXqp+E+GKzqpYcUAcPFZTB2wls8FHi+rLaMtwew4En45pRIMIDUf5sTOO0VbipVIvZ8aF4IrcSKwKUEEKIa0srMU6vR7FQimhHFahs1tUxMUj2qj0WO6XciL4WExaFBrC2iCB8EeCLIwqJmyC4gD85QWjx2vMLOQKtRYAThNYi1uD6c4kg3P3Eq3j/hYdZEZe7Hn2RlWimmAQiCDkZqdi05ifEdOoCqvj42VuLMf+JV3D84G4cP7CbxS8MG3c53n72AcjkXszaQNUSZXI5rrppPpa9/zKrVDhr7j1477mHYLNZcf0dD2LXlnWnJQiePAhd+k2ERCLH4Z2/MATDorszZf/Ht4tgtVZh9NT7cGTn/1BamAaKtRh+2V3ITT+ItGNbahAfcMkNqDJWIjftANSaYGY12PzbEmYNGDTuJvz14ytMcQ8ePxdZybvY/Zdd/yx2/vUFyouzmMKWKpQ4uPVHXDrzMfz90+uMhHTuMx7kAji0/WcMuXQuTFU6HNy6Ev7BsRgwZjbWLF/ExuAfHIORU+7GmuWLYa5yK0iyPoy/6mHs3vA1KxndfeDljEAQeRhzxQNIObwJmSd3MJIUkzQIX773PMuDEJowDxWFf8JsSGuCIAQgLGkhco+/AIe9NtbBT+aERAgUmf59mdwHCitwUibDrAotvgz0g75uFabqkVyuM+CIlxy/aLxqxtbdZMPSzBwsDgjDmkA5gq0OuAQuFEtqFbrK6UJ/vRlb1ApmCZC5gFdzivCtry8C7XbcU1KKd4ICMbjKCLXDjh5VZjwbHsRIQrFMhEqq5gOgl9GCucVaFpugcdpxUirHR8H+mK7VMfeDufo6utbXZsOCyGAUcxdDG99k/HaOQGMEOEFo41NxLhGE2x98Dp+8/hSb0a0LnsXmdauRduIwIwgpxw5h1z9/1pvtfc+8yawCdoe71DC5Ez557Sn4BYbgutsXMKLByiy7gGXvvwSlSo3pN9yBdxYvZNfPmDMfh/ZsaRFBGDhmNopyTyIrxV1lMq7LUMR1HYa/V70GoVDELADrVr7CFLZU5oVRU+7BgW2rUFqQWjPmCVc/AZnCu6bkLSnhvZuWI6H7KHTqMRJrvnuu3vwooJCU9IZf3oLJWDfltgCTrn2y5noiIwVZR9jYRl4+D8mHNzDXQkhUN3TpMw4bV7/D2g2P64U+w2fit2VP1vRD7gjqw25zV5Akt8aOdZ8z98UlV9yPLX98DF15ProPnAKhSIjff/yeEYSQhLtYqWeT4VSzBCHn2PNwOoxtfEIb304776UZBehlNjYZNyB2Ac+GhdUQhGCrE6tTM2ESifCqXzAjCFeWVSHYacWHgZqaDkZXmDFHW4Y7osNgFQjQW2/H5zmZcAoEEDmB62OicFzp3v2P1FXhsaJiXBkfDacA0DhckLlcyJaIGLEgsnFbSQV8HQ68GhIAnRBwUC3nJoTub1yXsN1h4w1yBC46BDhBaOOSn88EYf7jL2PXP+uwd9sGKFU+8AsIYpYGshhQDMO29b9B4aXEnY+8yAgClVSeNfdevPf8g4xMXH/nQ9i1+c8agkDBk9HxSUg5dpCVfK4bpDjuqoexZ+O30Ja5Yxl6DJ4KKgN9aMfPLIZg/MxHsPb759l3CqUPxlyxAOtWvsziCjwy8dqnsPGXt5mVgHbzZE0wGSrRc/A0KNX+TDHXleDIzug5aBr++fW9eoGO5A4YNvE2ZnGQSOWYcM1T2LPha1SU5jBlv/ef71BakIaeQ65gJxaO7v6NNRvfbQTCY3syq4VHIuL6ICymB3NpUFtqv1BUluTC2ycAo6bey6wNNIcRl89D5sld2L55KyMIgdE3wGYpbjIQUeYViZC425F19GmiHDV9xaodCFc6sLNQCnsbNKKHIHzj7w99Ezr3Mp0Bh7xrLQhD9WbE2GxIsFiwR+zNCEKIzYGn88owLyaoZnwPF5QzV8HLoX7sM/p/oNWJrmYrxusMeDwiAH2qLBigM6OnxYQhRgOOyZQwi4TQCQT420eFtRr3aQga40+ncqFyOvBwZDBSFDK8nFXU5K/1T5UaqwNqrR1t/Enz2zkCHIFqBDhBaOOjcD4ThOFjL0fX3oOwf+cmdO01EDa7Fd998iZGTZiG+M49sGfbBnTu0RcRMZ0YQSC3wux5j6A4PxuVFWXoO2Q0Vi37oIYgjJ50JQaPnoiVX7zHAiRjY/3Qf/gkhnBs16HMNWDUleHUkU0YcMn1bJeek3YAvkHR6DloKlPkboKgwZjpD6C0IJ3t/I/tWwuHzYIx0xegsiwfdmsVYrsMY4SgOD8Fg8fdxBR66tHN9VaTYg7I/bDl9w9Y8KVHiJBMuu4ZZCbvZLEQCm8NNq1+lyn4cTMegra8ABUlOYhO7I/Nv39YQ2ooNqJL34nISdsLfUUR0o5vYwGWwy+/EykH17NAR5FIii1/fAS5whujpt6DkvxUFlwZ3Wkg1ny3GMnJ+Ywg0PHGgMhZyDn+AuzW8pqxCQRiBMbcAIdNj7LcVfXm81AfPXykwJO7Th9ceKZHmpTvI7kV6G80IcxpRqqosXL9OMwXW1TuUwUeebKwFPtEboLg5XTi84wCzIkLh0UAkNXhy8xcfOnnh799atsLsjmwIjUXd8aGIV8iwrRyI8KcNqSJ5Li7tAjXx0ahSCrEaJ0ZG9UKdlyROMusMgMmlxuQrhQjxOLAwqggCKvJzJxiHRJNVjwR7Y5NsAgEbAxcOAIcgfZFgBOENuL5XxAEeoUm9eiDksI8lJfU7qo6deuNU8cOshl16toLRfk50GsrEJvYFbrKcpQWFdSbLbkQOnXtzQIRK8tLcOr4IbbzJ7dDYvc+7DhlXnY6lEoV0lOOwWI2ISQ8CpFxiTCbqthJhsK8bNYHSUBwKDvhQHENVQY9Iwg0jrpCQYgUmEinAipKc1mgoZfKD0pvX5QUuP3xlDMgIDSOnQqgDXR2qvtEgsonCGQVoM/KS+gEAR0PdLGTDQZtCTPr1xW/wGiIJBKmpBsKnYSgoEdLlR55mUdgs1RBExCJviNnIfnAX1Cq/FncQllRZk0eBjphQX1RjAT1Re3SWCl40cc/nJGZ4txkmE169nlgWDxrk8iEUCRGQfYxZGXrGUEQCmXwC58GmTIa5fm/waQ7AZFEhYDIayCW+qIw7WM4bNp6w/5wVCVe3qdClqHtEfsxVjsW5xXDBQE2qZSN8Nmh9MLJ6tMCTREEIhlv5hRihcYX29QyBNod+CwjHzfGRqBSXKutP8gqRLjZgVy5EA6BCB8HanCsOofCj6fy8UKYP8LtdlxeacCDEUEwigSIM9vxek4RVmnUSLBbsNFbiTyxhFkayA0xs0yPOLMVr4T7wyEQoEAihJUThDa+yfjtHIHGCHCC0Man4r8hCG0c9Fm6/Xwr1hSTNJi5LvZt/r7DEKqfSVEApaYnhGIv6Et3MGLg5dMD+tLtcLnccSEeCfNy4tZuBjy/Vw1nG9wLSocTgw0W3FtcCn+HA7/4qlBQJ8CPXAdTyw1YGBWCvcrmLQg0rnsLKiATuPBaiB+6m6y4pbQSD0TWuhzomgUFWuRJBdiuVCKnQWXPu4oq0clqQ2eTGXdFh8IoFKJcIsRtRTqcVEihtjtqTjGQ/n8vuwCxVit87E5InS6USEXsnkfDQ5Auc8c2cOEIcATaDwFOENqIJScIzQN4vhEEshoIhCKWR6Gj5N/WYlCIXfASu1Bm/vcnGGhOlANhaoUey/3VCLI7MKe0EnuUXvjRT4UJlQZM1hnwqZ8Gm3y8GmUnrOtioLYoV8Gkyio8GB2A+UWVyJZJ8KumsTWCrvW3OTFWb0S2WIKdajm8HS48WFCG6Votro2LRKpcgg8zivAAuRIAZkmYWFFV75gjBS8K4MLcahfDo3VcDG3gTB211LxdjsB5jwAnCG1cQk4QLhyC0MZHoUW3/1uC0KLGW3ARJTiSOwGZ0wmly4l4sx3P5hXBIXRB7BTg9ZAAHFXIUCUSwAL3jt6jfD0EoUriQlejtV5v0w06bJUrUSJ2uz/+8FNCJxViTokOXU0WBNutyJDIsCJADW+nEzcXV7BrhQIBtAIRjirlGG7U477IUHZEkqRuHoT+RjPE1SO5rMKIKKsdHwW7szlaIcT+BtaOFkDBL+EIcATOgAAnCG18RDhB4AShNY/Qf00QZpXrcV15JSxOEQoUEqSLpdirkiJfImZxBIP0ZiRarQiz2GEUAXdHh0AvclstPAQhTyVEtLW+C6QhBrsVMliFAlaDIVMqRqlEhDKxCCMMZkzS6rHSV40jChkLdry3qBLDdVW4PzoYJ6uTIDUkCPPzdJDB2STUBqEQn4SqW7MM/FqOAEegBQhwgtACkPglHIELBQEK8qM9flUTCZIazpFoAVkPPBYEX4cLFmHL7m0PvGicFAzJAxDbA03eBkeg9QhwgtB6zPgdHAGOAEeAI8ARuOAR4AThgl9iPkGOAEeAI8AR4Ai0HgFOEFqPGb+DI8AR4AhwBDgCFzwCnCC04xJXJMVCFxEK3+R0qHML27Fl3hRHgCPAEeAIcATOLgKcILQj3k6xCGXRESjv2xVJK9e0Y8u8KY4AR4AjwBHgCJxdBDhBaGe8XQIBTsychK4r/mjnlnlzHAGOAEeAI8AROHsIcILQzli7hEKkzbgUCSvXtnPLvDmOAEeAI8AR4AicPQQ4QWhvrAUCJM+cBP/DJyG1WKHOyG3vHnh7HAGOAEeAI8AR6HAEOEHoAIgzLxsNs78GApMZST9yS0IHQMyb5AhwBDgCHIEORoAThHYGmFwMqTMnImHFGghcvIRMO8PLm+MIcAQ4AhyBs4QAJwjtDDQFKabMnIQkHqTYzsjy5jgCHAGOAEfgbCLACUI7o+2QiHFyxgR0+/73dm6ZN8cR4AhwBDgCHIGzhwAnCO2IdVGXeJQP6AlVRg4ituxtx5Z5UxwBjgBHgCPAETi7CHCC0I54W5UKOGRSSHVGiOynL4fbjt3ypjgCHAGOAEeAI9DuCHCC0O6Q8gY5AhwBjgBHgCNw/iPACcL5v4Z8BhwBjgBHgCPAEWh3BC5ogiASK+GwG9sdNN4gR4AjwBHgCHAELnQELmiCcKEvHp8fR4AjwBHgCHAEOgoBThA6ClneLkeAI8AR4AhwBM5jBDhBOI8Xjw+dI8AR4AhwBDgCHYXARUMQxFI/CIVSWM1FAHgK5I56oHi7HAGOAEeAI3BhIHDREAT/iKugCR4DXekOlGR9w0nChfH88llwBDgCHAGOQAchcNEQBEAApaYn/MOnIy/5dTjshg6ClDfLEeAIcAQ4AhyB8x+Bi4ggAHLvOARFz64mCPz44/n/+PIZcAQ4AhwBjkBHIXBREQSFKgmBUVcjL/kNnh+ho54o3i5HgCPAEeAIXBAIXFQEQSCUIbLrE7BZSmA15aGiYA2cDtMFsZB8EhwBjgBHgCPAEWhPBC4qgiCRBSIk/k5oizfCZi2F2ZAGl9PWnnjytjgCHAGOAEeAI3BBIHBREQSFqjMCImeyGARuObggnl8+CY4AR4AjwBHoIAQuKoIg84pBcOxN/BRDBz1MvFmOAEeAI8ARuHAQuGgIgliigbffQKj8ByE/5U0epHjhPMN8JhwBjgBHgCPQAQhcNARBHTgKXj7doC3aAJM+mSdK6oCHiTfJEeAIcAQ4AhcOAhcNQbhwlozPhCPAEeAIcAQ4Ah2PACcIHY8x74EjwBHgCHAEOALnHQKcIJx3S8YHzBHgCHAEOAIcgY5H4D8jCBCIAJej42fIe+AIcAQ4AhwBjgBHoNUI/HcEodVD5TdwBDgCHAGOAEeAI3C2EOAE4WwhzfvhCHAEOAIcAY7AeYQAJwjn0WLxoXIEOAIcAY4AR+BsIXBOEISy3jMhNGmhSd0EgcNaM3exyIVLeumx8ZAKdofgbGHC++EIcAQ4AhwBjsBFj8A5QRAqu16Giq6TIbLoEPXro/UIwiOz8hEfasGib8KRVSy76BeMA8AR4AhwBDgCHIGzgcA5QRBoorqEUcgd+wi6fnxZo3k/OzsPdrsAz38XVu87j03BdTaQ4n1wBDgCHAGOAEfgIkLgnCEIlUnjUTz4FiR+dU0j+IM0diyZn4mrX0yAsw4bGBNhQRdfGz455g2b8yJaNT5VjgBHgCPAEeAIdDAC5wxB0CaMRsGYhxH//VwInA6IDaU19RK85U58cl8G7v0wFqU6YQ0kd3Y3oo+/FQ/t0EBn5TEKHfys8OY5AhwBjgBH4CJC4JwhCDZ1GNKu/woCuxVCqwEJy+dAYDOzpVDKnfj43gwsXBqLoopagiAXuSATAVpODi6iR5ZPlSPAEeAIcATOBgLnDEHQdhqD/LGPoPPSKfVOMhAI3gqyIKRj/pJ4VOi5peBsPBi8D44AR4AjwBG4uBE4ZwgCxSAUDb4NSV/NarQi/mo7Pr43HTNfSISrTgxCvI8DPf1t+D1TDiuPQbi4n2Q+e44AR4AjwBFoVwTOGYKgTRyH3EsWoFuDUwxkPXh0ViEqDEK8sSqk3uTv7mmEv8yJRXtU7QoKb4wjwBHgCHAEOAIXOwLnBEEoHj4fFZ0nQFF8ElH/e7hmTSRiF5bMz4BSDtz/URRKtOJ66/Xx6Eq8ddAbJyvrf36xLyqfP0eAI8AR4AhwBNqKwDlBEMr7zILQboP65BoIqwMTaWKUSXFsbz02HlbBaqsfexCkcOK2rka8fdgbxgbftRUUfj9HgCPAEeAIcAQudgTOCYLwbxZBJAAkQhfMPAXzv4GP38MR4AhwBDgCHIHTInDeEgS+rhwBjgBHgCPAEeAIdBwCnCB0HLa8ZY4AR4AjwBHgCJy3CHCCcN4uHR84R4AjwBHgCHAEOg4BThA6DlveMkeAI8AR4AhwBM5bBDhBOG+Xjg+cI8AR4AhwBDgCHYcAJwgdh22HtywUAFKJE2aruz6FVOyC1c5TUXc48LwDjgBHgCNwESDACcJ5usgSkQtzJ5QgKcKEBZ9Es1ksmp2PU3lSrNziDwvPDXGeriwfNkeAI8ARODcQ+D975wEdVdHF8f/2bHbTe28kJPTeEaQXkSJNRUBAiggqCooNUVD0U0FBUakC0nsH6b33AAkhvfe6u9n6nTshZSEkoQmGmXM4wL735s38Zt6b/9x7580zIxDcPH3h6umDi6cOl5AJrFUfNULqYdeG5f8arWHvTMVf87596PtZKpQIqd8U508cfOg8ii/0CagJqcwCt65fNsuLPiA1/Y042FsZ8MUy+sKkiB2v5a3BjOEx2HTcCcv32z/y/XkGnAAnwAlwAs8vgWdGINRr0hq1GzXHqj9/KmmNkHpNEFyvCbatWQSRSIJCjcqspQQCIZTWNijIy4HRWLpbk1gsgcLKGnm52TAaDGbXKJTWKNSoodfrzH63VFpBXZCPMZNn4PfvP620RwiEQiiUVlDl55nd28nVE137voYV87+/Jw8LuSWEQiFUBfn3HGN5FeTDVGY3qlYdekBuqcT+7WvNzq/jq8asEbF4e54fYlOlZscC3LSYOTwGw36oYWZFYO4I/mGpStuVn8AJcAKcACdQROCpCwRbeycMGD4e1rb2EEukbJCmtOjnr+DtF4T23fuyQVOusML1S6exb+tayORyDH37I6gK8qC0toNep8WaRT8jJysDzm6e6PP6aIglEhTk52HTsvnIzcmC0soGfYaMgb2jM4RCEY7s3cKsFTQAvzJsHOwdXZGTnQErGzvM/frDCvuHl18guweVSyKVYteGFbh55RxeHT0JLm6ekMkVUOfnwQQT/vjf50yMtO/WD3UaNWe7UUbfuo5dG5dDr9Nh6PiPWT1c3L2ZtWDdkrlITYrHyHc/h8LaBgKBAIVqNXKzM7F03jesXN2b5KB9/Xx8tMjjnnKS62HO2Ggs3uuG87csSo538SrEqFp5mHrSDrdziywOPHECnAAnwAlwAvcj8NQFgtQUHkAAACAASURBVFAkgpW1LTPLB9VqwKwFlGiwr1mnEdp07oV1i+fC1sEJfd8Yi+W/zWIz7WHjp+LKueO4fPYYXujSGzqdFvu3r8P4qbNw7vgBdqx1x55wdHbHyj9/hG+NELj7+CH0wml4+dZAyw492CyfBvtu/YZgxfz/QSSRsAH7x8/eqbDHdO37OmikP3FwF1w8vCERS3Dz6nkorW2ZQGnb5WVs+ftPlkd2ZjqsbR3QumMPXCD3icmEAW9OxPY1ixF16zrIpUEuhKvnT6DViz0hloixc/0y2Ng5oHGrFyGTW+LkgZ0wGA3IzcpkeQ58IRseDmrM3uR2TznFIuC7kXHYftoKBy/blhz3szaghYsWO2IskKvlgYz8lcAJcAKcACdQMYGnLhCKi3dfF0P9Jti0/Hd22ocz5uHv339gM30SCDvW/4XY22Hw9KkBdx9/XD13HBO/+BFhVy8wgeHi5gV7Z1f89u3HIBdCcN0msLK1hVyugF9QLSybNwu+QbXQoFkbli+lsVNmVupiaND8BbTt3Au3b15FfMxtRIWFMncGpfJcDOTyCAiuWyQmJBLUb9oGuzauwI3LZ5lA2LnuL6SlJMLJ1QMUd0ACh9L9XAwD22XD3U6NOZvvFQgiEfB9OQKBPwicACfACXACnMCDEHj2BUK9Jti04j4CYd1SxEaGl9RXbqlgAmHPppVIiotivxsMeqSnJKHvkDHQqFW4cPIQcyN07j34oQWCSCyGnb0TPP0C0fyFzkhOiMW21YtYLEJ5AqFRy3Zo3q4rdqz7C0a9Hr1fH40DO9aXCIQd65ayMt6d7icQujXJQYuQAny53L0cC4IJP42OwdJ/XHEhotTF8CCdgp/LCXACnAAnwAk8MwKhTqMWbMa8ZeUCGAwGpKckojhIsaoCgdwVY6fMwNXzJ3Hl7HEEhNSDVCrDqUO7MeLdz3Dl/EmEXTmPoDoN0eyFzkwguHv7oXv/oVizcA4kUhkGj3oPP9xxMZD/v2mbTvD2D8KuDctYTAOlRi3bs0DHxLgo1KrfFD41grF64RwWEGltZ49XR72PzX8vgF6vRUZqMtp16wv/mrWxcdl8WNvaod/Qt7F386pKBUKTNh3hGxCMI3s2Q1tYiOysdHb/hjUK8MXrCRg12x8ZuWKzXuxqr8OcMTEY/XMAclWlroQgWwMGB6ow/6oCaZqi7ybwxAlwApwAJ8AJ3I/AMyMQbO0dMXDERDa7p/Tj5xMQXLcxi024n0DYvnYp4qJKLQh0HeUzaNR7sLRUsgF947LfkJ6aBL+g2nh58EiWd8ztm3Dz8mUCgSwMrwwdDzcvH2RlpLGgxXkzJ7PzSCD0HDAc/sF18Nfcb5jbgpJvYAh6v/YWREIRhCIhW4YZevFMyTX9h42Hd0BNJiLmzZzCAjBJeNAKCnKPUHzB7o1/M4FAMQ871i5FRlryPW1ELAaPepfFMCTERmL1gtnsHAupCX9MjEJsmhTTV3hAf2fLazsrA2aPjsWVKDl+2uhqlt/rQWoE2erw5RlrmPjzwAlwApwAJ8AJVELgmREIj7OlyOcvVyiYQCi7zJEsBFKp9J7lhHRv+n6BWlVgtsyQfqdlibS6QluoMSsirYSwVCpZXncvpSyvLpSPXKGERlXALCSPmmwUBrzXNwWONjpM+LXoQ0nfjohHdr4If+xwRnaB+UqF71vmYk2EHOfTJI96a349J8AJcAKcwHNAoFoKhOeg3VgVRUIT+7yy+s6nlmWSok8tl/mUAjtPIjShf4AGW6MtUMC/sPi8dA9eT06AE+AEHokAFwiPhI9fzAlwApwAJ8AJVE8CXCBUz3blteIEOAFOgBPgBB6JABcIj4SPX8wJcAKcACfACVRPAlwgVM925bXiBDgBToAT4AQeiQAXCI+Ej1/MCXACnAAnwAlUTwJcIFTPduW14gQ4AU6AE+AEHokAFwiPhI9fzAlwApwAJ8AJVE8CXCBUz3blteIEOAFOgBPgBB6JABcIj4SPX8wJcAKcACfACVRPAlwgVM925bXiBDgBToAT4AQeiQAXCI+Ej1/MCXACnAAnwAlUTwJcIFTPduW14gQ4AU6AE+AEHokAFwiPhI9fzAlwApwAJ8AJVE8CXCBUz3blteIEOAFOgBPgBB6JABcIj4SPX8wJcAKcACfACVRPAlwgVM925bXiBDgBToAT4AQeiQAXCI+Ej1/MCXACnAAnwAlUTwJcIFTPduW14gQ4AU6AE+AEHokAFwiPhI9fzAlwApwAJ8AJVE8CXCBUz3blteIEOAFOgBPgBB6JABcIj4SPX8wJcAKcACfACVRPAlwgVM925bXiBDgBToAT4AQeiQAXCI+Ej1/MCXACnAAnwAlUTwJcIFTPduW14gQ4AU6AE+AEHokAFwiPhO/xXexsq0f3Jlk4E2aNG3Gy0oxlQphqyCFUG2GKVENgL4ExxBKCK/lAnuHxFaCcnEwiCXICO0LtXBNO5/+GuCD9id6PZ84JcAKcACfw7BB4bgRCv6HjIBKKzMgf2bsZEokMwfUaY9+2tf9Kq0ikUnR8aSCunjuBhNhIdk8bhQk/j43ChQgllu1zQHbBnXKKBTD2doRJKYJoWwaQqQOkAqCdHfRBcohXpwIZuidWbrVHA8R3mw7XIz9DEXUCQr3mid2LZ8wJcAKcACfwbBF4pgSCWAgYTUV/yibJnd8Nd/3+IChbdegBgUCIJm06IPzqReTmZOLq+ZNw9/JDm869sHjO1xCKRNDrtPdkK5XKoNNpYTKVFkAgEIAGe53W/He6WCKRQm/Qw2Q0mtdDKoNYLMawCZ/g4I4NCLt2AUIB8N3IOGTnizBztbv5vQPkMHa2h2hxEkzaMnmJBDD1c4JJb4JwcxrwkFwcnd2QlZEKg6F8S0RBjReRFdINnts+ehDU/FxOgBPgBDiBakDgmRAIb9cpAIkDf2sdCvQCzLlkjTSNAAIA3X0K0cNHBbVegMU3rHAjS4SBAWqcS5PAVmZEU2c91t22wAcN8jD9jA3KjqPltc/oD7/C9rVLkBgbxQ4H122Mdt36ID83G9a2Djh9ZC8unDzEjg17Zyry83Lh7OaBjLRkbFu1GGpVPpTWNug5YDgcnFyRnpqErasWQqNWMcHQ+eXB8AkIhk5XiH1b1yI64gbLq/kLXdCwRTvk5mSx/HatX84EgpONASs/DseUhd64eFthVmRTf2fgthqCi3n3VkUhhGGYG0QLEgHdwymEMZNnICM1CXu3rEJuduY991C710da63HwXje2GnR1XgVOgBPgBDiBByHwTAiE6c1yIRWZsCJMgfYehfCxMmDKCWt4KIxs4F9yUwE3SwP61yjAp6ds0dKlSEiQQOjqpcF3F5WYULcA7x2zqbTu5QmE3q+9hZ0bljFB8kLXPpg3cwrLZ8o3v+Hm1Qu4fOYYExE0mO5Y9xcTB3QyWSBavdgDOVkZ2L1xOYJqNwRZKk4e3AV7JxeE1G+CRbO/grObJ94Y9xEO7FzHrBgdXxqArasWMYHg46zBkg8iMfzHIMSmis0Fwgh34Fg2BOGqcutlHO8J4cJEoNDcUnH3ySKxGGKx5M7PJmgLC5k1xMbeAc3adkZgrQaIDLuKK2dPICk+GlqFI/TW7ijwbgqtnRfcd02rlCs/gRPgBDgBTqB6EXhmBEJophRrIyzQyEmHTxrnoP9uR3Tw0KKVmxa7YywgEABja+dh1gUryMUmNHTUwwgTXnDXYEWYFeo6aDHvqvkM/EEsCH/873N2+tgpM0D/pgH0wxlzsfnvBYi4cYXN/v2DamPj8vkY9cGXuHL2OBMGbp4+cPPyw+qFc0BuB1cPbyiU1pDKLNChZ3/88vWHRVaK7n2x9JeZ7Jw33/0MB7avZwLB10WNxZOiMOyHIMSlmQsEjHKH6XA2BLceTSA0bdsJrTv2ZPVTqwqw8vcfkJebzf5P5bGQW6Jdt74IqdcEv307FYmBnZHaehwgt4HHzi9gHb6vevV6XhtOgBPgBDiBSgk8MwLhSoYUG25boKGjDp82KRIInTy16OajwtUMKauI3gjsibOAlcSEV/zV0BgEsBQDuVoBonJF2FM2+v8+VS/PgkAxCAt/+pJdMWby1/jzhy+KBMLXc7FxxR+IDLtmltvoyV8jKS6KDbaUMtNScPH0EbRo1xV1G7dE1K3rEApFLPjx5+mTEFKvMbNMkEAgpTPi3c9xYEeRQPB01OKvD29j1JwARCUX1bM4mYa6AqdzIQirQCCQi6ESv4rSxha2do4sW6NBj5TEeBgMeiYOfGoEo16TVrB3ckXY1Qs4fXgvjMaimITcgBeQ06A/vDZMrLQj8RM4AU6AE+AEqheBZ1ogNHfRoY1bIX68pGTBfC+6a3EmVcIsCB80yEd2IXAlQ4KX/Qrx7XkrROeZr1Ior6keh0AYPuFTHNyxHjGRYXB0cYOdgzOzMgx4cwKunDuOm1fOw1JpjVGTpuGXrz5AQM066NZvCJbO+xZCoQDD3vkE/2xZzQSCldyEjV/cxMzVnjh02cqsyMZu9hAWGICjOfdUReghg66HA0RLkgD9w8UgDH3nYzg4uuLgrvW4ev40DHrzFRFq76ZIazoU3hsmVK9ez2vDCXACnAAnUCmBZ0IgfNksD1czJPdYEGQiYHLDPNDqBYXYhBytEL9dU7BYgW9a5OByuhTHkmT4rEkOxh+xY5aEytK9AqER2nR+uVwLwgdfz8WmciwINe8ENmalpcDJ1QOnDu3GhVNH0KxNR7Ro3xWxUbdgqbCCk5sHsyCQCZ/Eg1AoRGGhBt5+gdiycgHCrl1kxR3WKR2tauVh6hJvZJYVOU5SGF51hmhrOhCjKV2tYCOG4XUXCEMLIDiS/dCrGOo3bcOsI8XuhrvZFQS8gMx6/eC16b3KsPLjnAAnwAlwAtWMwDMhECpjam9hglongPrJfheosmKYHRdLJLCxdWDLBI1lljPSSgallS37vWwic76NnSNUBXnQFt77PYGpgxLRrXE23v3DH5duW5Re2tgK+u4OkGxPh+lSPoQOEmhHu0MUoYZgfepDi4OqVLbQ3gdRry+HOCsGvlsnQ5ybXJXL+DmcACfACXAC1YDAf0IgVAPOlVZBKjGhjo8aCelSpGTfFazoJIHACJgydBBYCmFykgJxGqDixQuV3rPSEwRCaJxqQGfjAUXsWQgL8yu9hJ/ACXACnAAnUD0IcIFQPdqR14IT4AQ4AU6AE3isBLhAeKw4eWacACfACXACnED1IPD0BIJIAhie3D4C1aN5eC04AU6AE+AEOIGnQ+CpCQSDnS9EWdFPp9b8rpwAJ8AJcAKcACdQIQEuEHgH4QQ4AU6AE+AEOIF7CHCBwDsFJ8AJcAKcACfACXCBwPtA9SAgkAlhou9iaZ70Ws/qwYvX4vkiYBKKobN2hTQnkVVcb2kHsSoLMFX/58UokcMkkkKkyYFRqoBRJIVYTXvP3PXFWaUIoC/VPtyHaJ+LDvXcWRBoN0XqEbTXAk8PR8DByQX+NWvj3PFDMD2NF463BfQvOUJ8Ogc4X85W2A9XLX4VJ1BtCCR2+Qz5fq0RuKQ/e0bjev8ISV4qXA5+D5G2/L1dqkPlNa61EN91GuyvbYP9+RXIC3gBye0nwfnwz7CJOGhWReNYdwhvqYEDJJyqQ+0ffx2eG4FgqbRCj/7DYOfoDIlEgjNH/sGFk4fMvoL4IHgbt3qRbXh06fTRB7nsiZ9rLbdFoEsIzkeffGL3atCsDZq364qVf/6IvJyiXSErSl5+gfCtEYITB3bAYCj6HObwCZ+wHS9pK+r5sz6pLIvS4/SZ6SEuEJ3MBS7ng77DLRQJUK9PAG4fTYRXQyfEX05DbrIKVs6WCGjrDp1aD5PRhKz4fCRfz2T/ftqpdndf3Ngbg1pdfRC6O+axl2nU+9MgFImgUFpBVZDPBPHKP39CcN1GqBFSj+0++m8keu7emvQlNiybj/joiH/jlo/9Hr41guFfsw7bYK040U6txJE+o67X66HXaXHzyjm2BfyQcVOwZtHPSE2Kf+xlKS9D2n5eo1Fh/7a1MIkkSOw2DTpLR3jungZxXgq7RGvvi/gun8MiORTuh356YuWi7e6vXzqL7My0knuM//Q7xN4Ox7bVi9C0TUd4B9TEhr9+e+xlMMiUiBm8CMqwf+B4fiWEOhUgECI3sAMSX/wQHnu+hFX0qdL7OkthGOAE4bUCCA5X/h577AX+D2T43AiExq1fhI9/MHZtWA5nNw/QQ/XXr7NQkHfvRkhl201mIYeFpQK52TSwlJrner82CjqtFjvXL7unmW3sHNhOj2U/qUyWC5lcDq1GDblCiYK83Cp1D5nYguwd0OoLq3R+bY+G8LLzxe5rm6p0Pp1kZWvHylWoMf8EtFgsgdxScc9eDSKRGPRJaY367pmIANa29lDl50JfZuMn2i2yQbO2WLngJ+h1RUtbaa8K2sJ72IRP2BbTdyehSAyllQ3ycrLMrBSm/s4waQwQ7sgoUf30Gesmr9XEzX2x8G7ijPiLachJLIC1myW8G7kg/FA8JBYiBHfyRtiBOOSnqStlI5aKYDQYYaSNQKqQqC5CsRAGXdVMuHVf9kfozmjUfckPlzffrsIdACsbO0hlcmSkFpmNK0o0MJMHZug7U7FuyVyoC/KZUGj+QhfUrNcIaxb+DJFYck//J5bUhsS97CfESchZWduZvfjp/sXn5+flmm32Rb/b2juxnUHHTJnBBEns7bDKig2ltS3Lp3in1EovAFg/0eoKob2r/0plMoglUqjyza1MVta2rK9rteb9XSQSwdrWAdmZ6WZ97oUuveHh449VC2aXFIeEAZ3/yrDxOHf8AGIibrD3gYunD1576338NmsqxGLpPZ9cpwxKnxF9SX60+6vSuri/l+1z1B527P1zd6J8CtVqDHl7Cm5cPosTB3ZC7V4XUYMXw3/ZYFikm/crra0Xogf9iYCVwyG6Ixwq4kvPuZWNLXKyMu+xFLJ2MuhZvyqbXhs9CQd3bkRSfOkKNdrThvra3K8/RIPmbeAXVBsr//ix5DKqX0F+Hgz6Uh7Uf2gCodMWsj6vURftnEvJwsISMktL5GZlmFmCU1uPRaGdD7x2fAKUtRALBEhtNRYF3k3hu24cBGXepQJb2tfGFcL5CUCZiQNtDigTmaDWV76/T1X66H/1nOdGIDRq2R616jfFxhW/sxcGbbKUmZaM1h17wt0nAKvvPPyk/s8e/YdtpNSt7+vwqRGCQo2KdVLaYIleXr1fewskAmhWRg9uckIsdm1cDlt7R/R7Yxzr1CQGLp46grNH96Hzy4PZDIReWOkpiXBx98ah3Ztw6fSR+/YbpYU1OtXqBYVUCalEhvCkUByP2A+lzAoDm47AqtMLoNap8FqL0QhPDsXF2FMY3HwU7BWOKNRpoNIWIC0vBXsqEApvfTCdXvFQq/JZfY7t24bLZ46xgejNiZ+yF6VEKmPHadMq2mzq5cEjWT1pB8tZH48t2Rp66vcLkJoYB51Oy150O9b9hZiImxg+8VMoldZMFGWlpyI/L4flVagpGqTHffyNmQXBxd2L7XaZkhjLZsD0oli3eG6RSBEJoH/XE6K9WRBcM38xNRoQiPCDcfCo74Sk0AxmQSCB4NXQGTf2xkIsFaLOS/6IOByP3JT7m1gDWrtDbieDXmOARC5CSng2UsOy4NPUhW3VHXMmGXJbGer28sOljREw6kyo08sPmlwtJDIxtBods2ToCyveOCSkizfC9schpIsPQndVbbkvDe7u3n6MX1XT2CkzsOy370oGSdqSvFm7LshMTYbC2gZR4dexd/NKlt2kr35BdkYae/GTwNi6ahESYm6jdsPmaN+tL3JzskCD66YVvyMpPgYePgHoOWAY6+80YJ45tg/njx8EieqBb05kIpJtTuYfhL//+KFCgUCWve793mDPCPWVsCsXcGDnembx6/P6aCz5eUZJfzm0axPCQy9i0Ih3mYCl2bO9oyt2b1yOW9cvs2eanveM1GTWV+OibmH7uqWQyy3Rc+BwNsCQKA69eAZH926Bs5sXXh/7ITuPBkQaqP7+/QfGumOvgbB3cIZarYJGVcD64fql80rE09tTZ2HDX78iJTGOlY+2eO81aATLiwQS/U686Dl6/8s5SE2KY9fSM0az6OSEGGbVad3pJegKC9lzuGH5fCTGRoEsb/Suyc/NZtvH0zuFrG2WCiV6DR4FhZUVKys9M9QnqO5ZtXogufU4hCzodU8XId989IDfYXd+OezC9lXYhWiX2v7D32ECkgZ3avdFc76C0WDAS4NGME4kGuNuh2P/9rUICKmHNh1fgp2jC/JyMtlEIDI8FAd3bsC7036CXqvDxdOHmdAoFghUbqofvTMof7Lqnjq8h70vvfwDIbdUMj4e3v7YuWEZIq5fQbMXOqNek9Ylk69tqxeXiLCw4evgeGkdHC6tvaduapdgxPX6Hn6r3oSkIMPsuOEtd4iWJ5vFM70WpMbLviqMOWSPnCpsAljV5/G/dt5zIxBI8Q4d/xFkMgtcOXcCR//ZxjoZveReG/0Blv4yg81aima0H7MHetJXP2PjsvmIDAuFp28NqFR5SEtKYA9Gr4FvQqvTYs+mv5lQoAe1bede7Ly1S+ayh3jo+I/x6zcfo3PvVyFXKJCblQULuQUzJ1Me5VkfijvQC0Fd4GLtjk0X/4aDwgkv1R+IRUfnwM8pCC0D2mPd2aUwwYix7adgb+gWJhLEQjGGtBqHs1HHEJZ0lVkeDMb7D1SjP5yOqPAb7EXcsEU7tO3UC3O+msRmZGSi/nXWx+yFMPqDr7Dp7z/YoCAWieEdEMR2p/zfJ+NLBMIn3y9gIonYkrCytLJmAzttalW3UUvUbdIaaxf/zF4cZa0L9woEbwwZNxmrFvzEBMXrYyczIUWzNIFUCN1ET4i2pEFAvsMyycJaCm2BDmILMRucjXojEwg1O3ihMF8HiYUYmbG5iD6VbDa5uPuBDWjjDpFEiFuHE6B0koP+f2lDBHyaujKLR/QdgVDvZX/2O1kMyBpweVMEaS3UezkAEUcSkJ9esZVCppCgsEAHqVICbX7FHwyjwZcGg/pN2sDRxR37d6xls+W83IqtX1S38gRC83ZdMP+7T9mgTgKOtiSn9OGMeVi3dB5zBfQfNp7N0HZtXIGR70/DllULWHu07fwye3Hv2rCMCW4LuYJtce7m5YuXBr3JBjAaJFu2747VC2ezAY+2RyfrUUUWBBLW1NdoIPcJqIm+Q8bgh8/eQZ1GLRBSvymzglB5abAhMU+inMT85TNHcfH0EXY/EjUkdgaNnIhCTSG2r12MgOC66D/sbfz4+US20ypZpg7v2oSAkLro2HMAls6dyQQC3e+P/33GBquxU2ay3V1J3JCVYPCo93Hy4E7E3A4redaJl4I9J18wSyQJK0okwOo1bc0EDQncUZO+xK/ffARnN0/GgSwpNOgNGvkue6+Q223M5K+xcfnvyEhLZu+iqPBQHNu3HX2GjGHMj+/bhrpN26BOw2ZY/tv3TADVrNOIufhookPlo/ulpyYis25fZNXvi4AVQ+8ZiyhwL7b/r7AO3Qa7a1srHKtoIqBWFzC3Cln/WnXsiUWzp8PR2R2deg3Asl+/Y4J5zIdfYflv3zHhT/Ul0XZ492YkJ5LbzMhciu9+8SNCL51hbsbwaxfg6RfILAj+NetCoVTixuVzcHByRa9XRzLuXXq/yqxd1N75uVmsz2s0atZu4z+ZxVxlxGrwqPeQFBdd4vq5PnYv3I/Ng205ddNbeyBy8J/wW/kmJPnmG+kZhrpCvDUDpuzS59BZbkSwrR5Hk6UVvi/+awP+g5b3uREIBIZUb2CtBmxGRK1OAzmZQOnBJRMdiQh6IdDsl1KPAcPg5RvIVD8NjhdPHSoxw5fnYiAh4FcjBClJcSwfeiB+mvYuEwg0q6IXLs1ejDCymdLOdfe6J+i+QoEQfRq9zgb50MRLcLZyQ7e6fbHsxG9o7t8O7rae2HJxFawsbDCszTtYc3ohUnKTIBFJ8HaHqdh0YQViMyIr7QskEC6fPY7Th/cyLn2HjMbPX33ATHv08C34cRrLI6R+EyRE32YzSEr0Ah/81vvmAuG7P7Hur1/ZLKZdtz7w8gvCivnfs/PLczEUF648gTD4rffw19xvmAXjjXFTEHnrOo7v216hQCivsiQQfJu7Ie5CKqRyMdzrOeLWofgKXQwkCChmIfZ8KsQyEey9rZB6K7tCgVCzo1eJFaBWd1/EnU9FXurjCwSjwaBhixfYbJj6Ec1KaRCnQaSyVJ5AoAF86dxvmOuM4gPmzZzCBr73pv3EXtypyQls1i+VWiDi5hW8PfVb9iKmmS+ZtXOyMrB11UK4efqAtgyXkhtObslm3HO+fJ+VlbZEJ4FI96CXekUuBrr2jbc/wtG9W3Hz6nk2W2bWB40a3V4Zwlw9NPCT5W3oOx9j0eyvmEuMxM3Cn6Yz87Obpy97pogLbel+5uh+nD9xgDGjspw7th/vfPY9G8ipX5EIJkFBHBo2b8sGWnruaZB7+6NvsIAEwh0r19iPZmLxnK/v2YWVnu9u/V7Hsl9nsQGNUvdX3mCDF82G6X0zaOR7bNALqt0QPQYMxR/ff8Zcc9QGVA4y49OzFBUWyoQzPVunDu3BmaP/4K1J07Fq4WxmQSDfvZOLBxPh5NbIyUzHP1tXw9MngIn1X77+kFl+Muv2QVb9VxCw4o1HEggkzMOvXcTZY/vgGxiCXoNHMoHgGxCMF3v2L4knoWNLf5nJ+gSl8lwMJBC2r12Cjr0GITk+mr1nqZ/RwN+oVXv2TqREloL5333CBEJOTiZzQ9I7kywNeq0Wp4/8gzFTvmaWCXLnkCglCxhN0ihdH7MHbsd/LVf86G08EDmoIoGQDlN2qYujsufqeTn+3AgEeoHkZGcwU6tEIsU7n36PpfO+YQq9TuOWTPk7Orth88oFLNioOJFZr0ZwPXR8aQCumtk5XAAAIABJREFUXThVolbLFwiDmU/wyN4tZv3nQQUCWQLIXbDr6iZk5Kegpmtd1HAOxo4r69CrwSAUFObjwI0dcLf1xsBmb+L3g99Do1PDQemEN1qOY0IisyC90j5cJBBO4PThPewF1uf1t/Dz9A8gtbDAoFHvYuGPX5abR3kCYSoJhKXzEHHjCl7o2ocNMI8iEOjFTS/BsgKBZuj6d70g2pcJwbVSn+T9KlrWxUAWheDO3shNKkDiNXMTY9nrSSBo1Xo2yJdNzIIgBKJPJ8PSjlwM/ri4gVwMRpgJhG6+TJA8ToFQXI7H5WKgGIS/5n7LBm82wy0jEP7+40ekJSeY1X305K/ZAEmBeMWJ4lNIRMbHRODwni1wcnHHwBETmdgggRBctzHWVlEgkHmZrG1rF/+CtJREJjgoqlxbqMbI979A6MXTbNCkQZVih+Z9MwVyuQKvvjWJDShlEw0+NKvf/PefiI64WXKIBpsJn/8PK377Hgmx5uK5e78hSEtNYiKCRA9NDJbNm8WsCZTe/vhbFlNwd2rWthNqNWzO8iy2ig0ZOxmHdm1EfMxtZvmo07A5ey5avtgNdRq3woIfvjDLhsRzvaZtmFWkrGXt7vuShSMxLhoXTx7Ca2M+wNmj+xF66TRq1KoPipFYPOcrlm9OcFcktH0Hte7jYogZ8DtsTy+C3e37uzcpHxIdSXFRTIQSd3qHFQsEuicJxPLS/QQCuUBITATXa8IEDwmEgSMnMhfWif07mUAd99E3FQqEU0f2YujbHzGLDcXI3J0ihiyHbeg2OF4sx8XgTC6GWUUuBlruWSYZRrlBtDQZ0Fct3qjSF2s1OuG5EQgUdUxmrFNH9sDJ1RMt2nVhZjLqrKTiKZCKfJ+/zvyIzUjIdEq+RPJ10oygU6+BSIiJZKqdEqlcV08f9gCRny4lKR6NW7ZnPrLta5YwlUzmze1rFldqQXixxyvM1VE8oIqEYjbw3065iZTcBLQO7IRz0ceZG6Frnb5QWljhxK0DaODdDDqDDvuub2Nlcrf1wqBmI7A3dCty1FlIzo6H3likims3aIbm7buxSOLiAYAEAq1COLx7E/PZunv5sZkTlb08gUAzPVcPb7h4+IDKTC90MgtHR9xARQKBfKwdXhrIoqzJh0uziOIAOJqdnTy4C7lZmUVmSqEIZEEoVyDQAtWXHGCSCCHcnFbp0iRmQWjmhthzKSxI0buJC24fT0R2/P23rb6fQLDztoJHXQdEn06BrYcCToF2zK0gFAn/NYFAg669kwsLRqtqKs+C8KACgczhcdERiL51nZn8KTr/2vlTePWt9xEXfQvXLpxmVrmGLdthzrT3inznr45i7glbByf2rJSNQejWbwjzz5MLghKZ6sn9d+HkYWatIzF+ZM8WhIdewhvjJjPL1dlj+/FClz5IS47H/u3r2DLbZm0737Mag0z5ZI1YOHs6E5jFiSwvEz//gQXQpSbHoVGL9mwVU2xkOLMgHtixjv27frM2zHVCfZvM4wqlNRMpZF0gi0LZlRgUf0HWtrIxIWQRo75LwXtd+rzK+ujeLauYpYHOpbiOsokG33Zd+zB3I/n9/YPrYtuqRcxaQeWl3+m6Hv2HYtuaxcwtQYMwWZGuXzqDdt36sud598YVLFuNczAihyyH7+qRsEy8YnYvjXMQYvvMhv/fwyAuM4Go1aApWnfoydw7ZCmi5BcYgu79hzF3h6unL4srIoFAFiQSK7s3rGDWFhI4dO/ioNIBb76DjLQUZhGh9ybFaJEFgcUdFWqY4E+Mi2ICgeoRdes6bl2/gloNmqF2w2bMRXU/C8K+Hesw+oPprC9Q/WklGcUlkFCilNF4CPJ9msNn4wSzepuEIrbUUevgB++N70FgKBW68JLB2MMRwgUUpFh6WXMXHXr6aPD1OStUMe64qo/kf+q850Yg0OBGwU4UI1C0+uAvZg4vTuTvy85IBQVAFacGLV5gwVk0W0pLTmQvDQrYK3qpWWPgmxNYUA69OGnGQisVyLJAAYk0G9i1fjnCrl1A+x6vQCqVIT8nCzJyMRgNbJb+z5YisdG592D4BtYym12EuNdHx5Ce7PjFmFM4FXmYxRNYyazRr8lQWMttEJkWht1XN5XEGZCLoXfD11jsAgUwrj69CCptUXlrN2qOzr0Gs+CrtJSiGSIJBI1azcyrVK9Vf85mAT8kEOglQL7FsonMma8Me5tFhhcnir2YM/19vD9tNrasXsheYOSvpHOJFyWBUIhXho5jVoX0lCT2Ui9e4dGgeVv2gqQ8aaZ4/sRBvDL0beZfpZfLoBETEX07jFk5WJIKYZjgARGtXb5SwJY53i/RMsegDp7ssF6jR2JoBtJuVey3923uCp1Gj4TL91pgKFDRMcAGWpUe4QfiWGyDSCpEYFtP3Nwfy+5DKyVomWVVVkr8G28KCjalJXfFJvAmrTsgsFZ9FpFfZNr/GAt/msZmcCSSKeCO2qhsov4xcMQEFnuQmZ6Kjct+Y+ZxyoeC/khgx0Xego29Q4lbqmvf11G3cUvmrnBwdCmJbaB8yVxN1rolvxQFHlIgatO2ndG200vMr02BvSS86TmhAMHBo99n5ubQC6eZiZ0Smdypn1IQXNnk5R/EhD3FEd2dSMR06T0YAqGIiQOa6Rc/B7QMk4Ia6VmkYNw9m4oCNymRZYRET2pyPJaT771Mn06IiWLxCZTIMkkxTPTckJgga8KNK+dw4dRhFtxLgy3F6JRN9Gz0H/o2fGoEIz83h8X6pCQU9aUufV9DvcatmMWD3AsblxctFaVnpuNLA5mrIjM9BTcuncWlM6XLrWN6fQeDtRu8N06EWE393QStjUdR/EHYP3A+9qtZGRiXPq+xPkHivTiRNcXFw5sJpfbd+zGBoC4oQNsuvdC0TSd22skDu3Dy8O6SFV4UrNjjFQo2tcDRf7YyVwtZoHasXYqM1CTGUlWQh/VLf2XLHfu8NpotO6dB3z+4DnNX0OSDRCHFceVlZ8HR1R0GnQ4Hd21kbgV6P1DfpUDQzSv+RGFhabzPrRGboLx9BC7H50Oo14A+GJXv3waJXafBa/MkWCZcLK27swT6YW4Qns6F8Ij5MsepjfORoRbgz+uKe/rR8/TDcyMQihuVZhI0eJddUiOTyTHqg2n4a9637CEtmyjIjgQCPfBV/bhSefeorFNR0GLZMtH5IqGIXXZ3oCEJERIDVV36yF5oAgEL0KJVGMWJuRjOHMOlM8fuYVJZeZ/qcTcpjK1sILqlhunK/a0BT6KMtJTRZDA+d4FLNGhKpBZsRU/ZRP2WAldpdmg28AkELF5CW1hYEshafJz6Ig2MZH26+1mj/xcvhS0+xpbVyqTMfVfVZ/B+bU+DON277BLkJ9FPHiRPtqTPQs5Wg5RlQr/ThIJcLWWXnFLeFERN51Lcwd2JBkWaTWeFdEONVSPYyoHEzp9CnhYOuysbIdSau+foPvSOK3apFOUnQM26DZkFxS+oFuwdXbDkl5klbiYSABSEaH7Ng9S66Nyi/iMxG+Qry4XKStdRG97dHzSOAchoNgyWCVdgd3k9cv1aIbvhYDic/xuKmCJLQ0l61QWmcBUE9D2VMu4FudiEP9pn4X8XrXA1Q1JZcar18edOIJTXmjWC6yKwTgPs2fj3Q3846b/YS8iiQlYUmrnzxAlwApxAMQESDbQqhSw9+fm5OLBtHXMZPA/JTmZCW/dC7Im1QCWrlas9Di4Qqn0T8wpyApwAJ8AJcAIPToALhAdnxq/gBDgBToAT4ASqPQEuEKp9E/MKcgKcACfACXACD06AC4QHZ8av4AQ4AU6AE+AEqj0BLhCqfRPzCnICnAAnwAlwAg9OgAuEB2fGr+AEOAFOgBPgBKo9AS4QnlATS2ROkCn9kZ/BlxA+IcQ8W06AE+AEOIEnSOC5EgiWYhNsZCYkFwjpC6hPLFna1IWL33AUZF9BanTRxk88cQKcACfACXAC/yUCz5VAaOGiRW8/NaadtYH2/rsgP3L72bl1h0zhh+SI+ewzpzxxApwAJ8AJcAL/NQLPjUCgjTf8bfSo56DFjhg5CnQCHEuSQSYyoaWrFnlaIbyUelzPkuByugQ+VgYE2+mwP94CeiNQ01YPJ7kBx5NllX5m19alIxS2DZAQ9uN/rT/w8nICnAAnwAlwAozAcyMQBgeq4aPUoaadHocSLJhA2B1rATeFAV81z8HZFAvczJZgUI0CTDhqCwcLI75tkY1PTtkiNk+EjxrlIlklweIb8kq7jq1LJyhs63OBUCkpfgInwAlwApzAs0rguREI1ACtXLV4JUCFqadsS1wMNWz0TCC8fdge2YUCjK2twvk0Kc6lijGtWR7Op0pwNEmKmc1z8fU5aySrhPdtS2vH1lDaN4PUwhWpMSugyrn6rLY7LxcnwAlwApwAJ1AhAS4Q7giE4fsd7olLCLQ1YGRIPtZGKNDDR40Z56yq1J3s3XtBZumDpIh5VTqfn8QJcAKcACfACTxrBJ47gdD/jgWheJeuYgtCeQLBQmTCjBa5LM5wa7QcRxKlVWo/G+cOUNo1QkLYD1U6n5/ECXACnAAnwAk8awSeK4EQYGPE502ycSZFiiSVCLtiLOCpLIpBKE8gUGONDClAG/dCTD1pg2SVqErtZ+faDTJlAJIjfq3S+fwkToAT4AQ4AU7gWSPwXAkEgl/LXg9HCwPUegEupUtgIQLqOWpxMlkG410rEgUARoSoWCDjN+et7jl+v8a0sm8GB6/+yEk9jKykHc9am/PycAKcACfACXAClRJ47gRCpUTKnEBLIKc3y8WqcAUuZ4gf4FIBC1a0UPojPXbVA1zHT+UEOAFOgBPgBJ4NAlwgVNAOIgEQaKtHeLa4ytaDZ6NZeSk4AU6AE+AEOIFHI8AFwqPx41dzApwAJ8AJcALVkgAXCNWyWXmlOAFOgBPgBDiBRyNQrQWCWGoLvTb70QjxqzkBToAT4AQ4geeQABcIz2Gj/xeqLBKJQH8EAlpL8u8mk8kE+qPX69nfPHECnAAn8DwS4ALheWz1Z7zOJAwkEslTL6XRaIRWq33q5eAF4AQ4AU7gaRDgAuFpUOf3rJCATCZ7KpaD8gpVWFjIrQi8v3ICnMBzSYALhOey2Z+hSosEMIVYAi5SCPZnsYJZWFg8dAHJJWFra4uCggI2+3dwcEBWVhbIGvAwifJ42GtL70dukiq4KuRCGNvaQhCthiBCA7629mFajF/DCXACj4sAFwiPiySAQSMmwtHFzSzHAzs3Ij8nCy907Y0Ny+ZDo1Y9xjveP6vBb72HU4f2IPrWjQe+n7WtPYaM/ZDN4s+dOITTh/c8cB5VvcDU2gaGNjYQr0gBEgofWiDUqVMHGRkZSE1NRaNGjRAZGYnMzEy0adMGZ8+eBVkl6tevjyNHjlS1aOy8sgJBorCBb7eR0OZnIWbPkpJ85E6e8O70BiSW1sgKO4ukk9tgNOggFEvh1fE1WPvWRn5CBGL3LIVBV1RH58ad4dywI/SqXMTsWwF1aiwgAAT+cuj7OUG0JR0I/3f6ygMB4SdzApzAc0OAC4TH2NQBwXUhl1uiVceeCA+9hLTkBCTE3Ia9owu69nsdy3/7DnqdrlyRYCG3vOd3GqDllgr2+92zWAu5Anq9luVXNlE+Oq0WoyZNw4Gd63Er9HKlNbSwVLAJrkZdwM5VWFnDt0YIWnfsyUTGlXPHzfIQCoWQUXlVKphM5jPz4vsbDPp7r7GQQ60qugdLYgGMY9wh3JAGJJf6+u+2IFBMAtWf4hIoaFCn07F/UznIBUDJzs6O/Zv+lCcQ6Hp7e3skJycX3VoshlQqZecbDAYmhug+FJhYNhULBKm1A3y7jYA6PR4WDu64te5HdppQJEFA34nIibwCdUYCXJt2Q/rVo8gKPwefLsMhFEuQdukg7Go2gURhi8ht86H0DIR7675MSFBezg07IHztD9DlF1lQEGwJQ2d7iP9IgElbankQCgCpENAYKm1SfgInwAlwAo9MgAuER0ZongENNK+OnoSTB3chKvw6O+gfVBt9hoxBoUYFKxt7XD57DLs3LGeD3dDxHyE7MwO1GzSFRqNhIiI9JRFKaxsMfftj2Ng7ICMtBasXzEZudiYbyF5+dRRC6jdlQmDb6kUID73I7vNij1fQsn03ZKQls/P271hXoUAozqtWg6ag6WvohZPYtmZJic99/NRZ2L52CWJuh5VUkgQA1c/V3ZsJoKVzv4Fer2ODdde+Q9CgeRtWrg3LfmP1d3H3xsARE5CdkQYvv0CEXjyNbWuXwGgwQEiz5ebWEK5KMYN4t0Bo3Lgx8vLy4OXlxeoVEREBPz8/ds+LFy8ySwFZB9LS0pCSklKuQKA8GzRogEOHDjFx0bJlSyYSyOJw7do1Jh5q1aqFU6dOmYmEYoFg6eIDkUwObXYavLsOLxEIIqkFarzyPsJWfcvqYB/SHJZOXkg6tR2BAz5EwvGNyIu+DoWbPwL6TMDVPz6Ee5s+MBRqkHy6aJ+O2qO+RfSOBShIimT/F1iKoB/pBvH2dJiiNCVs+vmr8VpQAT48YYfo3KptHPaYuzfPjhPgBJ4jAlwgPObGvp9A6PvGWOxYtxTawkI2wNMAGhcZjmHvTEVyQgwunjqKNp1egio/F3u3rGLn6LSFOHN0H2o3bA4y+29dtRD+NeugTqMWuHDiEJzdPdHxpQH47dupzMow7uNvsH3NEojEYrwy7G1sWvF7hQIhqE4jtO38EnauXw4raxuQBeTw7k1QFeRDrlBi3JSZWPHHD0hNjGOUpDIZXh87GbdvXmMDfYee/ZkIOHd8P1p16AkXd08c/Wcb6jZugYDgeljyywz41AjGy4NHYuuqRcwP33PAcCycPR3qgnwI6ith8JdDuCmtQoHQpEkTqFQqREdHo27dumzGf+PGDbi7u0OhUODSpUsPJBA8PT3h4uLCxAWJDLIakFiQy+XIz883C0q8OwZBZu1wr0Do9x6idi5grgSDRsXEQNLJrQgc+CFSzuyGzM4Z6vRE+HQZhmt/ToZ7m77QqfJg1OtQkBgBv56jEb17MQoSbxcJBIkA+lHuEB7KhuBGqcWlmYsObVwLsSLcEqlq4WPuuTw7ToAT4ATumvDWrl37nugpkasUhjIm3ycBzWDnC1FW9JPIuiTPp/GhpPsJhG79hpTMtke8+xkO79mCG5fPMoGwc/0yNhv38PZHUJ2GOLJ3C14b/QFSE2OZNcDK2g7+IfWw6Kcv2eDv5ukLJ1cPWFnbolXHHlj403RW5x4DhmLZvFns32OnzKjUgkBCgwb5c8cPIOrWDSYEil0Dnr410HfIWCydOxN5OUWmbxd3LwwZNwWnDu1m1pCadRrhdtg1nD68F5O+nouwq+eRHB8NVw9fePj4MyHQrG1nWNnYYu/mVRAKRRg/9VssnP0V1Kp8CBooYfCVQ7i5YoFAFoSwsDA2eJOlgKwJFGPg7e0NR0dHXLhw4YEEArkSmjdvzkRBaGgoi124X6qqQIg/vAauzXog88ZpM4GQfvkwHOu3Y24Gj7b9zQSCtU9tpF89AvfWfcoXCIezIbhexiXzRJ8WnjknwAlwAlwgPNE+cD+BQDEIfzFzvB53CwSyLKSnJJWUi0QACYS46AhkpCSy3zVqNW5dv4TOvQczgXDpzFEolNZo17UPG4hpdt6j/zAs+7VIIIyZMgMHKnEx0EBZI6QeXD19Uat+UzbY7928kl1fv1kbtGzfHYvmfMUsGZR8awSj56A3cWT35pKyxkXdgtFowPhPvseRPZuZG4QSWSFu37yK3q++hdiocFw8dRgePgHodicWgywpgiBLGOopIVyfatYm5bkYHqdAoJuRm4FWOAQEBOD4cfMYi7KFqapACFs9CxAIYBfUBApXXxZfwFwMR9cjP/4WLJ29WazCVbIgtO4LgyYfyWd3s1vVfnMmoncvKrUgyITMxSDamwlEqJ9of+WZcwKcACdwPwLcxfCY+8bjEAhCkQj9h40HDb4XTh2Gg5MrnFzccPX8SQx75xNE3bqOE/t3wMs/EAOGT2ACISc7A6M/mI6lv3wDsUSCtz6Yji2rFpS4GMg60bh1R+zftgYF+bmgWIL6zdoiMuwasxC07/EKrG3ssHbxL4wIrboIqtUQKxf8CJPRiEKNmrkLuvR+FX/9OgsSsRR1GrfAqcN7YGvviDGTv8bfv//ALB61GjRD7O2bSE1KYL+fP3EQ1y6cRvvufWGptMLmFX8yUSFQiqB/3RWiRYmAvtSQ9aQFgoeHB4tloBgQ+veZM2egVCpZjEN4eDhzYRSnYoEgEIpA8QZSK3t4vjgYkVt/Yy4CWnkQNHAyonYuYisS3Fq9DF1eJlIv7EONfu8hN/YG0i8dgk2NBszCcH3p57Cv3RLW3iGIO7CK5UfnRWycA3V6QtFtHSXQD3WFZHESTNmlQZN17fXo6k0uBjmSVdzF8JgfXZ4dJ8AJ3EWAC4TH3CXKEwh+gbXQ7ZUh5VoQho7/GDvWLmUDa9lEAX3ku6eBWSyRMmsArYygwZfcAvm52WwFg6dfIBb+9CULbOz92ih4+NRAQV4OrO0cWCDkretFqxgat3qxaHCf9y0S46IgkUjRb+g4OLt5spUFNGBvWv4HsjKKZvN0/75DxkCn00JdUIDNK/+EQa/HwDcnMDcH/bly9jhOHNjJXAfdX3mDCRYqU2pSPHZvXMHOn/jFjyXBleTvp1iEpPhS15JxkAugNUK4I4P9TelugUDfNSD3AllfbGxs2N/0nQOKGaDli9nZ2ez34lUM5X0HgawldE56ejq7js6h8tA3Eii+gVY0WFlZsYDHsp9XLg1S9IV35yEQCMWg5Y7avAxkhJ5grgOnui/AqVEnGApVbBljzO4lbEWC0j0A7u0GQGA0AUIh4g+tYYGIQokMvt3ehERpy/6dce040i4fgolWfsiEMPZ1hCDXAMFOc9fH8GAVGjrp8OFxG+ge7rMOj7m38+w4AU6gOhPgAuEZbl0awGjVQ35ultmslgZ3Sysr5GaZD2ZUFYpL0GjUJW6B4uoJhEJIpTImOMomKxs7ZnHIyUyv8geB6BpyIRhoBl0mWSqs2P9UBXnsb1cPH/Qf9jaW/fYdG3RJuNzz0SEbEQwDnCHMMUCwrkicPMqHkh53c1b1Q0lkYRBbKKBT5ZoVQSAQQmxpDb0mv0gAlEliuRImva7k2wiwFMIw0AVQGSDalg6ozVXAjOY5WH9bgUvp4sddTZ4fJ8AJcAL3EOACgXeKJ0YgqHYDtGjfDWsWzkFhYelyvXtuKBEAShGQVTSA0myexNHTTiRqSCD8axs2iQSAtQjINQCGe7+8OKymCsvDLfkHFp92x+D35wSeEwJcIDwnDf1fqia5aUgkPI2dHIs5kSigWIS7P5z0X+LIy8oJcAKcwKMQ4ALhUejxa58YgacpDsqKhCdWQZ4xJ8AJcALPOAEuEJ7xBuLF4wQ4AU6AE+AEngYBLhCeBnV+T06AE+AEOAFO4BknwAXCM95AvHicACfACXACnMDTIMAFwtOgzu/5XBGQG00oFAhgFJRW28pECxVM0AoAvaDMgcdMhu7toTciQlq1zZ2EJhOobLlCAW3wWaVkZzAhi1ZglEliqp+AbRLKEyfACfxHCXCB8B9tOF7sByRAeyW7Sou2laYPF9lLgCzdvzKCTY/PQKpYhF9dbUsKPSUlA0lCKUxCoJ5ajRlujsgVFS3t9Cw0oI6mEE5aPQIKtXDRG/CRlxPGpOTAWWv+7YlssQgzPR3uC6OhWoM50WloF+J133M65qoQI5VACBPUIjFmJiThI083eKu1yJKKUEOthbNejyCNFu5aAz71dELCHcEhMZnwc0wKdtjaYIetvOQeP8ekYa6LLSIsJOXe11FvwtR48z047j7xEx8nJqx44gQ4gadDgAuEp8P9mbmrRCrDi9374cq540hOiH1myvW4C2Lq4wR9PSWk38fApDHCMNQVUIggWpYMFJR+Wvlx39dJZ8TayBiM9PFCpEXpB45IICQKpVjhZIWP47NwVSnFDlsFu32PHDVeT8+B0qjHBls7rHK0hE4gwJKoFIz2cWEzc0qt8jX4MikJnYL87lvsRmoNZlciED5KSsd5SwXGpaXjMy93TE1Kxt9WjmisyYdIBLgXarFfboPjdjIkScwtES46A5ZEJmKylxv88ks/BNWIvgCqF+KMUlZStvN2UiRJikSQt9aIZZExeNXXGyky8zz9C3VYHh2HTjX9UMAFwuPukjw/TqDKBLhAqDKqqp1oZ2mP9iFdsen8qpILAl2C0afxYPy6739Qaf+d3fne7/oZdl/dghuJVyssOH0VkT6pfObIP7h59XyVKtlr8Aj8s2U122L6WUm0u2W9Jq2wf/s68yKJBDC+5ACTlRjiLWkw5d0RA5ZCmNrbwWQtgnC1+WZRj7NOL2flo5FKi1ludmifp8IxK0vY6o2YmJoBmASIkEngatBBYBBhuqe92a0nxWXjpL0lTiqk7HcSCKN8ywiEPA2+KiMQbA0m/C/W/JPdVkYDamoKcc7S0izvy3I55t2xaJBA2G+lRJ+sfOy1s8Ko9HTEii1wRmGB+oUa3JRJsc6u6CuZd6dRabmwNBpw0tISLTQV9+1dltaIUBSJpGKB8AYTCOYfxSKBsCQqHp2CuUB4nH2R58UJPCgBLhAelFgF51tI5HC1ccfLjQZi4aGiTY9UWhVqutbCgGZvYOHhX0Cf3s3MT0OhvmiHRAuJBYwmExyVTshWZUGjU8NoMrKPBFlKFXBQOCGjIB0qbX7JF/1kYgs4WrlArStAjioLBmPRoCcRSeFk7YICTR7GdvgA2y9tQGjCpfuWWCKVQiwuMgFrtYVs7wRKtM8C/S6TW0IsErO9FPR6HfskM33mediET7B20S9sy2adVsuOUXmV1rawsXNARmoS29+B5SWivMSQK5Ts37SpFO3XQBtSSWUW7D42tvZsu2sqA31BkX6nT0Lwd7ddAAAgAElEQVTTx4ro37RPBF0js5CzTzXbOTghPzcHanUB20iKfvf0DUSLdl2wcfl8dl+1isSLqWjjozfdIFmUCFOm+aeOaaMlw1gPSNamwJhRekwiNMFRbkKqSljeBw2r3GPID/9HVDI+93Rk5vkJqVk4aWWJ/lmZkBhNiJHJ8I+VFa5LLXHNSoyMOy6G+nk6BKt06JSbh0i5DGEyGbY7WmB5ZBJiLaSkK1hy0OnhqdWga6Av+7+z3oSlkXEY7eOBrDsz9frqQnwbm4oeNUtdDHZGE6YmpGK8jyu7jgTCQaUSWoEIdNm7Kan41cEZNxQiTEjLQpRUgg22pQJBLwCzaHgVGrA1IgYTvN1wzEoOO4MRIYV3Mb5D67pMjOw79aOfPLVGbLwdVSHLF4P9uQWhyr2Nn8gJPH4CXCA8Rqb9mrwGdzsvuNl4ICYjEiYTsPTob/B3CsSo9hMQlnQdQoEQNpZ2+OPAT8jV5GBi56nst/SCVIS41WWWh3NRJ9HUrxW61n0ZkWm34Gnvgz1Xt+Jy7DkmQN5oPQaZBemwklkjR52Fv479AaPJgPEdJ4O2FyzUq+HnFIiVJxdXKBBoA6fAkPrwDqiJvVtW4tLpo4xGvaatmdshISYSdo7ObAOnrasWIrBWA9Rt1JJtypQYGwmD3oCLpw8j7NpFtGjfFSH1myItORGuHl44sGM9IsNCUbNuI3TvNwTxMbehtLJhO0nSbo6evgEYPOp9tsU07elga++EFb//D/ZOLmyHyr/mzUROVibeGDcFkeGhOL5/B96c+CmMRhPycjLhF1QL/2xdg6vnTrCNopxdPVlZk+KiYYIJG5bNh16nBbwtYOrpAMH8Ozsl3tXexn5OEMZogPNF+0dQau6iw+SGOfjpkjVOJBfN3h8mDcvIw8i0dITKLOFs0OETTxckScSkSzAkPRuWMOF/LkVWAxuDCYVCATQCoGl+IeoUajAgKwdnFJa4JZVivZ0V6qm1sDSa789A15xSWJQIhMWRcRjq54nMOwKhvBgECiqcEZ9iJhAipJbomp0PucmIAJ2aiZbjVnJ4GnVokaNGqkgCW2iRDSm2Oiixw9YSs+LS0ESlwiceLkwg+Gn06J6fXy6qbdZKxElLXSwknlwKK95xKtGCoiJ44gQ4gadFgAuEx0zexcYdA5oOwbx935fkXNO1Nl5t+SZ+3vsNtHod3u/2GTafX4Vr8ZcwsctUHAjdhWsJl9AmqAN8HP2x+tQSjG7/Hq7EnWdioYZLMDrU6o65/8xiYsNe6ciudbf1xLiOH2LW9s+Z1WBS98/xzbZPIBZJML3Pj1h5qmKBUFzAdz79Hsf2bcel00fYT/Wbtma7Rq5aMJtZBIZP/BTL5s0q2emRtnBePv97qPKLBlXabXLyjHlsx8fbN6+hXdfebKMmOie4bmO07fwyFvw0jVkQxkyZgaVzZ8LFzQuD33of87/7BLlZGXj1rUk4e3wf8nKy2Y6RS+d+g5ysjCKBcOs6ju/bjjff/YyV81boJbTq0AMu7t7YtOJ3VgbafbJ1x5eweuFssxY1+VoAHe0hoC2ly0nGlx2BNB2EJ3NKjsrFJtDWypcyJNA+QniCh8YABUyopdGiRV4ePvV0gdJohKXBiKHpuWimViFSKkVQgR62KMRUV3ecsC3y2SuMJhy6EYVNDrb4wcUONVQ61C3j4y8uLA2gdE28TMQsCA8rEMjFcF5pgeFpuXg5Jwdv+XggXSLE58kZCJdJscbOCgujkzDK143d2kOnx4SkLNqkElttlEwguGiNaKIqsozdnc4opUgTi9C4oBDT49LZYYEJsDBSYGTFgYjv+rjgtpxvUPWYX1U8O06gUgJcIFSK6MFOuJ9A6N9sCObsmQm9QYdJ3b/ArsubcSn2LBMIa04tRUpuEhQyJSiGITknEeM6fgC5RAG1TgWpqGgW++Pur+Bh64Xu9fpALrWERCyFl70PZu34nJnjBzcfjl/+mcXO/ajn15W6GIprVp5A8PILwva1S9gp7385B8t+nVWyJfXdAsFSaYX3ps1m2zwXFqqZpYBcDEt/mckEAlkk1i4ucrnQQE7bTXv7BTGB8NMXE1Co0TBBQdYFpbVNhQJh0/LfkZ2ZjpqUb5NWWLdkbkm+9xUInewhWFiRQNBCeNJ8F8YHa/X7n+2p1WNObAomebkgVibGh0lZ8NBpITOYUEejYVaFPLEQIqMAVy0lzHRPw+Wk5Cy0zlYjXClDqliAPbYK1NRo2Y36ZuUiTCzHdSsJm2GftpQjUSpmAmFlRCy+dnZFzh1zfk1tISamZWC8h3tJIa1NRgzKyTKzIJBAyJGIMC41F/VU+bgqs8Q0Twd8lJKF8woZNtoqzQQCWQCsDEZMTc4oEQi0+qJdQflxKQes5Mx6QgLJ685KDFetAcPTszHL/f6rMKjQUVIpNLQKhSdOgBP4VwlwgfCYcbvYuGFg06GYu++7kpzJgmAmELp9gV1XSgXC6pNLkJpXGlwmFooxtsMk7AvdgZtJoRAJRZCKZVBrVRjfcQrS81Ox7swyOFu7YlK3L/Dj7unQG/QY2no0Zu+ZCRpiPun1DTZfWFPiYiBfPw3kNEM3mcxNu48qEOSWCiYQyEUQF3WLbStNMQYUxEgCoW7TVli3uGggL05+gbXMBELx764e3hg86j0snfstcrMz8MbbHyE89BJOHtzFLAg71i5BalIC6jRqgeB6TbB+6bwSgdCmUy+sWvCTeYt6yGDq6wTBb/FAORZt4yBniC7nw3SzdGCjCa2dzIg8nQCFxUsGHqKf0DcIvkxMwy2pDGqRCG1zC/C1By0RFKKWSoelMbHoEuSHRgWFGJiei7H+LuwuARodJidn4pZIhhP2luiUnc+WSGruRPRPS0zDEakNDjpKmUCgwZP+JoGwJ/w24qVSFBs+yGXgqtUjSlbqKqE1A7ESqZlAuGYhx8DsXCx0ssNb6RnYpbSBq16LEJUeGxwV2GOtMBMIxTi+j08rEQghGh3c7sSx3I3rtlSCmDIuBjreO7sADfI1WOuoLJdutERaqXXhIZqFX8IJcAJVJMAFQhVBVfU0mtl/3PNr7Lm6ja1YICvBgwoECvgb0GwoHJXOOHRjN2p51IdGp8GOSxsw+sX3WbzB3qvb0MC7KdqHdGYWhLTcFHze+zvsD93FBEWvhv2x5Oj8EoHQuGV7tOrYExuXzUdCbCSrDg2wErEEnXoPYoNwTMRNxEaGwy8wBBVZECgWgIRASkIcom/fYAGDFLiYkZKEaxdPo1GLdszacGjXxgcWCBSUOHbKDFw9fxKZ6Sno0LM/1i2Zh/joCCYQCtVqnD95kLktoiNuYN/WNawutg5OTEwc/2cbs17cuHKuqMmsRNCPdId4XyZwzTzKXmAtgn6YG0QLEgFNqXrwtzbgo4a5mH7OBv9v7zygo6q2MPxPS2YymTTSGwm9994JRUAB6UVAnyigPkQU9IE+sYAFOx1FpYlUQZp06b33lhBCCunJpE5/a58hISEJBBIfSWaftVxqZu4p373J+e/e++wdnfHkZaer6EyYficWF5RKnNYoEapUINxOAQrys7MAO6/cxlZXJ3RMS8ebgd65OQO+vBOPP10d0SpZJ04xnFEpQNpg8S1rHIWf3oA0qQxauRRaqQyT/b2RIpdAY7bg5bgULHN3QeY9s32jzGx8GRGHZ2oF5j7CJFx6Jqdjhbs18JCCFGPkStyyl+G2yh7To2IwLtAXapMZy8Ii8YGvN05q7B8pED6JSISXyYgTjvfzIVD/7dIzcFDtgEWezvl+jZ5NzkTdjIIuCZIyfdKSMTIwENfunXoo7u8ff48JMIHSI8ACoZRYuqndc8sTd637LKp71YbBpMOifbPh7xqIjrW6Yd3JFTCZjRjYfCSOhx1CaNw1cfzx78vbRbBh3qZSqDCg+Qi4azyQlJ6ETWdWIzkzCZUcPfB8kyHQqJwQkRAuTi2sPr4EyRlJaFmlHVpVa4/E9ARxsuHIzb04FX5MdFu1Vj206tgDW9cuQXKiNUFNv5Hj4OBw/+2N3BQHdm4EnW7w9PHH0b3bxfcGvvg6dvy5UpxmoEYBgi3adxMnEPbv3Ig7YdfFSYJeA0fB2dVdnEjYtWmVOIkQEFwNwTXqYf/2DfnWR5aCkF4DsXrxHGswYZ7mGxCMDj2eFycmLp4+gjNHrbERJBCuXTiNarUbIDszA9s3rBBxCtQovqFd1+fgF1QVBr1OiIrc1soZpiaOkO5MguRmljU5kr89jM97QHYpHZK/U/KN379KNhq4G/DR8cKP9j3JI+NossDPYBBmdkqIRDEG0yPj0TwzA68G+UNqlgjXwWd+bmifmo2jGnu8EZWae8yRDOyVTNaQvSnR8Thk54T97vbCKJJCRzmLmFRxEiXlHHM86aiEt9GMt+4m4EM/Dzgb6aRBBAZWrYxYhbRYAuGOgxw/uecXAm/HJUELWQGBUBRHT70Za8NuY3DVyrh7L9jySZjzNUyACZSMAAuEkvHLvZpEAbkGSrORq4A2PpPJKCLzcxpZGGRSuYhneLDRHOiYJP1DjXIh5DQ6QkjHBP+pRv2Ta4GOS5LYKEmjviRSae7RyxyBQBaQ9LRUmE2m4o9Bu2uwCpZ2LpCujIVFb4aF4hIis4HQLMCQf64zWqVhfZgSJ+MKzwJY3HV5GM1oo81Cy4ws1NZlIkVij0/93OBgkmBifDwcjBYozWa8G+iNEG0GfIwGfOTrntt9Th6Eo2o7YXHIaR9Hx2GfnTP2uFsDGk2wFJmuuTgC4f2YePjoLIhXyEH2ErIcxMoVOOBkj/F3kzGimo94+vIGKebMJa+LgSwISokFux2tCZ9y2nNpWpxTKostEGpn6zH/Vgy61K6c6yopLnP+HhNgAqVHgAVC6bHknv5hAm27PovTh/eJ/Av/ZGvjrcfZBAUyyRdQgjYkOQ2t0jJx0UGJQ2oHXFMpQImFumm12OTshGWVNOilzcQbsUliI3wz0BfhyvtZBXMEQrhchi8j70JZhOjaq9Zgnk/+t/acaRdHILTIyEYNXX4rThZkcDcaEW6vwHZna5Kl4giEBvoMcU3eVl2nx3onl4cKhNbpOvRIThccgo16nFcp8Z23awno86VMgAmUlAALhJIS5OuZQBEEKNKfCjTltdmozWZILBKk34sRIAnibjQJt0d8gTTGZvG9LKkEDvfcC4UNZZBA5FAorLkbzGidpscmN2uuhMdpdEohk6w497qun2XABVX+zb9utgExchmS5FJU0xnFXKMeWEdlvREmiQSRD/w871woLqKS0STqQRghESzoRAc3JsAEnh4BFghPjz2PzASYABNgAkygzBKo0AKBsgr+X8r1ldnbyxNjAkyACTABJvBkBCq4QHgyKHwVE2ACTIAJMAFbJ8ACwdafAF4/E2ACTIAJMIFCCLBA4MeCCTABJsAEmAATKEDAZgSCg1MdyBTOSE86BYsl/5Gu8vpcSJzksNRXA4fuFxoqr2uxxXlTWe3HyudQCpAsbgpIKf30lQzA+Hi5KiRSOzi6NoHJmIHM1AulMBvuggkwgbJMwGYEgtKxGlw8QyCVOyDm5nxYzIVXnSvpzVJILAjUmBCqLV7SpJ6BOuyMtIfxMfMXWRo6wtzKGbLTacAJa6Ghtl2fg53CmnPfZDLh3IlDSE22Vs4rqjm7VIJKrcbdqIiSLr3UrpdKZfAJCEJiXIyo5/A4TalyQKMW7XF033Y4ubiBUkznbdcunUF0xK3H6bJE3/Xw9hdFqDLT8xeDcnP3woBRr2Hvtg24cflsicZ4rIudZDCHuIkU1LK18bBkFb9cpWfQKEhlDtDG70em9vJjDctfZgJMoPwRsBmBQLfGziEQ3lVeRtTVb2AyWksVP6rROQg6jm0u5GWLjp4/+HMvlQWv19di2vGCiWsK6+uH9ql477AT9GZJoWMUOj83uagvINuaCMml+/UFuvcZCt+gqrC3V+L2zWs4tn9Hbolm6qewTIotOnQXtRdW/fxDgaHo+5QRsbCsiJQxkd5+H2wPu6awtVBWSPonb4ZH2uRHvDYZOzasRETYtfyXSSSQSigjZOFjkyh4Yew7mPv5FPhVriIKP928fB7Ge0WELp05Jmo4PKqRSCl0DJkMFrO5cCaFZKrsN2IsLp89gWsXT+cbkgpatez0DC6dPiZqTuRtxKMw5oWxKtY6KKtm3iRL9Nz294BEIYVkVWyxD/r41piIuPClMOqt6a25MQEmULEJ2JRAUGlqwD1wKKKufg2z6dFvpj5qM54PzoRGYcHZBDvsuGNNbetkZ8HzwVnwVpsQnynDH2FKpOqlGFI9E0EaE2q4GHAugUrxSjDvohomswS1XY3oHpANmdSCQzFKHIu1JpyZ1T4VB2PsUVljQGS6HH+EqaB7xEudpZYDLG1cIF0cXaBCYavOPeDi5oFt65aJ/u3s7dGuy3PIysqEf+WqoojSwV2boFSpRcEjL78AqDXOiLh5VWyiOzetgkGnE6WUa9RrDL0uW7yNx0ZFgKo2dujeVxRD8vavjLtRt3Fgx0axmVGWQ0r/7OXrj8zMTDFGalKCqLqYlZGO0GsXRRnoZm1DcHDXZrF5B9eoCxIDjk4uOHtsP25eOY+6jVuiRt1GqFKjLqIjw5GZpsWt65dx/tRhcT1ZSZxdKyEhNhoHdm4SdReoDgStxbWSh/h5ncYtMPez/4gxnh30EpbNm5kv+6Kzixtah/TCzj9XijTW7bv1FvUpLp4+CgdHJ7QJ6QnXSp5Iir+LQ7u35FoxmrTuJOpAZKanYc/WteLfCjt7cT0JCioYFXb9Is4eOwA3d0+06dwLgVVqiHoRVMeCymEf2bsNjVt1RGBwdcHt5OE9uRYNSqvdsEU7BFWrLcpmnzy0R3B39/JFyw7dkZ6WAi+fAFy/fFaM8bBG82rduYcoo02pqek+paXer/chCVTCMMwL8vmRgLZ4VgSfam8gKWYLdBnhFfuvIq+OCTABQcCmBIJSHQTP4JcQG7YIRoMWJmM68EDp45znwl5mwdwOKTgRZ4drKQoMr56BX6+qceSuHQZVzUYNFz0OxijROygLV5IV+OWKA1p76+DvaEYH32xsDbdWtNt2RwlnOwu+b5eMrbcdkGEEhlTLwLTjLgjTyrC4SzKO3LXH1WQFxtXTYt4FDQ7E3C/NW9hzamnmBLOnQlgQHmwPCgSVgyNGvfGeMHPTJty+e18c2fMXrl86g9oNm4tNmjYz+sxkNuP8iYNwc/fGoH+9gb1/rRemftqsaZOVy+WiYFJM5G2cO34AnZ8diEO7t+LCyUMY+fp/hIDYu209mrbqCKrKuHzBTIQ8Nwja5CRhzXDzILP661gy53PUadQcPQeMwr5t60V56HpNWmLO51PExukfVE0IiasXTiMlMQ6xMZGi0iQVgyKRQGKh4zP9cOXcCezf8SdadeqB1p2ewZ6t61C9TkMEBFfHd9PeEgKh77BXsXHlz9Ddc1WQQCJrxcAX30BmRhpuXD6HvsPH4LeFX4nNuM+wV8Q8TxzYJTbymMhwISSIVaee/bB78xpUq10f1Ws3xLzPp4DiCCZ+9D2O7tsGg16P5u27YcXCr4UgqVm/qRBa5L6Jj4mENjUZV8+fEjzdvXzQvnsfbF27FFfOWStPVq5aE31feBVH/94Gv6BqcHFzx28LvgYVryJLyOkje4XAI5H249cfintaVGvaNgRNWnfE/u1/olHzdtDr9djw28Jcy4TEUQb9eH8ofo4B4h4ekyOTayCRyuEZ9BIS7qyCPiua/3wyASZgAwRsSiBAIoNfjbchU2hgyI5BXPgyq0gopAVpzJjeKhnvHHJFbKZUWACyjBKEp8ngoTILK4JcAjT11CPQ0YiZZzTCRVCYi6G5pwEja2bgP0eckW2SoLGHAXfSZIjLkmJuh1RMPuwk8v6/1zgd11Jk2HArf7ncAtNr7gRzJTmk26zVFfO2ogTCjj9/F2/ibUJ6iU2W/p9aYS4GqtQYVK0Wjh/YCalMjt5DXxYblT47SwiEDSt+Eht283Zd4O7lh7/WLRWllq9fPCOEQOVqtdC55wCs+uUHUWGxKIHQulNPLJj5vijKNOadT7Bs/kxkpKUKq0JhLoYxkz7B4T1bka5NQVCNOnD38MHaJXOFlUCvzxYbOW3uw8e8jTkz3hMCYdiYdxB564aIyaC2aeXPwiLg4e0n1kLWjcN/b8Xpw3uFNWDEuEk4sGsTblw6ByfXSvDw9kXolQui8qVMJsPJg3vgUsldjLlw5gfi7fyl8e+LdVAbPfEj7Nq0UvChVpSLgT4b/8FXoupljkBo2+VZqNSOooS1XGGH196bgcWzP0MlD28hEL6dNkFYdIaPfUdYIm5du1Tkn6jeQ0cjXZss7rmDo0ZYkRZ990mu20SilkH/pj/kv8RAEvtwgeBV5VXYqXxF3E7klS85+ZgNbAy8RCZABGxKICjVVYQFIeraNzAZHh75X9XJhI9apOCtg25IzCa/t9VVS67csXUzUd1FD61OCmd7MxKyZZh5WgNKl1+YQGjtrceQapl474iLcB+IvizW/nJiEEg4vNkgA3fSpVgf9nCBYGmigcXHDtItxbcgbFmzBJHhN9GiQzdhPt++/rciBQK9kdMbKJnYqdGbMW2+FrNJbKq0KUfdDsv3G0QCgfz79Jabt3XrOzRXINBG13/Ua7kWBLISLPr2Y1EBcvSE/2L1r3NEUGVRAoE2zPQ0LYxGaxXLqNuh2L99oxAwqUnx2L9jo3jrfmHcpIe6GOha2oBHvv6ucMeIt/G0VOGqGDFuMnZtWo3boVdFbASJF4q1GPjSG/DyDcwXL0Bv/2SZGPHau1j07UdiTi+OnyqsIuE3rHEOjyMQOjzTF1TBc9+90tj//uArLJ3zOSigkQTCl1PGCQvA0NETcOLw3wi9cr7Iv2J9h78KDy8/ZGRYrQzk4vhr7dLcWA+JRgb9v/2hWBQNxBesClpYx34130F8xO9sQeC9gwnYCAGbEggqx+pwrzysWDEIvmozvm6TLDb1yHQZRtbMFEJge4Q9FnZKxofHnRGdIUWvyjo0dNfnCgQPpQUTGmrxwbH7QYoNKxkxpl4aphxxQbZRgvEN0vB3lBKn4xVPJhBqOACdXSBZWNDUW5QFoWiB0E341Vcs/Cb3kW/SphP8Aqpg06pfxOZdvXYD3LpxBUql6rEFAm169Ga+e9NqEQzZqdcALJ//Feo2boFOPfpj1vRJYlOkzX/h1x+KmIIcgbB70xrcunE/Wn70xA/x54pFIs6A3CIqtUaIhB79R8Be5YA/f/sRnj7+YjOd9emkImMQaKFNWnVC5179cePqeSGYctZPAY6nj+zD+ZOHhBWlXtM22LzqFyFCTEaTsJbQ/IJr1MHNyxcglVmtH7NnTBb8aB2b1yxBRKg1uPL5F8bg2qWzuHL2eIE/KQ9aEMhy4+nrj82rfhVWHhJjv86aAXdPn8cWCGThuBsZjlNH9op4E5+AykK05AY/BilhHOwJxbwoWNIfIwYhejN0mbdt5M8jL5MJ2DYBmxIISnVVeAaPLNYpBiq2N6lRGtQKC2Iy5ajtqscP5zUITZVhWvM0pOokuJslR1MPPZJ0klyBQNd92y4VkekSpOllWHBJDarg+99mWqQZJNCbJAjQGDHjpDMSsiVPJBDgLIfxZR/I96cAdMzx3gkL8tH7BASLwMTIWzeF6TwzPV3EIBQlEKrXaYQ+Q1/G7dBrIvhwy5rF0Di7ig0pOiIMGhc3cfph/bKFkCsUeJksCIvnIiqieBYEv8Aq6DdyrDhVQbEBl8+dwL5tG9CwRVt07T0EoVcviA1MJpNi+YKvxW8j+fV7D3lZbPZxMVG4fPYYrl86C9pAG7VsL+ZKcQDHD+wSsQK1GzRDz4GjcOPSWbh5esPFrRJ++Pgdq4vh1beFmZ2CEamdO34Q8bHRwsqw7Y9lSIqLxah/TxGBmKcP/y1cMI1adhDCpHKVGji6dzvOHNsvgjJpTjS2h5cvZAo5fl/4rZgrbfThN6+K0xWu7p5Yueh7pCTFi/Fad+4p+ou5c0us4fLZ4+gz9BUhLCgYk+ITUhLjhcuATkcM+td4xEZHoJKnj/iM3vr9g6pi6CsTH8uCUK1WfTzT7wXcvHoBdA+iIkKxY8PvVoFgJ4WpvzukmWZINj78GGzeP4++Nd5CfMQq4Z7jxgSYQMUnYDMCwdGtOVy9e8BsykL0jR9gMT/arEqBinSSwVFOIkGKxGypeCJINPirrW9dsVkyyCUWJNz7jH7mZm+Gg4KOBwJRGTLrNXILfNUmyKRATIYMqXprKVtvBzNis+g4IeCmNMNgBtL01nEe2gKUMA70gPxWNrDBuhmRCZ9M4tRoI9AmJ4qNkaL+07WpMBj0IpCQouXJd06NLAT0Of3MYjEjMc7qVnB0coa3X6AQDUnxseLf1kh9d2hTkmE05PdbUx+67KwCeQskEimcXFzFhkdR9MmJcTAaDGKjJxfDltVLhECgExEU2JfT6C1drXECXU+nBSigkOZYydMLTi6VhKmfTgeYjEYhYFwqeQr3AgXx0f8nJ8QJNwL9LG+jdVtMZjhoNOI71DTOLuRtE/OjMeg0BJ1IoM/pdEPOcUdnVzd4+gQgIz1NWDEoHsBq7XgXG5YvFHkXSHxQjETOmzrNgdZP7CjegQILySIgzs7mNIsFqSlJgimd6KA5E8uUpAQxBllg6ORFQpx1Y6ZxKI6CPiuq0XPg4uouuGtTk8RayDoDDwVMQ7wgSTRAui4O0Bc/WZJH5RFQOVZDcuwOpCUcftQTyp8zASZQzgnYjEBQaWpBofRARvKZIgMTy929dJVDUt0BluNFR7OX1TU1aN5WRNkvnvVZWZ1iseZFAoHe7hfPnlGs7z/1L7nJAV8lcC0DMBRfHNC8ZXI11C6NYTSkcibFp34jeQJM4J8nYDMC4Z9HySM8DgF6s1Yo7PJZDR7n+rLyXQpkJAtIXutHWe+7ImgAABnDSURBVJkbz4MJMAEmUBICLBBKQo+vZQJMgAkwASZQQQmwQKigN5aXxQSYABNgAkygJAQqtECQ27nAqE8pCR++lgkwASbABJiATRJggWCTt50XzQSYABNgAkzg4QRYIPATwgSYABNgAkyACRQgwAKBHwomUNEJSKSwSOWQmB5ec8EsV0Jq0uUvDV3R2fD6mAATKJIACwR+OModgZr1GiP06sXcmgzlbgGPmLBf5aoiCVL83agSL82g8UJc29dhp70Lj8MLHlpoKWzQfDhGHIfniaWAuXjpl0s8Qe6ACTCBMkuABUIp3xoHmQXtfHXYcUeZ23NNVxNG1MjE56ccRdXGitjemvYtjEajKGxEKYKpGNTDyhE/jAGldG7aJgTXLlK5Z2uWyJxGqYz/Nf59/LF8QW5BpCfh+crbH8He/v49OnloN47t3/kkXT3RNVVr1hNVFi+cOlLgeir4lJoYL6pmlqRZZArc6f8DoMuA387PIMtKfmh3Oo/qiOgzE46hB+Cz7/siS6GXZE58LRNgAuWHAAuEUr5XhVVzrO9GxZrS8f5RZ5jMQEYhIsFBbikgHkhK2MkgKkCWtFFflCI6wyDJKd0guqTKklS6Ok0vEdUon7RNnfkjdm1eI6o8NmvXBRonF1GT4MGUzA/2T2mEKWlSVkZa7kdFVXPM+QKlKk5KjBNiJKdRwiKZXCF+RmWZKa10TqONmFIfU6rjnPbae59h4++Lcv8/TZsiKh4+qlEKal1WVr7+6RpKYU2NUlLnbTQvSp9M1SLNZnPuRx179BNVGtcvp7f6/I1SKVPFSkoxnbdRYimLBDDqH3QVSKB21CArKyMfk5S6zyGp8RAErR4HqT7/vCiNNVXpfDBdc5ZXHUT0/QpVfn8ZirTYfOMrZRZRrpwbE2ACtkGABUIp3ucpTbWo6mSEo50ZqTopLJBg/H4X1HIxYXITrSj65GpnwuVkO8y9oBZ1Fz5qoUWKTibKR1NRpy9OaXAjVY4qTia82SAdKrkZGQYpZp13FJv7Jy1TMemQC75um4KN4Q5iY6/qbMCSq9YN6sHmqLCIaxKyFPB31ItiUTNOOSE+S4pKSjPebpQOZzsTMo1SfH9Og2SdFPM6JmHqERf8u0E6toYroTVIQBUpl18vugz1lC9/xJrFc3DzynnUatAMXXsPxq8/fIrWIb1EuefjB3bCzcML/UaMw7J5X6JOw+ZoHdJTbHZqJxdRROnvrWvRrmtvkYLZwdFJlFI2GQ04f/Iw9m5bj869BqB+k1bizXvWJ5OQmZkuSjIPH/MOJFIJHNQa6HTZcFA74udvPxZ1KNp374u6jVuK79EYVMCK6jeMe3cGFsx8P/8GqHLAsFcn4uaVCzi4ezPadO6J6nUaYsncL2Bnr0S/4WPg7u0r6igc2rUZZ4/tF/3SZl+/aStRT4OsHnu2rBWCYdQb/xH1FKi2gl6nw+8/fSfqSwx+aTzsVSpRMyI7M0PUdli+8GtonJwx7JWJouz06aP7RD/UqCBUh+59Ub9ZG+EiuHbhDHZsWCFEz3ufLxB1IVRqR1Hjgu5B4r2aDeHPfwe7lDvw3ftt7jqVDmr0GToanj5+ov7EgZ0bBZe8LXz4r/DePRPKWGvJamo9A3V4sVY6xu51y60jUoq/OtwVE2ACZZAAC4RSvClUpImKL42omYHvzzmKnuOzZKjnZsTERlp8edoJOpME7zfT4odzGlxMkovN+3isEodi7NAnKBtKuRk/XVZjYsN0sYlvva1Ea2+9EB4/XnbEF61T8OsVDYbXyMCVZCoEJUFsphRbbt83l+ddEgmE6S1TsSdKiYPRdhhaPUt8f12YCh+3SMPNVBk23FKhi58OXfyz8OYBV3zTVosfLztgalMt/rzlgEyDRFg99kfbFUlr6syfcHTfDsTHRqFZm87IzEjHml9no0vvwUIgHNu/QwiEAaNex5I5n6NOo+bo1nsIfpk1Q7zxDx49AXOmTxYbK71BU5nkAzs3ITriFvS6LNEfbfx29ioMHv0mls/9MlcgUGXGQ7u3on233ji4a7MQEuTikCvk6NFvBNYtnS+KMA0bMxHrly0QlRf//f5MsbFSM5vM2Ld9PWKj76BytVrWsXdsROvOPUTlSvp5x2eeh29gMLauXSr+Td+Z/8VU4VahEtGrfpkl+hoxdhLW/7ZQWCNe/PdUnDi4S1Rw7PLcYLFxH/77L2icXNGyY3dRJMtaYdEsCmCRYKBKmk3bdBJWnj2b14g+KSbhhbGTsOLHr5GRloYBL76GzauXiHLOJMx2blqF6xfPoNegF8W4W9csEdfdHPoznG4fheeR+64KKpDVrF0IViz8VpSUpkqb8794P7cgFV0X2fcbuJ1bB4fw+wWZAh1NaOWtF8+KvhQsWqX4a8ddMQEm8A8RYIFQymCLcjGMrZeO/xxxht4swVdtUrDyhgpH7toLgTD3gkZs2j4OFtR1M2BvtB0+bKbF6ptqXEySIUhjxJi6mXj/qBM+banFhSQFqGaju8oMP7UZa24qcSpeUehKcgTC7AtOCE2VokegDv5qIxZdUWNR52TcSFEgIl0OT5UJzb10GL3HDa/WycAtrRxdArJxPkEh3BD7ou0Qmiovktb7Xy1CbEykqG5IlQPXLpkrKhJ26zu0SIHQrG0XLPr2IyEQxr47XWy49Fb8KBfD6InT8PvCb/IJhG3rV6B7n6HYuXEVnh00Cnu2rhVVH0N6DRAbNPVLZZdpQ75w6jBen/J5bswBlVm+cfmcqOZIrXPP/sLycWzfdvEWT9cOfOkNUcJ518bVomImiRUSLb7+QUIsXDl/UlxLlpHNqxcjMT5GCIQ/ls5H9J1baNnxGfgGBOe6FB7mYqCS0/SmnyMQyIrx7OB/4fuP3hJj0FyunDuJS2eO4b3P5uP3n79HROg1dH9+uBBXaxfPyRUIzrePwiOPQGjfvY8QZzcunROWibqNW+Hn7z7OXXuuQDj/BxxuHSrl3w7ujgkwgfJEgAVCKd+th8UgTClCIMw+Tyb/+75duRT5BYKTEWPrZGLKUSe8UicTfmoTdt5RoZG7Hm19svDuYVdEZRReIjpHIMw674QwrRTPBOoQkEcgbL6twul74oJM5JHpMiEi6lcyIEknFfEJMokFv11XIfpe6erCkNGb7Nql82DQ6dBr4EjMn/kBaOPt1mcItKkpYrOl0sP9R47FkjlfiE2KAhFpcyKBMGbydCz4svQFQqsO3bFl7RLhVqBGb9hUKrkwF0POuvqPHIcqNevh+qUz2LxqsXi7tgqEBOzauEq86avUGhE34eMfhJDnBgmLRU6jwEpyIeQVCK06PgOfgCCsX75QfK1UBcKi7xARdr2AQLj9/LewSwqHz36rdYMaCQSygPy9ZV3uz6iMdN54johBC+G5//t8LoZS/jXh7pgAEygHBFgglPJNcrazYFqLVMw65wiDWYKoDBlyghSLKxDojZ3iD8isTzEAbb318HQwYc4FR4T46/BizUy8f8wJzwdno51PNkbuqiTiGQprDxMIHzRNR0yWFBvCVKjjZgCZkUkIVHc24cPmqZh3QYMuAVnQKIDPTmke6nvOiUGgjWrka+/i4umjwq3QtG0IKGKf3oZr1m+KoOq1sern71GvSasiBYK9UokXxk7GpbPHEHbtkgjwo7d1clGQq6D/qNeEGZ02enITkIuhMAsC2emfHfQS/vz9J1jMFjRq1QHH9+9AYtxdUJAiWTlyGgUEZmakCStD6049sHXdUvQcMEps/GHXLqJtyLMIrlkH29Yth2/lKnh24IuY98UUEecwYtxk/LFsoXAVNG7VEScO7ILRqBcC4ezxA7h85hhCnhuM6IhQHN7zlxiyXbfeqFa7Af5au1QEPCbFx0Lt6CTiKxq1bC/iEI7t2yFOgri4umPEa5Oxdsk8ZKRp0WfYaGz8/SfERkdaLQhFCISkJsOhrd4Zlde9AYnRGthI8R2tOvXA6l9mi1McdRq3EFYRmjs1vYs/wgYtRJVVr8JOa3XBUKOYmOHVs/D1WUdks4uhlP9qcHdMoGwSYIFQyveF7AATG6WjsbsOGQYZxu1zQV03E8bVS0NhAuHjFqkgC0JCdv7ocH9HMyY1SoOb0oiELDm+PqtBdIYUwU5mTGuegrcPuYjAsQbuBrx32KnIVTxMIKjlFkxtlgY/tRFpBim+O2u1MrjamzGnQwrGH3DF4KpZqOJswAdHyT1SNKwpXyzEmiVzRZBiu67PoUGztlg85zNIIMGAUa/Bw8dfvMVv+G2hiAFo1KI9mrbtjJ+/+6SABYEC/5q26YwOzzwPqUSKg7s34eje7Rg98UO4uHmIjU2v14lTAd9Nm2AVCOuWizfonRtX4tlBLwoXQ+Stm2IzJPM+0b18/iR2bvhdbOrjP/hKBB7mNBIzZ47uw7/e/ED0ce3CadRr0hohzw7AT99ME5s4BVgGBFcXb9s7Nq7ElbPHrZt9195o0aGb+G9yVWxbtyzXgpCUEAdv3wBoU5Px24Kvck85eHj7YcjoCVAqVcKq8eM309AmpCdad+4FuVwhgh9pTAoiPHlwt3B5tOzQXfz8zLH9+Pue6+PdGfOwklwMhVgQLDI73HhxJZxu7IH3wXni2CKdGqEgRYq1oKhKCsY8fu94p0npjNv9Z0GeHoeAzVMgMVutLtTIxeWlMuLTk0U/a6X8q8TdMQEm8JQJsEB4yjfgYcOX5jHHosYhawWJCDohUZJjjo/CSCcMsukYXp6jfo+6prQ+pwh/cneQxaGkjd7y9fpscUQwb6O4CWo5Y2icXYQFgYIiU5ITxBHLkq6d8kNIIIXBoCv2MrI9aiC2w3go467D6wDFJljPstL9ICsHna7IaaHDfoEqMQxe+36ATHf/iKVCCizolIyVNxyw8459scfmLzIBJlC+CbBAKN/3j2dfRgnQCQE6bbFl9WJxCuJpNkqzTEczJSbDQ6dhTbWsL5AgieJQBlXLwuobKqQZOA/C07yXPDYT+H8SYIHw/6TNYzEBJsAEmAATKCcEWCCUkxvF02QCTIAJMAEm8P8kUKEFglSmhNmU/f/kyWMxASbABJgAE6gQBCq0QKgQd4gXwQSYABNgAkzgKRBggfAUoPOQTIAJMAEmwATKOgEWCGX9DvH8mAATYAJMgAk8BQI2IxDsVL6QSlXIzgjLPQv+FHjzkEyACTABJsAEygUBmxEIzl5d4eLZGdnptxAX/issFs4XWy6eUJ4kE2ACTIAJPBUCNiMQqCyySlMDHpWHIerqNzAZ72eKeyrkeVAmwASYABNgAmWYgA0JBEDpWA0elYcj6to3MBszyvBt4akxASbABJgAE3i6BGxKIAgLQuAwIRBMxvSnS55HZwJMgAkwASZQhgnYlECQSOzgX+c9mI1Z0GdHIzFqA8zGkhfwKcP3l6fGBJgAE2ACTOCJCNiUQLBT+cG76hjEhS+FUZ8Io0FboDDNE1Hki5gAE2ACTIAJVDACNiUQVJqacA8YbI1BMLHloII9y7wcJsAEmAATKEUCNiUQ7B0C4RX88r0YBD7FUIrPEXfFBJgAE2ACFYyAzQgEe4cAaNzbQakORvT172A2ZVWwW8nLYQJMgAkwASZQegRsRiA4eXSC0jEYydGbYNAllB5B7okJMAEmwASYQAUkYDMCoQLeO14SE2ACTIAJMIF/jAALhH8MLXfMBJgAE2ACTKD8EmCBUH7vHc+cCTABJsAEmMA/RuCpCYR/bEXcMRNgAkyACTABJlBiAiwQSoyQO2ACTIAJMAEmUPEIsECoePeUV8QEmAATYAJMoMQEWCCUGCF3wASYABNgAkyg4hEoEwIhts04wGRApcubIU+LzaWskFkwrHMi9px1QlSiHSyW8nED7OQW1A/KQqCXDusPuYpJT+x3F1tOuOJ6pH35WATPkgkwASbABGyaQJkQCFletZHQZDgMGk9UWT0294ZIpcDoZ+LRs1kypi4OwNU7qhLdLCcXN3j5BiD06kWYzaYS9eUfVBUWiwVRt8MK9PNSt3j0bpmCL1b74sR1tfh8QLsUDO4Qj4VbvbHnrKZEY/PFTIAJMAEmwAT+aQJlQiDQIlOrdUJUyCTU+fG5Amt+vXcc/CvpMXWxf7F4SCQSKOzsYTDoYTGbc6+p07A52nZ9DkvmfA69LjtfX3K5Qmz4JpOxwBh2OX3lMWH0Hf4KDHo9tq5dmu/7Tg5mLHorFFN+DUBojDLfZ4M7JKF3y2S8MTcI2kxZ/vElgLGcWEiKdRP4S0yACTABJlCuCZQZgZBSszviW/4L1ZcOKwDUTWPCTxPCMHhGdZgesYmSlaDv8FehcXZFWmoy/lzxE7QpSXhl4jSo1I5wcNQgJTEemRnp2LB8ITLS09AmpCfqNWktxj3891acP3FI/PdL46ciXauFp68fEuPvYuOKn+GocUK/keNE/+TzSNOm4G7kbWxesxhmkwnPtUxE02o6fPybb4F1yGXAssk3hXgIj73vahhWPQt13Az47zGncv0w8eSZABNgAkyg4hAoMwIhLag1Int8jMCtH0Bq1EEVcwGwWN/+HZVm/DjhFiYsCEZ8qvSh9IeNeRsGnQ4nDu1GjTqNYDKZsGfLGtSq3xQBwdVRs34T7Nu2HrrsLNy6cQWVPL3Ro/8InDq0B4AEHbr3wdzP/yPGePezebh64RTOHT+Ijj36ITHuLnZvXo3gGnXQrG0XmIxGnDm2T4iNiNBrwgLxSo842NtJMHejR6HzXPBmBL5Z54kbUfetC8OrZyHY2YgZJ9n1UHF+tXglTIAJMIHyTaDMCASDoydCRyyDWWYHiSETtX4dCInBWnFRrTRj4Zu38M5PwYhNfrhAoLd7D28/HN37F+7cugltclKu26AwF4NUKkMlLx+4uLpDKpWie7/hmDN9stjsJ02fjQ2//YSbV86jcasOqFKjHv5YNl98VpSLYWyvOMikEszbXLhAmDc+At/9kV8gSCWATAIY7ntDyvdTxbNnAkyACTCBck+gzAiE1BpdcbfjBNT4pR8kD8QBOKrMwsUwdlZVaDMlD4Vur1ShefuuIhjRJyAIF08dxd6//hDXFCYQajVoipBeA3DzygVhbWjYvC2+++gtq0D4dDb+WL4QYdcuFhizKIEwsks83DQW/LDBs9B5/jThNr5Y44XQ6PzxCeX+SeIFMAEmwASYQIUiUGYEQgoJhDZjUWvxoAKAPZyNmD8+DAOn18j3WZWa9eDjXxmHdm8RP6fgxLqNWiLqTpiIM2jergtad+6J2TPeFfEBtRs2Q/tufUSQIrkYqHXrOwzZmek4sHOT+P83//sNZk+f9EiB0GfYKzCbzNi8+pd8c2pTJwsD28Xh7R8rF1iH0s6C1VOv4425VXAnXpH7eW1XI1p6GbD4aslOaVSoJ5MXwwSYABNgAk+VQNkRCLW6I6rjW6i7sFc+IO5ORnw8Mgrnbzlg4db8ZnvapGs3aIrZ0yeLOABqHbr3RZ1GLURQYSUPb1w8cwwHd24Un7m4eWDw6Dehz85GUkIsdmxYIeISeg4YKdwRdvb28A0MxvcfTRQC4Z1PZ2N9ERYEim/o1ncotKnJiAy/ib3b1osTE3KZBYveCsNfJ9zwx2EXGIxWi4eDvRnvDY4GWUOm/hoAneG+JeS/zdKEe+GL0xyD8FR/G3hwJsAEmAATyCVQJgRCdM+PQRYE5yvb4Lfj09zJ2SssWDX1OuJT7TFhfmVk6vK7F+hookQqhUGvy3dLaaMnMZCcGCeOIj6qyWQyOLu5IzkhTgiDkrb6QTp8/1oodp12weerrKcZNn50HenZMoydVQVpedwkajnwY+dELLqswd9RdiUdmq9nAkyACTABJlAqBMqEQEgPbguJ2QiHyDOQmO5v6DKpBfWDs3Ax3AHGkuU1KhVYj9OJu7MJXi56XLptdRu0r5eGUzfUyNTlD7L0UZswunYGvj+nQXoeq8LjjMXfZQJMgAkwASZQ2gTKhEAo7UVxf0yACTABJsAEmEDJCLBAKBk/vpoJMAEmwASYQIUkIKlXr14Bp7vUXQFzggGQSYWPv0CzABZjwZTEFZIQL4oJMAEmwASYgA0SkDRp0qTIqDyJiwZSl4Lpfy16A8zRcTaIi5fMBJgAE2ACTMA2CDyRQHBVqWGJS0RiYqJtUOJVMgEmwASYABOwMQJPJBCe7xACuU6PVatW2RguXi4TYAJMgAkwAdsg8EiB4BWkgERiRmKqA0xmax4CFgi28XDwKpkAE2ACTMB2CTxSIHw19SrqVEnB8r+CsWp3dRYItvus8MqZABNgAkzAhgg8UiB07pyBcf2uQCq1YMgHXVgg2NDDwUtlAkyACTAB2yXwSIFApxgmDL6E9o1iMHBqVxYItvus8MqZABNgAkzAhggUSyB8/MpZ1KmSiGH/DYHRJOEYBBt6QHipTIAJMAEmYJsEiiUQ2jeIwozXTiMjW447sTJsPfwFn2KwzeeFV80EmAATYAI2QqBYAuGZVpGY/MJ5nLrqhrgke4RGvcMCwUYeEF4mE2ACTIAJ2CaBYgmET8ecRhW/NLwwrSPHINjmc8KrZgJMgAkwARsjUCyB8NYQClKMwoAp3Vkg2NgDwstlAkyACTAB2yTwSIHQsWMS3h15HZnZUgz5gE8x2OZjwqtmAkyACTABWyPwSIHw5ZSL8HE3YunWathzypctCLb2hPB6mQATYAJMwCYJPFIgFFbNkVMt2+SzwotmAkyACTABGyLAAsGGbjYvlQkwASbABJhAcQk8kUCw6A0wR8cVdwz+HhNgAkyACTABJlDOCEjq169vKXLOchkkcnnBjy0WWHT6crZUni4TYAJMgAkwASZQXAL/A3lWo0Ff+DV3AAAAAElFTkSuQmCC;" vertex="1" parent="1">
          <mxGeometry x="510" y="41.78999999999999" width="370" height="278.21" as="geometry" />
        </mxCell>
      </root>
    </mxGraphModel>
  </diagram>
</mxfile>
